<?xml version="1.0" encoding="utf-8"?>
<!-- Generator: Adobe Illustrator 26.5.0, SVG Export Plug-In . SVG Version: 6.00 Build 0)  -->
<svg version="1.1" id="Layer_1" xmlns="http://www.w3.org/2000/svg" xmlns:xlink="http://www.w3.org/1999/xlink" x="0px" y="0px"
	 width="30px" height="30px" viewBox="0 0 10.28 10.46" style="enable-background:new 0 0 10.28 10.46;" xml:space="preserve">
<style type="text/css">
	.st0{fill:none;stroke:#FFFFFF;stroke-width:0.75;stroke-miterlimit:10;}
	.st1{fill:#FFFFFF;}
</style>
<g>
	<path d="M7.3,9.36H2.98c-1.05,0-1.9-0.85-1.9-1.9V3c0-1.05,0.85-1.9,1.9-1.9H7.3c1.05,0,1.9,0.85,1.9,1.9v4.46
		C9.2,8.51,8.35,9.36,7.3,9.36z"/>
	<path class="st0" d="M7.12,8.47H3.11c-0.66,0-1.19-0.53-1.19-1.19V3.27c0-0.66,0.53-1.19,1.19-1.19h4.01
		c0.66,0,1.19,0.53,1.19,1.19v4.01C8.31,7.94,7.78,8.47,7.12,8.47z"/>
	<circle class="st0" cx="5.09" cy="5.24" r="1.56"/>
	<circle class="st1" cx="6.99" cy="3.3" r="0.34"/>
</g>
</svg>
