<?xml version="1.0" encoding="utf-8"?>
<!-- Generator: Adobe Illustrator 26.5.0, SVG Export Plug-In . SVG Version: 6.00 Build 0)  -->
<svg version="1.1" id="Layer_1" xmlns="http://www.w3.org/2000/svg" xmlns:xlink="http://www.w3.org/1999/xlink" x="-30px" y="-30px"
	 width="30px" height="30px" viewBox="0 0 10.28 10.46" style="enable-background:new 0 0 10.28 10.46;" xml:space="preserve">
<style type="text/css">
	.st0{fill:#FFFFFF;}
</style>
<g>
	<path d="M7.18,1.96H3.1c-0.68,0-1.23,0.55-1.23,1.23v4.07c0,0.68,0.55,1.23,1.23,1.23h4.07c0.68,0,1.23-0.55,1.23-1.23V3.19
		C8.41,2.51,7.86,1.96,7.18,1.96z"/>
	<g>
		<path class="st0" d="M3.69,3.3c0,0.24-0.19,0.43-0.5,0.43c-0.29,0-0.48-0.19-0.48-0.43c0-0.24,0.2-0.43,0.49-0.43
			C3.5,2.87,3.69,3.06,3.69,3.3z M2.77,7.31V4.18h0.88v3.13H2.77z"/>
		<path class="st0" d="M4.48,5.14c0-0.36-0.01-0.66-0.03-0.93H5.2l0.04,0.47h0.02c0.15-0.24,0.52-0.54,1.09-0.54
			c0.6,0,1.21,0.35,1.21,1.34v1.86H6.7V5.58c0-0.45-0.18-0.79-0.65-0.79c-0.34,0-0.58,0.22-0.67,0.46C5.35,5.32,5.34,5.41,5.34,5.5
			v1.84H4.48V5.14z"/>
	</g>
</g>
</svg>
