<?xml version="1.0" encoding="utf-8"?>
<!-- Generator: Adobe Illustrator 26.5.0, SVG Export Plug-In . SVG Version: 6.00 Build 0)  -->
<svg version="1.1" id="Layer_1" xmlns="http://www.w3.org/2000/svg" xmlns:xlink="http://www.w3.org/1999/xlink" x="0px" y="0px"
	 width="25px" height="25px" viewBox="0 0 10.28 10.46" style="enable-background:new 0 0 10.28 10.46;" xml:space="preserve">
<style type="text/css">
	.st0{fill:#FFFFFF;}
</style>
<g>
	<path d="M9.53,3.06v4.33c0,0.79-0.63,1.43-1.42,1.43H2.18c-0.79,0-1.43-0.64-1.43-1.43V3.06c0-0.24,0.05-0.47,0.17-0.66
		C1.05,2.16,1.25,1.95,1.5,1.82C1.7,1.7,1.94,1.64,2.18,1.64h5.92c0.25,0,0.48,0.06,0.68,0.18C9.03,1.94,9.23,2.15,9.36,2.4
		C9.46,2.6,9.53,2.83,9.53,3.06z"/>
	<path class="st0" d="M9.36,2.36C8.17,3.64,6.98,4.92,5.79,6.2c-0.36,0.38-0.94,0.38-1.3,0C3.31,4.92,2.12,3.65,0.93,2.37
		C1.05,2.13,1.25,1.94,1.5,1.82c1.09,1.17,2.19,2.35,3.27,3.52c0.21,0.23,0.54,0.23,0.75,0C6.61,4.17,7.7,2.99,8.78,1.82
		C9.03,1.93,9.23,2.13,9.36,2.36z"/>
</g>
</svg>
