<?xml version="1.0" encoding="UTF-8"?>
<svg xmlns="http://www.w3.org/2000/svg" xmlns:xlink="http://www.w3.org/1999/xlink" width="130px" height="61px" viewBox="0 0 130 61" version="1.1">
<g id="surface4">
<path style=" stroke:none;fill-rule:nonzero;fill:rgb(0%,0%,0%);fill-opacity:1;" d="M 50.46875 30.601562 C 47.675781 30.449219 44.785156 29.195312 42.578125 27.539062 C 41.605469 26.808594 40.726562 25.953125 39.96875 24.996094 C 39.023438 23.796875 38.417969 22.382812 37.5 21.167969 C 36.167969 19.398438 34.371094 18.078125 32.316406 17.269531 C 30.730469 16.644531 29.007812 16.339844 27.296875 16.292969 C 26.738281 16.273438 26.179688 16.28125 25.621094 16.332031 C 25.5 16.339844 24.617188 16.453125 24.976562 16.40625 C 23.558594 16.605469 22.1875 17.042969 20.910156 17.71875 C 19.84375 18.277344 18.839844 19.027344 18.035156 19.941406 C 17.460938 20.597656 16.65625 21.546875 16.683594 22.488281 C 16.808594 25.773438 23.332031 22.371094 24.257812 21.8125 C 24.914062 21.421875 24.316406 20.398438 23.664062 20.785156 C 22.5 21.480469 21.167969 22.152344 19.84375 22.476562 C 19.378906 22.589844 18.832031 22.695312 18.359375 22.640625 C 17.542969 22.542969 17.980469 21.992188 18.339844 21.460938 C 19.605469 19.570312 21.742188 18.382812 23.898438 17.820312 C 24.5625 17.652344 25.035156 17.574219 25.480469 17.539062 C 28.382812 17.269531 31.457031 17.820312 33.933594 19.425781 C 36.089844 20.824219 37.027344 22.875 38.4375 24.917969 C 39.648438 26.667969 41.199219 28.148438 42.996094 29.269531 C 45.179688 30.636719 47.855469 31.636719 50.449219 31.789062 C 51.222656 31.835938 51.222656 30.636719 50.46875 30.601562 Z M 50.46875 30.601562 "/>
<path style=" stroke:none;fill-rule:nonzero;fill:rgb(0%,0%,0%);fill-opacity:1;" d="M 27.285156 22.085938 C 26.074219 23.65625 24.4375 25.015625 22.679688 25.898438 C 22.074219 26.203125 21.394531 26.496094 20.722656 26.582031 C 20.703125 26.582031 20.53125 26.589844 20.457031 26.589844 C 20.410156 26.589844 20.363281 26.589844 20.316406 26.582031 C 20.449219 26.601562 20.296875 26.570312 20.269531 26.5625 C 20.238281 26.550781 20.210938 26.542969 20.183594 26.535156 C 20.316406 26.582031 20.191406 26.542969 20.164062 26.515625 C 20.078125 26.449219 20.164062 26.523438 20.183594 26.535156 C 20.144531 26.515625 20.042969 26.371094 20.136719 26.503906 C 20.109375 26.46875 20.023438 26.277344 20.078125 26.429688 C 20.050781 26.363281 20.042969 26.296875 20.023438 26.21875 C 19.976562 26.066406 20.003906 26.277344 20.011719 26.105469 C 20.011719 26.011719 20.011719 25.90625 20.011719 25.8125 C 20.011719 25.773438 20.042969 25.527344 20.023438 25.660156 C 20.042969 25.566406 20.050781 25.460938 20.078125 25.363281 C 20.117188 25.164062 20.171875 24.964844 20.230469 24.777344 C 20.296875 24.566406 20.363281 24.367188 20.4375 24.167969 C 20.476562 24.074219 20.503906 23.988281 20.542969 23.894531 C 20.550781 23.863281 20.597656 23.757812 20.542969 23.894531 C 20.5625 23.84375 20.582031 23.808594 20.597656 23.757812 C 20.675781 23.597656 20.742188 23.4375 20.828125 23.273438 C 21.175781 22.601562 20.15625 21.992188 19.804688 22.675781 C 19.539062 23.199219 19.3125 23.742188 19.132812 24.300781 C 18.867188 25.117188 18.605469 26.164062 19.03125 26.972656 C 19.617188 28.101562 21.0625 27.789062 22.027344 27.445312 C 23.578125 26.894531 24.96875 25.972656 26.207031 24.890625 C 26.890625 24.292969 27.558594 23.636719 28.109375 22.921875 C 28.308594 22.667969 28.355469 22.335938 28.109375 22.085938 C 27.910156 21.878906 27.476562 21.832031 27.285156 22.085938 Z M 27.285156 22.085938 "/>
<path style=" stroke:none;fill-rule:nonzero;fill:rgb(0%,0%,0%);fill-opacity:1;" d="M 29.992188 24.546875 C 29.300781 25.640625 28.515625 26.6875 27.625 27.617188 C 26.957031 28.308594 26.226562 28.832031 25.308594 29.144531 C 24.875 29.289062 24.4375 29.394531 23.976562 29.363281 C 23.824219 29.355469 23.71875 29.335938 23.570312 29.289062 C 23.445312 29.25 23.359375 29.203125 23.324219 29.15625 C 23.359375 29.203125 23.265625 29.042969 23.246094 29.003906 C 23.238281 28.976562 23.199219 28.851562 23.191406 28.785156 C 23.144531 28.578125 23.132812 28.367188 23.132812 28.160156 C 23.132812 27.757812 23.191406 27.246094 23.445312 26.914062 C 23.644531 26.667969 23.691406 26.316406 23.445312 26.078125 C 23.238281 25.867188 22.8125 25.820312 22.613281 26.078125 C 21.941406 26.921875 21.78125 28.1875 22.085938 29.222656 C 22.367188 30.210938 23.257812 30.589844 24.230469 30.5625 C 26.671875 30.496094 28.429688 28.679688 29.820312 26.867188 C 30.246094 26.316406 30.652344 25.746094 31.03125 25.15625 C 31.429688 24.5 30.398438 23.902344 29.992188 24.546875 Z M 29.992188 24.546875 "/>
<path style=" stroke:none;fill-rule:nonzero;fill:rgb(0%,0%,0%);fill-opacity:1;" d="M 32.980469 26.523438 C 32.667969 28.035156 31.910156 29.527344 30.824219 30.65625 C 30.019531 31.484375 28.855469 32.242188 27.710938 32.242188 C 27.558594 32.242188 27.65625 32.253906 27.523438 32.214844 C 27.476562 32.207031 27.4375 32.195312 27.390625 32.175781 C 27.296875 32.148438 27.503906 32.242188 27.363281 32.167969 C 27.324219 32.148438 27.136719 32.015625 27.238281 32.101562 C 27.164062 32.042969 27.097656 31.96875 27.039062 31.902344 C 27.125 32.003906 26.992188 31.824219 26.972656 31.789062 C 26.945312 31.75 26.925781 31.703125 26.90625 31.652344 C 26.839844 31.511719 26.9375 31.730469 26.898438 31.636719 C 26.832031 31.464844 26.792969 31.292969 26.757812 31.113281 C 26.746094 31.074219 26.746094 31.027344 26.738281 30.988281 C 26.757812 31.140625 26.738281 30.960938 26.738281 30.933594 C 26.726562 30.835938 26.726562 30.742188 26.71875 30.648438 C 26.710938 30.476562 26.71875 30.316406 26.726562 30.144531 C 26.738281 30.019531 26.746094 29.898438 26.757812 29.773438 C 26.765625 29.628906 26.726562 29.933594 26.757812 29.765625 C 26.8125 29.449219 26.671875 29.128906 26.339844 29.03125 C 26.054688 28.957031 25.667969 29.128906 25.613281 29.449219 C 25.386719 30.816406 25.527344 32.765625 27.050781 33.296875 C 28.355469 33.753906 29.933594 32.917969 30.9375 32.128906 C 31.976562 31.3125 32.773438 30.210938 33.339844 29.023438 C 33.671875 28.328125 33.972656 27.578125 34.125 26.820312 C 34.277344 26.085938 33.140625 25.773438 32.980469 26.523438 Z M 32.980469 26.523438 "/>
<path style=" stroke:none;fill-rule:nonzero;fill:rgb(0%,0%,0%);fill-opacity:1;" d="M 36.121094 28.652344 C 36.121094 28.777344 36.101562 28.898438 36.089844 29.023438 C 36.082031 29.089844 36.074219 29.144531 36.074219 29.210938 C 36.101562 29.023438 36.0625 29.25 36.0625 29.289062 C 36.035156 29.46875 35.996094 29.648438 35.960938 29.832031 C 35.75 30.769531 35.429688 31.578125 34.851562 32.367188 C 34.558594 32.765625 34.171875 33.15625 33.753906 33.441406 C 33.527344 33.59375 33.28125 33.734375 33.027344 33.847656 C 32.914062 33.894531 32.800781 33.945312 32.675781 33.972656 C 32.628906 33.980469 32.59375 34 32.542969 34.011719 C 32.527344 34.019531 32.289062 34.058594 32.402344 34.046875 C 32.308594 34.058594 32.222656 34.058594 32.128906 34.058594 C 32.101562 34.058594 31.941406 34.027344 32.089844 34.058594 C 32.054688 34.046875 32.015625 34.046875 31.976562 34.027344 C 31.941406 34.019531 31.902344 34.011719 31.863281 34 C 31.722656 33.953125 31.96875 34.058594 31.84375 33.992188 C 31.796875 33.960938 31.597656 33.820312 31.722656 33.925781 C 31.664062 33.878906 31.617188 33.828125 31.570312 33.78125 C 31.550781 33.761719 31.464844 33.648438 31.5625 33.773438 C 31.542969 33.746094 31.523438 33.714844 31.503906 33.6875 C 31.464844 33.621094 31.429688 33.554688 31.390625 33.488281 C 31.371094 33.460938 31.363281 33.421875 31.34375 33.394531 C 31.324219 33.355469 31.335938 33.363281 31.363281 33.441406 C 31.351562 33.410156 31.34375 33.394531 31.335938 33.363281 C 31.277344 33.210938 31.230469 33.058594 31.191406 32.898438 C 31.171875 32.8125 31.15625 32.726562 31.144531 32.640625 C 31.144531 32.625 31.136719 32.59375 31.136719 32.574219 C 31.117188 32.472656 31.144531 32.738281 31.136719 32.574219 C 31.125 32.433594 31.105469 32.300781 31.105469 32.15625 C 31.105469 31.398438 29.925781 31.386719 29.925781 32.15625 C 29.925781 33.46875 30.511719 35.082031 31.988281 35.246094 C 33.207031 35.378906 34.503906 34.523438 35.316406 33.679688 C 36.128906 32.824219 36.667969 31.75 36.988281 30.617188 C 37.167969 29.992188 37.300781 29.328125 37.320312 28.671875 C 37.320312 27.882812 36.140625 27.882812 36.121094 28.652344 Z M 36.121094 28.652344 "/>
<path style=" stroke:none;fill-rule:nonzero;fill:rgb(0%,0%,0%);fill-opacity:1;" d="M 37.300781 28.898438 C 37.300781 28.871094 37.300781 28.832031 37.300781 28.804688 C 37.300781 28.644531 37.3125 28.851562 37.332031 28.652344 C 37.339844 28.566406 37.359375 28.699219 37.339844 28.625 C 37.3125 28.507812 37.367188 28.71875 37.292969 28.660156 C 37.300781 28.671875 37.320312 28.691406 37.253906 28.660156 C 37.300781 28.691406 37.367188 28.660156 37.445312 28.691406 C 38.703125 29.269531 39.5625 30.449219 40.773438 31.132812 C 43.023438 32.40625 45.671875 32.992188 48.214844 33.355469 C 48.886719 33.449219 49.558594 33.542969 50.242188 33.59375 C 50.996094 33.648438 50.996094 32.460938 50.242188 32.40625 C 48.28125 32.261719 46.316406 31.890625 44.433594 31.339844 C 43.042969 30.933594 41.597656 30.398438 40.441406 29.496094 C 39.5625 28.8125 38.363281 27.199219 37.046875 27.492188 C 36.421875 27.636719 36.101562 28.292969 36.128906 28.898438 C 36.167969 29.660156 37.347656 29.660156 37.300781 28.898438 Z M 37.300781 28.898438 "/>
<path style=" stroke:none;fill-rule:nonzero;fill:rgb(0%,0%,0%);fill-opacity:1;" d="M 49.511719 33.355469 C 49.523438 33.394531 49.53125 33.441406 49.53125 33.476562 C 49.550781 33.582031 49.511719 33.289062 49.523438 33.402344 C 49.523438 33.421875 49.53125 33.449219 49.53125 33.46875 C 49.539062 33.535156 49.539062 33.601562 49.539062 33.667969 C 49.550781 33.828125 49.539062 33.992188 49.53125 34.152344 C 49.53125 34.171875 49.53125 34.191406 49.523438 34.210938 C 49.511719 34.324219 49.539062 34.078125 49.53125 34.152344 C 49.523438 34.199219 49.523438 34.238281 49.511719 34.285156 C 49.492188 34.390625 49.464844 34.484375 49.4375 34.589844 C 49.425781 34.628906 49.410156 34.675781 49.398438 34.714844 C 49.390625 34.742188 49.378906 34.761719 49.371094 34.789062 C 49.34375 34.867188 49.4375 34.648438 49.378906 34.75 C 49.332031 34.847656 49.285156 34.941406 49.230469 35.035156 C 49.199219 35.074219 49.164062 35.121094 49.132812 35.167969 C 49.179688 35.054688 49.191406 35.101562 49.144531 35.148438 C 49.125 35.167969 49.105469 35.199219 49.085938 35.214844 C 49.050781 35.253906 49.011719 35.292969 48.972656 35.332031 C 48.945312 35.351562 48.917969 35.378906 48.898438 35.398438 C 48.851562 35.433594 49 35.320312 48.898438 35.398438 C 48.851562 35.425781 48.8125 35.453125 48.765625 35.472656 C 48.691406 35.519531 48.8125 35.453125 48.820312 35.453125 C 48.804688 35.464844 48.773438 35.472656 48.753906 35.484375 C 48.71875 35.492188 48.671875 35.5 48.632812 35.511719 C 48.8125 35.464844 48.707031 35.5 48.632812 35.5 C 48.492188 35.5 48.773438 35.539062 48.640625 35.5 C 48.605469 35.492188 48.574219 35.484375 48.539062 35.472656 C 48.425781 35.433594 48.679688 35.550781 48.566406 35.484375 C 48.539062 35.464844 48.5 35.445312 48.472656 35.425781 C 48.453125 35.417969 48.445312 35.40625 48.425781 35.398438 C 48.367188 35.359375 48.558594 35.511719 48.480469 35.433594 C 48.453125 35.40625 48.425781 35.386719 48.394531 35.359375 C 48.347656 35.320312 48.3125 35.273438 48.273438 35.226562 C 48.199219 35.140625 48.378906 35.367188 48.300781 35.265625 C 48.292969 35.246094 48.28125 35.234375 48.273438 35.214844 C 48.265625 35.199219 48.253906 35.1875 48.246094 35.167969 C 48.09375 34.902344 47.707031 34.78125 47.433594 34.960938 C 47.15625 35.132812 47.054688 35.484375 47.222656 35.777344 C 47.59375 36.421875 48.386719 36.890625 49.125 36.605469 C 50.210938 36.1875 50.714844 34.960938 50.722656 33.859375 C 50.722656 33.582031 50.703125 33.308594 50.648438 33.042969 C 50.582031 32.738281 50.210938 32.527344 49.917969 32.625 C 49.605469 32.726562 49.445312 33.023438 49.511719 33.355469 Z M 49.511719 33.355469 "/>
<path style=" stroke:none;fill-rule:nonzero;fill:rgb(0%,0%,0%);fill-opacity:1;" d="M 47.496094 33.191406 C 47.507812 33.355469 47.496094 33.515625 47.480469 33.679688 C 47.460938 33.828125 47.496094 33.5625 47.480469 33.648438 C 47.46875 33.6875 47.46875 33.734375 47.460938 33.773438 C 47.441406 33.867188 47.421875 33.953125 47.402344 34.039062 C 47.382812 34.125 47.355469 34.210938 47.316406 34.296875 C 47.308594 34.3125 47.300781 34.332031 47.300781 34.351562 C 47.261719 34.457031 47.355469 34.238281 47.316406 34.3125 C 47.289062 34.371094 47.269531 34.417969 47.242188 34.476562 C 47.195312 34.5625 47.148438 34.648438 47.089844 34.730469 C 47.074219 34.75 47.054688 34.78125 47.042969 34.796875 C 47.007812 34.867188 47.136719 34.683594 47.0625 34.769531 C 47.023438 34.816406 46.988281 34.855469 46.949219 34.902344 C 46.910156 34.949219 46.863281 34.988281 46.816406 35.027344 C 46.796875 35.046875 46.777344 35.054688 46.761719 35.074219 C 46.835938 34.988281 46.828125 35.027344 46.789062 35.046875 C 46.730469 35.082031 46.675781 35.121094 46.617188 35.160156 C 46.597656 35.167969 46.570312 35.1875 46.550781 35.199219 C 46.535156 35.207031 46.515625 35.214844 46.484375 35.226562 C 46.515625 35.214844 46.542969 35.207031 46.5625 35.199219 C 46.515625 35.207031 46.457031 35.234375 46.410156 35.246094 C 46.390625 35.253906 46.371094 35.253906 46.355469 35.253906 C 46.25 35.285156 46.484375 35.246094 46.410156 35.246094 C 46.371094 35.246094 46.335938 35.246094 46.296875 35.246094 C 46.210938 35.253906 46.390625 35.253906 46.382812 35.253906 C 46.363281 35.253906 46.324219 35.246094 46.296875 35.234375 C 46.210938 35.214844 46.191406 35.167969 46.316406 35.253906 C 46.289062 35.234375 46.257812 35.226562 46.230469 35.207031 C 46.203125 35.1875 46.171875 35.167969 46.144531 35.148438 C 46.304688 35.234375 46.210938 35.207031 46.164062 35.148438 C 46.136719 35.121094 46.109375 35.09375 46.089844 35.066406 C 46.078125 35.054688 46.070312 35.046875 46.058594 35.035156 C 46.003906 34.96875 46.15625 35.167969 46.109375 35.09375 C 46.070312 35.046875 46.042969 34.988281 46.003906 34.933594 C 45.957031 34.847656 45.878906 34.65625 45.976562 34.902344 C 45.863281 34.617188 45.570312 34.378906 45.246094 34.484375 C 44.964844 34.582031 44.71875 34.902344 44.832031 35.214844 C 44.933594 35.472656 45.066406 35.703125 45.257812 35.910156 C 45.605469 36.300781 46.109375 36.472656 46.617188 36.386719 C 47.222656 36.28125 47.734375 35.816406 48.074219 35.332031 C 48.347656 34.941406 48.519531 34.476562 48.59375 34.011719 C 48.640625 33.734375 48.679688 33.449219 48.660156 33.164062 C 48.640625 32.851562 48.40625 32.558594 48.074219 32.574219 C 47.792969 32.613281 47.480469 32.859375 47.496094 33.191406 Z M 47.496094 33.191406 "/>
<path style=" stroke:none;fill-rule:nonzero;fill:rgb(0%,0%,0%);fill-opacity:1;" d="M 45.273438 32.640625 C 45.285156 32.804688 45.273438 32.964844 45.265625 33.125 C 45.265625 33.15625 45.246094 33.289062 45.265625 33.164062 C 45.285156 33.042969 45.265625 33.183594 45.257812 33.210938 C 45.238281 33.296875 45.21875 33.394531 45.199219 33.476562 C 45.179688 33.5625 45.152344 33.648438 45.125 33.734375 C 45.105469 33.78125 45.085938 33.828125 45.066406 33.878906 C 45.125 33.695312 45.078125 33.859375 45.046875 33.90625 C 45 34 44.953125 34.085938 44.898438 34.171875 C 44.867188 34.210938 44.832031 34.246094 44.8125 34.296875 C 44.878906 34.171875 44.867188 34.230469 44.832031 34.265625 C 44.8125 34.296875 44.785156 34.324219 44.765625 34.34375 C 44.726562 34.378906 44.6875 34.417969 44.652344 34.457031 C 44.632812 34.476562 44.605469 34.496094 44.585938 34.515625 C 44.5 34.589844 44.605469 34.523438 44.605469 34.503906 C 44.605469 34.53125 44.480469 34.589844 44.453125 34.609375 C 44.40625 34.636719 44.3125 34.664062 44.273438 34.703125 C 44.28125 34.695312 44.414062 34.65625 44.320312 34.683594 C 44.292969 34.695312 44.273438 34.703125 44.246094 34.703125 C 44.179688 34.722656 44.066406 34.714844 44.246094 34.714844 C 44.195312 34.714844 44.160156 34.714844 44.113281 34.714844 C 43.96875 34.714844 44.253906 34.75 44.121094 34.714844 C 44.113281 34.714844 44.015625 34.695312 44.007812 34.675781 C 44.007812 34.664062 44.160156 34.75 44.082031 34.703125 C 44.074219 34.695312 44.054688 34.695312 44.046875 34.683594 C 44.015625 34.664062 43.988281 34.648438 43.953125 34.628906 C 43.886719 34.589844 44.015625 34.675781 44.015625 34.683594 C 44.015625 34.683594 43.980469 34.648438 43.96875 34.648438 C 43.941406 34.617188 43.914062 34.589844 43.886719 34.5625 C 43.847656 34.515625 43.78125 34.410156 43.902344 34.589844 C 43.867188 34.542969 43.828125 34.484375 43.800781 34.4375 C 43.78125 34.398438 43.761719 34.363281 43.734375 34.324219 C 43.675781 34.21875 43.761719 34.398438 43.769531 34.410156 C 43.714844 34.257812 43.640625 34.144531 43.496094 34.058594 C 43.375 33.980469 43.183594 33.953125 43.042969 34 C 42.769531 34.085938 42.503906 34.417969 42.628906 34.730469 C 42.730469 34.988281 42.863281 35.214844 43.050781 35.425781 C 43.410156 35.816406 43.914062 35.976562 44.433594 35.882812 C 45.039062 35.769531 45.550781 35.285156 45.878906 34.789062 C 46.136719 34.398438 46.296875 33.945312 46.371094 33.488281 C 46.417969 33.210938 46.457031 32.917969 46.429688 32.640625 C 46.402344 32.328125 46.171875 32.035156 45.84375 32.054688 C 45.570312 32.0625 45.257812 32.308594 45.273438 32.640625 Z M 45.273438 32.640625 "/>
<path style=" stroke:none;fill-rule:nonzero;fill:rgb(0%,0%,0%);fill-opacity:1;" d="M 43.195312 32.121094 C 43.195312 32.167969 43.195312 32.214844 43.183594 32.253906 C 43.183594 32.300781 43.175781 32.347656 43.167969 32.394531 C 43.183594 32.140625 43.167969 32.386719 43.148438 32.460938 C 43.117188 32.625 43.070312 32.785156 43.023438 32.945312 C 43.003906 32.992188 42.988281 33.042969 42.96875 33.089844 C 42.949219 33.125 42.921875 33.175781 42.996094 33.03125 C 42.988281 33.050781 42.976562 33.070312 42.96875 33.089844 C 42.921875 33.183594 42.871094 33.289062 42.816406 33.375 C 42.789062 33.421875 42.757812 33.460938 42.730469 33.496094 C 42.710938 33.515625 42.691406 33.542969 42.683594 33.5625 C 42.683594 33.554688 42.777344 33.449219 42.710938 33.527344 C 42.636719 33.609375 42.550781 33.707031 42.464844 33.78125 C 42.449219 33.800781 42.429688 33.8125 42.410156 33.828125 C 42.371094 33.859375 42.34375 33.859375 42.4375 33.800781 C 42.390625 33.828125 42.34375 33.867188 42.296875 33.894531 C 42.238281 33.925781 42.191406 33.953125 42.136719 33.980469 C 42.039062 34.027344 42.152344 33.972656 42.171875 33.972656 C 42.144531 33.972656 42.105469 34 42.078125 34.011719 C 42.03125 34.027344 41.964844 34.027344 41.925781 34.046875 C 41.9375 34.046875 42.089844 34.039062 41.992188 34.039062 C 41.972656 34.039062 41.957031 34.039062 41.9375 34.039062 C 41.917969 34.039062 41.890625 34.039062 41.871094 34.039062 C 41.792969 34.039062 41.851562 34 41.9375 34.046875 C 41.910156 34.027344 41.851562 34.019531 41.824219 34.019531 C 41.746094 34 41.898438 34.046875 41.898438 34.058594 C 41.878906 34.046875 41.859375 34.039062 41.851562 34.027344 C 41.824219 34.011719 41.792969 33.992188 41.765625 33.972656 C 41.699219 33.933594 41.832031 34.019531 41.832031 34.019531 C 41.824219 34.011719 41.804688 33.992188 41.792969 33.980469 C 41.765625 33.953125 41.738281 33.925781 41.710938 33.894531 C 41.699219 33.886719 41.691406 33.878906 41.679688 33.867188 C 41.613281 33.800781 41.765625 34 41.71875 33.925781 C 41.699219 33.894531 41.679688 33.867188 41.664062 33.839844 C 41.632812 33.792969 41.605469 33.734375 41.578125 33.679688 C 41.550781 33.621094 41.519531 33.515625 41.597656 33.734375 C 41.585938 33.714844 41.585938 33.707031 41.578125 33.6875 C 41.566406 33.667969 41.566406 33.660156 41.558594 33.640625 C 41.464844 33.34375 41.140625 33.125 40.828125 33.222656 C 40.535156 33.316406 40.320312 33.628906 40.414062 33.953125 C 40.621094 34.648438 41.246094 35.285156 42.011719 35.207031 C 43.175781 35.101562 43.980469 34 44.246094 32.9375 C 44.3125 32.660156 44.359375 32.375 44.367188 32.089844 C 44.367188 31.777344 44.09375 31.484375 43.78125 31.503906 C 43.460938 31.539062 43.195312 31.777344 43.195312 32.121094 Z M 43.195312 32.121094 "/>
<path style=" stroke:none;fill-rule:nonzero;fill:rgb(0%,0%,0%);fill-opacity:1;" d="M 41.253906 31.339844 C 41.253906 31.386719 41.246094 31.4375 41.246094 31.484375 C 41.238281 31.558594 41.273438 31.292969 41.253906 31.398438 C 41.246094 31.425781 41.246094 31.453125 41.238281 31.492188 C 41.226562 31.558594 41.207031 31.625 41.199219 31.691406 C 41.160156 31.855469 41.113281 32.015625 41.046875 32.175781 C 40.992188 32.320312 41.105469 32.070312 41.039062 32.1875 C 41.019531 32.234375 41 32.273438 40.972656 32.320312 C 40.925781 32.414062 40.867188 32.5 40.8125 32.585938 C 40.773438 32.632812 40.679688 32.726562 40.792969 32.613281 C 40.753906 32.652344 40.726562 32.699219 40.6875 32.738281 C 40.648438 32.773438 40.613281 32.8125 40.574219 32.851562 C 40.554688 32.871094 40.441406 32.957031 40.441406 32.976562 C 40.441406 32.945312 40.546875 32.898438 40.460938 32.964844 C 40.441406 32.984375 40.421875 32.992188 40.394531 33.011719 C 40.347656 33.042969 40.300781 33.078125 40.242188 33.109375 C 40.214844 33.117188 40.195312 33.136719 40.167969 33.144531 C 40.160156 33.15625 40.140625 33.15625 40.128906 33.164062 C 40.082031 33.183594 40.082031 33.183594 40.128906 33.164062 C 40.140625 33.15625 40.148438 33.15625 40.167969 33.144531 C 40.148438 33.15625 40.121094 33.164062 40.101562 33.175781 C 40.074219 33.183594 40.035156 33.191406 40.007812 33.203125 C 39.988281 33.210938 39.96875 33.210938 39.941406 33.210938 C 39.847656 33.230469 39.996094 33.203125 40.007812 33.203125 C 39.96875 33.191406 39.902344 33.203125 39.867188 33.203125 C 39.769531 33.203125 40.027344 33.242188 39.894531 33.203125 C 39.855469 33.191406 39.816406 33.175781 39.78125 33.164062 C 39.902344 33.183594 39.902344 33.222656 39.847656 33.191406 C 39.828125 33.183594 39.808594 33.175781 39.800781 33.164062 C 39.789062 33.15625 39.769531 33.144531 39.761719 33.136719 C 39.695312 33.097656 39.828125 33.183594 39.828125 33.191406 C 39.78125 33.136719 39.722656 33.089844 39.675781 33.042969 C 39.648438 33.003906 39.648438 32.964844 39.734375 33.109375 C 39.722656 33.089844 39.703125 33.070312 39.695312 33.058594 C 39.675781 33.03125 39.65625 33.003906 39.648438 32.976562 C 39.636719 32.957031 39.554688 32.8125 39.5625 32.804688 C 39.5625 32.804688 39.628906 32.984375 39.589844 32.871094 C 39.582031 32.851562 39.582031 32.839844 39.570312 32.824219 C 39.5625 32.804688 39.5625 32.792969 39.554688 32.773438 C 39.476562 32.472656 39.128906 32.261719 38.824219 32.355469 C 38.523438 32.460938 38.324219 32.765625 38.410156 33.089844 C 38.589844 33.78125 39.195312 34.417969 39.949219 34.390625 C 40.566406 34.371094 41.160156 34 41.558594 33.535156 C 41.890625 33.144531 42.125 32.691406 42.277344 32.1875 C 42.351562 31.910156 42.410156 31.617188 42.429688 31.332031 C 42.449219 31.019531 42.144531 30.722656 41.84375 30.742188 C 41.511719 30.761719 41.265625 31.007812 41.253906 31.339844 Z M 41.253906 31.339844 "/>
<path style=" stroke:none;fill-rule:nonzero;fill:rgb(0%,0%,0%);fill-opacity:1;" d="M 38.597656 29.308594 C 38.617188 29.375 38.625 29.441406 38.636719 29.507812 C 38.644531 29.546875 38.644531 29.574219 38.65625 29.613281 C 38.671875 29.707031 38.644531 29.546875 38.644531 29.546875 C 38.65625 29.546875 38.65625 29.613281 38.65625 29.628906 C 38.664062 29.746094 38.671875 29.847656 38.683594 29.964844 C 38.710938 30.65625 38.65625 31.140625 38.457031 31.796875 C 38.34375 32.195312 38.183594 32.566406 37.984375 32.925781 C 37.792969 33.269531 37.566406 33.628906 37.253906 33.878906 C 37.320312 33.828125 37.140625 33.945312 37.121094 33.953125 C 37.105469 33.960938 37.007812 34.011719 37.074219 33.980469 C 37.140625 33.953125 37.046875 33.992188 37.039062 33.992188 C 37.007812 34 36.828125 34.039062 36.914062 34.027344 C 36.988281 34.019531 36.792969 34.019531 36.761719 34.027344 C 36.6875 34.039062 36.859375 34.066406 36.800781 34.027344 C 36.78125 34.019531 36.746094 34.019531 36.726562 34.011719 C 36.695312 34 36.679688 33.992188 36.648438 33.980469 C 36.574219 33.972656 36.734375 34.039062 36.679688 33.992188 C 36.640625 33.960938 36.574219 33.933594 36.535156 33.90625 C 36.515625 33.894531 36.449219 33.839844 36.507812 33.886719 C 36.582031 33.945312 36.46875 33.847656 36.460938 33.839844 C 36.414062 33.792969 36.375 33.746094 36.328125 33.695312 C 36.433594 33.8125 36.300781 33.648438 36.269531 33.601562 C 36.234375 33.535156 36.203125 33.476562 36.175781 33.410156 C 36.234375 33.535156 36.167969 33.382812 36.15625 33.335938 C 36.140625 33.277344 36.140625 33.210938 36.109375 33.15625 C 36.148438 33.269531 36.121094 33.242188 36.121094 33.191406 C 36.121094 33.15625 36.109375 33.109375 36.109375 33.070312 C 36.109375 33.042969 36.109375 33.011719 36.109375 32.992188 C 36.101562 32.878906 36.074219 33.109375 36.109375 32.992188 C 36.128906 32.925781 36.140625 32.871094 36.167969 32.804688 C 36.28125 32.5 36.042969 32.15625 35.75 32.070312 C 35.421875 31.976562 35.136719 32.1875 35.023438 32.492188 C 34.523438 33.839844 35.863281 35.53125 37.292969 35.160156 C 38.265625 34.902344 38.890625 33.878906 39.269531 33.023438 C 39.636719 32.1875 39.855469 31.304688 39.882812 30.390625 C 39.894531 29.933594 39.875 29.441406 39.75 29.003906 C 39.667969 28.691406 39.328125 28.5 39.023438 28.585938 C 38.703125 28.671875 38.511719 29.003906 38.597656 29.308594 Z M 38.597656 29.308594 "/>
<path style=" stroke:none;fill-rule:nonzero;fill:rgb(0%,0%,0%);fill-opacity:1;" d="M 17.707031 22.800781 C 15.792969 24.3125 14.101562 26.410156 13.136719 28.652344 C 12.398438 30.390625 12.21875 32.28125 11.339844 33.980469 C 11.039062 34.570312 10.679688 35.226562 10.175781 35.671875 C 9.664062 36.128906 10.320312 36.925781 10.894531 36.605469 C 12.117188 35.917969 13.25 35.027344 14.320312 34.125 C 16.644531 32.128906 18.652344 29.714844 20.058594 26.980469 C 20.410156 26.304688 19.390625 25.699219 19.039062 26.382812 C 17.136719 30.097656 13.96875 33.535156 10.308594 35.585938 C 10.546875 35.902344 10.78125 36.203125 11.027344 36.519531 C 11.539062 36.0625 11.925781 35.417969 12.246094 34.828125 C 12.636719 34.113281 12.949219 33.355469 13.210938 32.585938 C 13.542969 31.617188 13.695312 30.589844 14.035156 29.628906 C 14.859375 27.304688 16.636719 25.164062 18.554688 23.644531 C 19.144531 23.171875 18.300781 22.335938 17.707031 22.800781 Z M 17.707031 22.800781 "/>
<path style=" stroke:none;fill-rule:nonzero;fill:rgb(0%,0%,0%);fill-opacity:1;" d="M 19.398438 26.808594 C 17.601562 28.519531 16.078125 30.789062 15.320312 33.15625 C 14.753906 34.933594 14.746094 36.804688 14.046875 38.5625 C 13.808594 39.160156 13.390625 39.976562 13.070312 40.316406 C 12.636719 40.792969 13.210938 41.648438 13.789062 41.25 C 17.46875 38.730469 20.457031 34.816406 22.121094 30.703125 C 22.40625 29.992188 21.261719 29.6875 20.976562 30.390625 C 19.871094 33.136719 18.148438 35.585938 16.085938 37.695312 C 15.1875 38.609375 14.226562 39.519531 13.195312 40.234375 C 13.429688 40.546875 13.667969 40.851562 13.914062 41.164062 C 15.625 39.3125 15.71875 36.554688 16.257812 34.246094 C 16.835938 31.769531 18.414062 29.394531 20.238281 27.65625 C 20.789062 27.121094 19.957031 26.285156 19.398438 26.808594 Z M 19.398438 26.808594 "/>
<path style=" stroke:none;fill-rule:nonzero;fill:rgb(0%,0%,0%);fill-opacity:1;" d="M 21.914062 28.8125 C 20.675781 30.617188 19.804688 32.871094 19.625 35.066406 C 19.464844 37.039062 20.058594 39.519531 19.039062 41.238281 C 18.699219 41.808594 19.503906 42.457031 19.964844 41.960938 C 22.558594 39.226562 24.382812 35.433594 25.027344 31.738281 C 25.15625 30.988281 24.015625 30.675781 23.882812 31.425781 C 23.265625 34.933594 21.582031 38.53125 19.125 41.125 C 19.4375 41.363281 19.738281 41.601562 20.050781 41.847656 C 21.089844 40.089844 20.808594 37.792969 20.769531 35.863281 C 20.730469 33.621094 21.667969 31.265625 22.925781 29.421875 C 23.359375 28.785156 22.339844 28.1875 21.914062 28.8125 Z M 21.914062 28.8125 "/>
<path style=" stroke:none;fill-rule:nonzero;fill:rgb(0%,0%,0%);fill-opacity:1;" d="M 24.429688 29.800781 C 23.617188 31.804688 23.230469 34.171875 23.511719 36.320312 C 23.777344 38.3125 24.914062 40.507812 24.230469 42.558594 C 24.003906 43.246094 24.941406 43.519531 25.308594 43.015625 C 25.953125 42.152344 26.425781 41.136719 26.832031 40.148438 C 27.777344 37.828125 28.214844 35.320312 28.109375 32.824219 C 28.082031 32.0625 26.898438 32.054688 26.925781 32.824219 C 27.050781 36.082031 26.273438 39.757812 24.289062 42.417969 C 24.648438 42.570312 25.007812 42.722656 25.367188 42.875 C 26.027344 40.886719 25.195312 38.675781 24.769531 36.753906 C 24.296875 34.609375 24.742188 32.140625 25.554688 30.125 C 25.859375 29.402344 24.714844 29.097656 24.429688 29.800781 Z M 24.429688 29.800781 "/>
<path style=" stroke:none;fill-rule:nonzero;fill:rgb(0%,0%,0%);fill-opacity:1;" d="M 27.496094 32.726562 C 27.171875 34.371094 27.191406 36.203125 27.675781 37.808594 C 28.15625 39.386719 29.441406 40.925781 29.207031 42.675781 C 29.128906 43.261719 30.058594 43.472656 30.304688 42.976562 C 31.695312 40.183594 32.167969 36.71875 31.464844 33.679688 C 31.296875 32.9375 30.152344 33.25 30.320312 33.992188 C 30.957031 36.707031 30.484375 39.949219 29.273438 42.378906 C 29.640625 42.484375 30.011719 42.578125 30.371094 42.683594 C 30.597656 40.984375 29.507812 39.425781 28.933594 37.925781 C 28.355469 36.421875 28.316406 34.550781 28.609375 33.058594 C 28.78125 32.289062 27.644531 31.976562 27.496094 32.726562 Z M 27.496094 32.726562 "/>
<path style=" stroke:none;fill-rule:nonzero;fill:rgb(0%,0%,0%);fill-opacity:1;" d="M 30.804688 34.464844 C 30.824219 35.710938 31.125 37.023438 31.695312 38.132812 C 32.136719 39.015625 32.886719 39.683594 33.339844 40.566406 C 33.480469 40.832031 33.574219 41.058594 33.652344 41.355469 C 33.671875 41.429688 33.679688 41.515625 33.707031 41.589844 C 33.746094 41.714844 33.6875 41.429688 33.699219 41.535156 C 33.71875 41.828125 33.90625 42.085938 34.210938 42.113281 C 34.472656 42.140625 34.816406 41.980469 34.863281 41.6875 C 35.210938 39.226562 34.863281 36.546875 33.792969 34.3125 C 33.460938 33.621094 32.449219 34.230469 32.773438 34.914062 C 33.425781 36.28125 33.707031 37.808594 33.773438 39.3125 C 33.792969 39.832031 33.792969 40.347656 33.753906 40.871094 C 33.746094 41.019531 33.738281 41.171875 33.71875 41.324219 C 33.707031 41.449219 33.679688 41.589844 33.71875 41.371094 C 34.105469 41.429688 34.492188 41.476562 34.882812 41.535156 C 34.84375 41.085938 34.683594 40.660156 34.503906 40.261719 C 34.3125 39.84375 34.078125 39.453125 33.8125 39.082031 C 33.519531 38.675781 33.167969 38.3125 32.902344 37.875 C 32.289062 36.851562 32.003906 35.597656 31.988281 34.464844 C 31.976562 33.695312 30.796875 33.695312 30.804688 34.464844 Z M 30.804688 34.464844 "/>
<path style=" stroke:none;fill-rule:nonzero;fill:rgb(0%,0%,0%);fill-opacity:1;" d="M 36.335938 35.101562 C 36.335938 35.148438 36.328125 35.199219 36.328125 35.246094 C 36.320312 35.320312 36.355469 35.054688 36.335938 35.160156 C 36.328125 35.1875 36.328125 35.214844 36.320312 35.253906 C 36.308594 35.320312 36.289062 35.386719 36.28125 35.453125 C 36.242188 35.617188 36.195312 35.777344 36.128906 35.9375 C 36.074219 36.082031 36.1875 35.835938 36.121094 35.949219 C 36.101562 35.996094 36.082031 36.035156 36.054688 36.082031 C 36.007812 36.175781 35.949219 36.261719 35.894531 36.347656 C 35.855469 36.394531 35.761719 36.488281 35.875 36.375 C 35.835938 36.414062 35.808594 36.460938 35.769531 36.5 C 35.730469 36.539062 35.695312 36.574219 35.65625 36.613281 C 35.636719 36.632812 35.523438 36.71875 35.523438 36.738281 C 35.523438 36.707031 35.628906 36.660156 35.542969 36.726562 C 35.523438 36.746094 35.503906 36.753906 35.476562 36.773438 C 35.429688 36.804688 35.382812 36.839844 35.324219 36.871094 C 35.296875 36.878906 35.277344 36.898438 35.25 36.90625 C 35.242188 36.917969 35.222656 36.917969 35.210938 36.925781 C 35.164062 36.945312 35.164062 36.945312 35.210938 36.925781 C 35.222656 36.917969 35.230469 36.917969 35.25 36.90625 C 35.230469 36.917969 35.203125 36.925781 35.183594 36.9375 C 35.15625 36.945312 35.117188 36.957031 35.089844 36.964844 C 35.070312 36.972656 35.050781 36.972656 35.023438 36.972656 C 34.929688 36.992188 35.078125 36.964844 35.089844 36.964844 C 35.050781 36.957031 34.984375 36.964844 34.945312 36.964844 C 34.851562 36.964844 35.109375 37.003906 34.976562 36.964844 C 34.9375 36.957031 34.898438 36.9375 34.863281 36.925781 C 34.984375 36.945312 34.984375 36.984375 34.929688 36.957031 C 34.910156 36.945312 34.890625 36.9375 34.882812 36.925781 C 34.871094 36.917969 34.851562 36.90625 34.84375 36.898438 C 34.777344 36.859375 34.910156 36.945312 34.910156 36.957031 C 34.863281 36.898438 34.804688 36.851562 34.757812 36.804688 C 34.730469 36.765625 34.730469 36.726562 34.816406 36.871094 C 34.804688 36.851562 34.785156 36.832031 34.777344 36.824219 C 34.757812 36.792969 34.738281 36.765625 34.730469 36.738281 C 34.71875 36.71875 34.636719 36.574219 34.644531 36.566406 C 34.644531 36.566406 34.710938 36.746094 34.671875 36.632812 C 34.664062 36.613281 34.664062 36.605469 34.652344 36.585938 C 34.644531 36.566406 34.644531 36.554688 34.636719 36.539062 C 34.558594 36.234375 34.210938 36.023438 33.90625 36.121094 C 33.605469 36.222656 33.40625 36.527344 33.492188 36.851562 C 33.671875 37.542969 34.277344 38.179688 35.03125 38.152344 C 35.648438 38.132812 36.242188 37.761719 36.640625 37.296875 C 36.972656 36.90625 37.207031 36.453125 37.359375 35.949219 C 37.433594 35.671875 37.492188 35.378906 37.511719 35.09375 C 37.527344 34.78125 37.226562 34.484375 36.925781 34.503906 C 36.59375 34.523438 36.355469 34.769531 36.335938 35.101562 Z M 36.335938 35.101562 "/>
<path style=" stroke:none;fill-rule:nonzero;fill:rgb(0%,0%,0%);fill-opacity:1;" d="M 38.730469 33.972656 C 38.738281 34.019531 38.75 34.078125 38.757812 34.125 C 38.757812 34.152344 38.769531 34.171875 38.769531 34.199219 C 38.777344 34.257812 38.75 34.019531 38.757812 34.171875 C 38.769531 34.257812 38.777344 34.332031 38.777344 34.417969 C 38.785156 34.628906 38.777344 34.847656 38.757812 35.054688 C 38.757812 35.074219 38.757812 35.121094 38.75 35.140625 C 38.785156 35.035156 38.757812 35.074219 38.75 35.113281 C 38.738281 35.179688 38.730469 35.253906 38.710938 35.320312 C 38.683594 35.464844 38.65625 35.597656 38.605469 35.738281 C 38.445312 36.269531 38.183594 36.859375 37.746094 37.222656 C 37.871094 37.125 37.707031 37.242188 37.679688 37.257812 C 37.558594 37.335938 37.785156 37.242188 37.652344 37.269531 C 37.632812 37.277344 37.472656 37.308594 37.585938 37.289062 C 37.679688 37.277344 37.613281 37.289062 37.585938 37.289062 C 37.558594 37.289062 37.519531 37.289062 37.492188 37.289062 C 37.414062 37.289062 37.625 37.324219 37.558594 37.296875 C 37.539062 37.289062 37.519531 37.289062 37.5 37.277344 C 37.480469 37.269531 37.464844 37.257812 37.445312 37.257812 C 37.378906 37.242188 37.558594 37.324219 37.5 37.277344 C 37.472656 37.257812 37.425781 37.242188 37.398438 37.210938 C 37.378906 37.203125 37.3125 37.15625 37.398438 37.210938 C 37.480469 37.269531 37.386719 37.203125 37.378906 37.183594 C 37.359375 37.164062 37.300781 37.078125 37.285156 37.078125 C 37.339844 37.089844 37.359375 37.183594 37.320312 37.125 C 37.300781 37.097656 37.285156 37.070312 37.265625 37.050781 C 37.246094 37.023438 37.21875 36.925781 37.1875 36.90625 C 37.199219 36.917969 37.234375 37.050781 37.21875 36.964844 C 37.207031 36.9375 37.199219 36.917969 37.1875 36.890625 C 37.179688 36.851562 37.179688 36.785156 37.160156 36.753906 C 37.207031 36.824219 37.167969 36.890625 37.167969 36.824219 C 37.167969 36.792969 37.167969 36.765625 37.167969 36.726562 C 37.167969 36.707031 37.167969 36.6875 37.167969 36.671875 C 37.160156 36.566406 37.132812 36.804688 37.160156 36.707031 C 37.167969 36.660156 37.179688 36.613281 37.199219 36.566406 C 37.300781 36.269531 37.074219 35.902344 36.78125 35.835938 C 36.449219 35.757812 36.167969 35.9375 36.054688 36.253906 C 35.875 36.746094 36.023438 37.363281 36.328125 37.78125 C 36.707031 38.285156 37.292969 38.589844 37.925781 38.429688 C 38.691406 38.226562 39.183594 37.449219 39.488281 36.765625 C 39.769531 36.121094 39.941406 35.433594 39.960938 34.730469 C 39.96875 34.378906 39.949219 34 39.855469 33.660156 C 39.78125 33.355469 39.429688 33.144531 39.128906 33.242188 C 38.835938 33.34375 38.644531 33.648438 38.730469 33.972656 Z M 38.730469 33.972656 "/>
<path style=" stroke:none;fill-rule:nonzero;fill:rgb(0%,0%,0%);fill-opacity:1;" d="M 41.246094 34.796875 C 41.253906 34.828125 41.265625 34.855469 41.273438 34.882812 C 41.292969 34.980469 41.285156 35.007812 41.273438 34.835938 C 41.273438 34.882812 41.285156 34.933594 41.285156 34.988281 C 41.285156 35.046875 41.285156 35.101562 41.273438 35.167969 C 41.273438 35.1875 41.273438 35.199219 41.273438 35.214844 C 41.265625 35.3125 41.304688 35.074219 41.285156 35.140625 C 41.273438 35.179688 41.273438 35.214844 41.265625 35.253906 C 41.246094 35.339844 41.21875 35.425781 41.1875 35.511719 C 41.171875 35.550781 41.160156 35.597656 41.140625 35.636719 C 41.113281 35.730469 41.152344 35.597656 41.160156 35.597656 C 41.140625 35.625 41.132812 35.664062 41.113281 35.703125 C 41 35.949219 40.847656 36.167969 40.699219 36.386719 C 40.6875 36.40625 40.632812 36.472656 40.699219 36.394531 C 40.679688 36.421875 40.648438 36.453125 40.632812 36.480469 C 40.59375 36.527344 40.546875 36.574219 40.5 36.621094 C 40.480469 36.640625 40.453125 36.660156 40.433594 36.6875 C 40.421875 36.699219 40.320312 36.792969 40.394531 36.726562 C 40.453125 36.671875 40.394531 36.726562 40.375 36.746094 C 40.347656 36.765625 40.308594 36.792969 40.28125 36.8125 C 40.261719 36.824219 40.234375 36.839844 40.214844 36.851562 C 40.140625 36.890625 40.160156 36.839844 40.242188 36.839844 C 40.207031 36.839844 40.148438 36.871094 40.121094 36.878906 C 40.101562 36.890625 40.082031 36.890625 40.054688 36.890625 C 39.960938 36.90625 40.109375 36.878906 40.121094 36.878906 C 40.082031 36.871094 40.015625 36.878906 39.96875 36.878906 C 39.875 36.878906 40.035156 36.890625 40.035156 36.890625 C 40.015625 36.878906 39.988281 36.878906 39.96875 36.878906 C 39.929688 36.871094 39.894531 36.859375 39.867188 36.851562 C 39.742188 36.8125 39.996094 36.917969 39.867188 36.851562 C 39.847656 36.839844 39.769531 36.773438 39.75 36.773438 C 39.761719 36.773438 39.867188 36.878906 39.808594 36.8125 C 39.789062 36.792969 39.769531 36.773438 39.75 36.753906 C 39.722656 36.726562 39.695312 36.679688 39.667969 36.660156 C 39.675781 36.660156 39.75 36.792969 39.714844 36.71875 C 39.703125 36.699219 39.6875 36.671875 39.675781 36.652344 C 39.667969 36.632812 39.65625 36.621094 39.648438 36.605469 C 39.621094 36.546875 39.636719 36.5 39.667969 36.652344 C 39.65625 36.613281 39.636719 36.585938 39.636719 36.546875 C 39.636719 36.539062 39.621094 36.488281 39.628906 36.488281 C 39.636719 36.480469 39.636719 36.671875 39.636719 36.566406 C 39.636719 36.546875 39.636719 36.527344 39.636719 36.507812 C 39.636719 36.421875 39.609375 36.652344 39.628906 36.585938 C 39.648438 36.527344 39.703125 36.394531 39.609375 36.585938 C 39.742188 36.300781 39.695312 35.929688 39.402344 35.769531 C 39.136719 35.625 38.730469 35.683594 38.589844 35.976562 C 38.34375 36.519531 38.476562 37.070312 38.851562 37.507812 C 39.230469 37.941406 39.828125 38.113281 40.375 38.011719 C 41.074219 37.875 41.566406 37.257812 41.925781 36.699219 C 42.21875 36.234375 42.417969 35.71875 42.476562 35.179688 C 42.496094 34.949219 42.496094 34.683594 42.410156 34.464844 C 42.351562 34.3125 42.285156 34.199219 42.136719 34.113281 C 42.011719 34.039062 41.824219 34.011719 41.679688 34.058594 C 41.378906 34.164062 41.113281 34.496094 41.246094 34.796875 Z M 41.246094 34.796875 "/>
<path style=" stroke:none;fill-rule:nonzero;fill:rgb(0%,0%,0%);fill-opacity:1;" d="M 43.230469 35.539062 C 43.117188 35.292969 43.175781 35.398438 43.195312 35.472656 C 43.214844 35.539062 43.203125 35.644531 43.183594 35.40625 C 43.183594 35.445312 43.195312 35.484375 43.195312 35.519531 C 43.195312 35.566406 43.183594 35.617188 43.183594 35.664062 C 43.183594 35.730469 43.214844 35.484375 43.195312 35.578125 C 43.195312 35.585938 43.195312 35.605469 43.183594 35.617188 C 43.175781 35.644531 43.175781 35.683594 43.167969 35.710938 C 43.148438 35.777344 43.128906 35.84375 43.109375 35.902344 C 43.0625 36.023438 43.175781 35.769531 43.117188 35.890625 C 43.101562 35.929688 43.082031 35.976562 43.050781 36.015625 C 43.003906 36.101562 42.957031 36.175781 42.910156 36.253906 C 42.882812 36.300781 42.855469 36.335938 42.824219 36.375 C 42.769531 36.460938 42.835938 36.355469 42.84375 36.355469 C 42.816406 36.375 42.777344 36.433594 42.757812 36.460938 C 42.683594 36.546875 42.609375 36.621094 42.53125 36.699219 C 42.484375 36.746094 42.496094 36.6875 42.570312 36.679688 C 42.5625 36.679688 42.523438 36.71875 42.511719 36.71875 C 42.476562 36.746094 42.429688 36.773438 42.382812 36.792969 C 42.257812 36.859375 42.503906 36.753906 42.382812 36.792969 C 42.34375 36.804688 42.304688 36.8125 42.269531 36.824219 C 42.144531 36.851562 42.410156 36.8125 42.285156 36.824219 C 42.25 36.824219 42.210938 36.824219 42.171875 36.824219 C 42.089844 36.824219 42.25 36.832031 42.257812 36.832031 C 42.257812 36.832031 42.21875 36.824219 42.210938 36.824219 C 42.183594 36.8125 42.144531 36.804688 42.117188 36.792969 C 41.984375 36.746094 42.238281 36.859375 42.136719 36.804688 C 42.105469 36.785156 42.078125 36.765625 42.039062 36.746094 C 41.925781 36.671875 42.144531 36.851562 42.050781 36.753906 C 42.023438 36.738281 42.003906 36.707031 41.984375 36.679688 C 41.917969 36.605469 42.070312 36.8125 42.003906 36.707031 C 41.992188 36.699219 41.945312 36.632812 41.957031 36.613281 C 41.964844 36.605469 42.011719 36.773438 41.992188 36.699219 C 41.992188 36.679688 41.984375 36.671875 41.984375 36.652344 C 41.957031 36.519531 41.984375 36.785156 41.992188 36.707031 C 41.992188 36.699219 41.992188 36.679688 41.992188 36.671875 C 41.984375 36.605469 41.957031 36.824219 41.984375 36.753906 C 42.03125 36.621094 41.925781 36.859375 41.964844 36.792969 C 42.105469 36.519531 42.050781 36.136719 41.757812 35.976562 C 41.492188 35.835938 41.09375 35.890625 40.945312 36.1875 C 40.707031 36.652344 40.839844 37.15625 41.179688 37.523438 C 41.53125 37.90625 42.058594 38.039062 42.550781 37.941406 C 43.148438 37.839844 43.574219 37.355469 43.902344 36.878906 C 44.167969 36.5 44.339844 36.070312 44.386719 35.617188 C 44.40625 35.367188 44.367188 35.132812 44.261719 34.902344 C 44.207031 34.78125 44.035156 34.664062 43.914062 34.628906 C 43.769531 34.589844 43.582031 34.609375 43.460938 34.683594 C 43.335938 34.769531 43.222656 34.882812 43.183594 35.035156 C 43.128906 35.246094 43.15625 35.386719 43.230469 35.539062 Z M 43.230469 35.539062 "/>
<path style=" stroke:none;fill-rule:nonzero;fill:rgb(0%,0%,0%);fill-opacity:1;" d="M 79.542969 31.101562 C 81.71875 30.980469 83.929688 30.230469 85.851562 29.242188 C 87.675781 28.300781 89.351562 27 90.664062 25.402344 C 92.167969 23.597656 92.992188 21.367188 94.742188 19.761719 C 98.894531 15.949219 106.25 15.636719 110.402344 19.378906 C 110.78125 19.722656 112.457031 21.25 112.085938 21.859375 C 111.898438 22.171875 110.78125 21.925781 110.480469 21.871094 C 109.023438 21.613281 107.566406 20.863281 106.316406 20.113281 C 105.664062 19.722656 105.070312 20.75 105.722656 21.136719 C 106.941406 21.871094 111.753906 24.566406 113.097656 22.496094 C 114.082031 20.976562 111.613281 18.800781 110.621094 18.03125 C 109.109375 16.863281 107.273438 16.113281 105.390625 15.78125 C 105.257812 15.761719 105.136719 15.742188 105.003906 15.722656 C 105.371094 15.78125 104.898438 15.703125 104.878906 15.703125 C 104.464844 15.65625 104.046875 15.617188 103.632812 15.609375 C 102.015625 15.5625 100.378906 15.742188 98.816406 16.199219 C 96.859375 16.769531 95.035156 17.773438 93.578125 19.21875 C 91.636719 21.148438 90.730469 23.789062 88.753906 25.707031 C 86.371094 28.015625 82.878906 29.726562 79.523438 29.90625 C 78.785156 29.964844 78.777344 31.152344 79.542969 31.101562 Z M 79.542969 31.101562 "/>
<path style=" stroke:none;fill-rule:nonzero;fill:rgb(0%,0%,0%);fill-opacity:1;" d="M 101.890625 22.238281 C 103.320312 24.082031 105.324219 25.667969 107.460938 26.570312 C 108.453125 26.988281 110.082031 27.570312 110.867188 26.46875 C 111.386719 25.746094 111.1875 24.710938 110.960938 23.910156 C 110.773438 23.257812 110.515625 22.609375 110.203125 22.003906 C 109.855469 21.316406 108.832031 21.925781 109.183594 22.601562 C 109.25 22.734375 109.304688 22.867188 109.371094 23 C 109.402344 23.058594 109.429688 23.125 109.449219 23.179688 C 109.503906 23.3125 109.410156 23.09375 109.449219 23.179688 C 109.46875 23.21875 109.476562 23.257812 109.496094 23.285156 C 109.5625 23.457031 109.628906 23.636719 109.695312 23.808594 C 109.828125 24.175781 109.929688 24.566406 109.996094 24.957031 C 110.015625 25.0625 109.988281 24.8125 109.996094 24.984375 C 110.007812 25.03125 110.007812 25.089844 110.007812 25.136719 C 110.015625 25.222656 110.007812 25.296875 110.007812 25.382812 C 110.007812 25.414062 110.007812 25.449219 109.996094 25.480469 C 109.988281 25.632812 110.023438 25.355469 109.996094 25.507812 C 109.976562 25.59375 109.957031 25.679688 109.929688 25.753906 C 109.988281 25.601562 109.902344 25.792969 109.875 25.832031 C 109.996094 25.648438 109.722656 25.953125 109.882812 25.8125 C 109.855469 25.832031 109.808594 25.867188 109.769531 25.878906 C 109.890625 25.839844 109.816406 25.859375 109.789062 25.867188 C 109.742188 25.886719 109.695312 25.898438 109.648438 25.90625 C 109.777344 25.878906 109.617188 25.90625 109.589844 25.90625 C 109.011719 25.90625 108.386719 25.6875 107.832031 25.441406 C 106.542969 24.890625 105.382812 24.054688 104.351562 23.113281 C 103.773438 22.589844 103.214844 22.019531 102.742188 21.402344 C 102.542969 21.148438 102.109375 21.195312 101.910156 21.402344 C 101.636719 21.652344 101.691406 21.984375 101.890625 22.238281 Z M 101.890625 22.238281 "/>
<path style=" stroke:none;fill-rule:nonzero;fill:rgb(0%,0%,0%);fill-opacity:1;" d="M 98.988281 24.460938 C 99.859375 25.839844 100.878906 27.238281 102.109375 28.308594 C 103.027344 29.117188 104.199219 29.6875 105.417969 29.839844 C 106.28125 29.945312 107.359375 29.78125 107.773438 28.917969 C 108.285156 27.84375 108.125 26.316406 107.386719 25.394531 C 107.1875 25.148438 106.761719 25.183594 106.554688 25.394531 C 106.308594 25.640625 106.355469 25.984375 106.554688 26.230469 C 106.949219 26.734375 106.96875 27.769531 106.753906 28.320312 C 106.742188 28.347656 106.640625 28.527344 106.675781 28.472656 C 106.621094 28.558594 106.707031 28.460938 106.628906 28.519531 C 106.527344 28.585938 106.574219 28.558594 106.496094 28.585938 C 106.410156 28.613281 106.328125 28.644531 106.242188 28.660156 C 105.910156 28.726562 105.484375 28.679688 105.125 28.59375 C 103.253906 28.140625 102.003906 26.667969 100.898438 25.164062 C 100.585938 24.746094 100.28125 24.3125 100 23.875 C 99.601562 23.21875 98.582031 23.816406 98.988281 24.460938 Z M 98.988281 24.460938 "/>
<path style=" stroke:none;fill-rule:nonzero;fill:rgb(0%,0%,0%);fill-opacity:1;" d="M 95.886719 26.152344 C 96.261719 27.988281 97.285156 29.859375 98.664062 31.113281 C 99.6875 32.042969 101.210938 32.925781 102.636719 32.707031 C 103.601562 32.558594 104.199219 31.738281 104.378906 30.816406 C 104.511719 30.152344 104.511719 29.449219 104.398438 28.777344 C 104.339844 28.460938 103.953125 28.28125 103.667969 28.359375 C 103.339844 28.453125 103.207031 28.765625 103.253906 29.089844 C 103.273438 29.222656 103.253906 29.050781 103.253906 29.0625 C 103.261719 29.164062 103.273438 29.269531 103.28125 29.375 C 103.300781 29.679688 103.289062 29.972656 103.273438 30.277344 C 103.273438 30.304688 103.242188 30.464844 103.273438 30.316406 C 103.273438 30.34375 103.261719 30.382812 103.253906 30.410156 C 103.234375 30.496094 103.214844 30.589844 103.195312 30.675781 C 103.175781 30.75 103.148438 30.835938 103.121094 30.914062 C 103.109375 30.941406 103.0625 31.046875 103.121094 30.933594 C 103.101562 30.980469 103.074219 31.035156 103.042969 31.085938 C 102.894531 31.351562 102.75 31.464844 102.476562 31.539062 C 102.363281 31.570312 102.164062 31.578125 101.949219 31.550781 C 101.703125 31.519531 101.378906 31.417969 101.117188 31.3125 C 100.519531 31.074219 99.960938 30.714844 99.488281 30.285156 C 98.65625 29.527344 98.042969 28.566406 97.578125 27.539062 C 97.371094 27.066406 97.132812 26.429688 97.011719 25.851562 C 96.867188 25.089844 95.722656 25.402344 95.886719 26.152344 Z M 95.886719 26.152344 "/>
<path style=" stroke:none;fill-rule:nonzero;fill:rgb(0%,0%,0%);fill-opacity:1;" d="M 92.699219 27.96875 C 92.746094 29.621094 93.371094 31.351562 94.398438 32.632812 C 95.183594 33.601562 96.433594 34.484375 97.710938 34.550781 C 98.695312 34.597656 99.414062 33.960938 99.773438 33.097656 C 99.980469 32.585938 100.085938 32.003906 100.085938 31.453125 C 100.085938 30.695312 98.902344 30.683594 98.902344 31.453125 C 98.902344 31.570312 98.894531 31.683594 98.882812 31.804688 C 98.875 31.855469 98.84375 32.054688 98.882812 31.84375 C 98.875 31.902344 98.863281 31.957031 98.855469 32.015625 C 98.828125 32.15625 98.796875 32.308594 98.75 32.453125 C 98.730469 32.527344 98.703125 32.59375 98.675781 32.671875 C 98.617188 32.832031 98.714844 32.613281 98.636719 32.757812 C 98.597656 32.824219 98.570312 32.890625 98.523438 32.957031 C 98.503906 32.984375 98.484375 33.011719 98.46875 33.042969 C 98.410156 33.117188 98.542969 32.964844 98.429688 33.089844 C 98.382812 33.136719 98.335938 33.183594 98.277344 33.230469 C 98.402344 33.125 98.230469 33.261719 98.191406 33.277344 C 98.164062 33.296875 98.03125 33.34375 98.175781 33.289062 C 98.136719 33.296875 98.109375 33.316406 98.070312 33.328125 C 98.03125 33.335938 97.996094 33.34375 97.957031 33.355469 C 97.890625 33.363281 97.890625 33.363281 97.964844 33.355469 C 97.929688 33.355469 97.898438 33.363281 97.863281 33.363281 C 97.625 33.363281 97.605469 33.363281 97.378906 33.308594 C 97.097656 33.230469 96.839844 33.109375 96.585938 32.964844 C 96.101562 32.691406 95.675781 32.328125 95.316406 31.910156 C 94.703125 31.1875 94.34375 30.332031 94.105469 29.441406 C 94.050781 29.242188 94.011719 29.03125 93.976562 28.832031 C 93.957031 28.726562 93.9375 28.632812 93.925781 28.527344 C 93.925781 28.5 93.917969 28.472656 93.917969 28.453125 C 93.945312 28.644531 93.917969 28.472656 93.917969 28.433594 C 93.898438 28.28125 93.890625 28.140625 93.878906 27.988281 C 93.859375 27.199219 92.679688 27.199219 92.699219 27.96875 Z M 92.699219 27.96875 "/>
<path style=" stroke:none;fill-rule:nonzero;fill:rgb(0%,0%,0%);fill-opacity:1;" d="M 93.878906 28.214844 C 93.910156 27.722656 93.710938 27.171875 93.265625 26.921875 C 92.128906 26.285156 90.710938 27.777344 89.992188 28.441406 C 87.910156 30.363281 84.734375 31.007812 82.039062 31.445312 C 81.292969 31.570312 80.535156 31.671875 79.777344 31.722656 C 79.023438 31.777344 79.023438 32.964844 79.777344 32.910156 C 81.488281 32.785156 83.210938 32.492188 84.886719 32.070312 C 86.21875 31.738281 87.535156 31.3125 88.761719 30.695312 C 89.351562 30.398438 89.90625 30.058594 90.417969 29.648438 C 91.023438 29.164062 91.523438 28.578125 92.195312 28.175781 C 92.375 28.074219 92.613281 28.035156 92.753906 27.96875 C 92.632812 28.023438 92.699219 27.816406 92.6875 27.976562 C 92.6875 27.902344 92.714844 28.148438 92.707031 28.074219 C 92.714844 28.121094 92.707031 28.167969 92.707031 28.214844 C 92.652344 28.984375 93.832031 28.976562 93.878906 28.214844 Z M 93.878906 28.214844 "/>
<path style=" stroke:none;fill-rule:nonzero;fill:rgb(0%,0%,0%);fill-opacity:1;" d="M 79.351562 32.355469 C 79.210938 33.003906 79.238281 33.746094 79.464844 34.363281 C 79.675781 34.941406 80.042969 35.484375 80.582031 35.796875 C 81.054688 36.070312 81.652344 36.089844 82.113281 35.777344 C 82.371094 35.605469 82.617188 35.367188 82.765625 35.09375 C 82.917969 34.828125 82.84375 34.429688 82.558594 34.277344 C 82.273438 34.125 81.914062 34.199219 81.746094 34.484375 C 81.71875 34.523438 81.6875 34.5625 81.660156 34.609375 C 81.800781 34.410156 81.699219 34.5625 81.652344 34.617188 C 81.605469 34.664062 81.554688 34.714844 81.507812 34.75 C 81.453125 34.796875 81.574219 34.695312 81.574219 34.695312 C 81.574219 34.695312 81.539062 34.722656 81.527344 34.722656 C 81.5 34.742188 81.472656 34.761719 81.441406 34.78125 C 81.433594 34.789062 81.414062 34.789062 81.40625 34.796875 C 81.328125 34.847656 81.539062 34.75 81.472656 34.769531 C 81.433594 34.78125 81.386719 34.796875 81.347656 34.808594 C 81.214844 34.847656 81.488281 34.808594 81.375 34.808594 C 81.339844 34.808594 81.300781 34.808594 81.261719 34.808594 C 81.414062 34.796875 81.394531 34.828125 81.339844 34.816406 C 81.320312 34.808594 81.292969 34.808594 81.273438 34.796875 C 81.253906 34.789062 81.226562 34.78125 81.207031 34.78125 C 81.113281 34.75 81.328125 34.847656 81.234375 34.789062 C 81.195312 34.769531 81.160156 34.742188 81.113281 34.722656 C 81.101562 34.714844 81 34.648438 81.082031 34.703125 C 81.167969 34.761719 81.0625 34.683594 81.046875 34.675781 C 81.007812 34.636719 80.96875 34.597656 80.933594 34.5625 C 80.914062 34.542969 80.894531 34.515625 80.867188 34.496094 C 80.847656 34.476562 80.78125 34.371094 80.828125 34.457031 C 80.875 34.542969 80.820312 34.449219 80.808594 34.429688 C 80.800781 34.410156 80.78125 34.390625 80.769531 34.371094 C 80.742188 34.324219 80.714844 34.277344 80.6875 34.21875 C 80.667969 34.179688 80.648438 34.144531 80.621094 34.097656 C 80.609375 34.078125 80.574219 33.972656 80.609375 34.078125 C 80.648438 34.179688 80.601562 34.058594 80.601562 34.039062 C 80.535156 33.859375 80.488281 33.667969 80.460938 33.476562 C 80.441406 33.363281 80.46875 33.609375 80.46875 33.535156 C 80.46875 33.515625 80.460938 33.488281 80.460938 33.46875 C 80.460938 33.429688 80.449219 33.382812 80.449219 33.34375 C 80.441406 33.261719 80.441406 33.183594 80.441406 33.097656 C 80.441406 32.957031 80.449219 32.824219 80.46875 32.679688 C 80.441406 32.945312 80.460938 32.726562 80.476562 32.660156 C 80.542969 32.355469 80.382812 32.003906 80.0625 31.929688 C 79.777344 31.871094 79.417969 32.023438 79.351562 32.355469 Z M 79.351562 32.355469 "/>
<path style=" stroke:none;fill-rule:nonzero;fill:rgb(0%,0%,0%);fill-opacity:1;" d="M 81.320312 32.507812 C 81.300781 32.746094 81.339844 32.992188 81.367188 33.230469 C 81.433594 33.679688 81.574219 34.125 81.800781 34.523438 C 82.113281 35.046875 82.605469 35.511719 83.203125 35.703125 C 83.722656 35.863281 84.261719 35.710938 84.648438 35.339844 C 84.875 35.132812 85.035156 34.855469 85.140625 34.570312 C 85.253906 34.277344 85.019531 33.90625 84.726562 33.839844 C 84.382812 33.761719 84.121094 33.945312 83.996094 34.257812 C 84.082031 34.027344 84.035156 34.164062 83.988281 34.257812 C 83.957031 34.304688 83.941406 34.34375 83.910156 34.390625 C 83.902344 34.410156 83.882812 34.429688 83.875 34.449219 C 83.828125 34.523438 83.96875 34.332031 83.921875 34.378906 C 83.910156 34.398438 83.890625 34.410156 83.882812 34.429688 C 83.855469 34.457031 83.789062 34.5625 83.742188 34.570312 C 83.730469 34.570312 83.882812 34.476562 83.808594 34.515625 C 83.789062 34.523438 83.777344 34.53125 83.761719 34.542969 C 83.75 34.550781 83.664062 34.609375 83.65625 34.597656 C 83.644531 34.589844 83.816406 34.550781 83.730469 34.5625 C 83.710938 34.5625 83.703125 34.570312 83.683594 34.570312 C 83.664062 34.582031 83.636719 34.582031 83.617188 34.589844 C 83.5625 34.609375 83.589844 34.550781 83.703125 34.582031 C 83.675781 34.570312 83.617188 34.582031 83.589844 34.582031 C 83.53125 34.582031 83.496094 34.542969 83.65625 34.589844 C 83.628906 34.582031 83.597656 34.582031 83.570312 34.570312 C 83.523438 34.5625 83.484375 34.542969 83.4375 34.523438 C 83.363281 34.503906 83.570312 34.597656 83.464844 34.53125 C 83.449219 34.523438 83.417969 34.515625 83.402344 34.496094 C 83.34375 34.464844 83.285156 34.429688 83.230469 34.390625 C 83.210938 34.371094 83.191406 34.363281 83.171875 34.34375 C 83.304688 34.429688 83.210938 34.371094 83.183594 34.34375 C 83.105469 34.277344 83.03125 34.199219 82.957031 34.113281 C 82.945312 34.105469 82.871094 34.011719 82.9375 34.097656 C 83.003906 34.179688 82.925781 34.085938 82.917969 34.078125 C 82.890625 34.027344 82.851562 33.980469 82.824219 33.933594 C 82.765625 33.847656 82.730469 33.753906 82.683594 33.660156 C 82.625 33.535156 82.730469 33.78125 82.671875 33.640625 C 82.652344 33.59375 82.632812 33.535156 82.617188 33.476562 C 82.558594 33.308594 82.53125 33.144531 82.503906 32.964844 C 82.492188 32.917969 82.492188 32.839844 82.511719 33.042969 C 82.511719 33.023438 82.503906 32.992188 82.503906 32.976562 C 82.503906 32.9375 82.492188 32.910156 82.492188 32.871094 C 82.484375 32.804688 82.484375 32.738281 82.484375 32.679688 C 82.484375 32.625 82.484375 32.566406 82.484375 32.507812 C 82.503906 32.195312 82.199219 31.902344 81.898438 31.921875 C 81.574219 31.929688 81.339844 32.175781 81.320312 32.507812 Z M 81.320312 32.507812 "/>
<path style=" stroke:none;fill-rule:nonzero;fill:rgb(0%,0%,0%);fill-opacity:1;" d="M 83.542969 31.957031 C 83.523438 32.148438 83.542969 32.347656 83.5625 32.539062 C 83.617188 33.042969 83.75 33.527344 83.996094 33.972656 C 84.300781 34.503906 84.789062 34.96875 85.386719 35.167969 C 85.898438 35.339844 86.4375 35.1875 86.824219 34.828125 C 87.0625 34.617188 87.222656 34.34375 87.335938 34.058594 C 87.449219 33.773438 87.210938 33.394531 86.917969 33.328125 C 86.578125 33.25 86.3125 33.429688 86.191406 33.746094 C 86.292969 33.476562 86.21875 33.667969 86.179688 33.746094 C 86.152344 33.792969 86.132812 33.828125 86.105469 33.867188 C 86.085938 33.894531 86.019531 33.980469 86.097656 33.878906 C 86.171875 33.773438 86.085938 33.886719 86.066406 33.90625 C 86.046875 33.925781 86.019531 33.953125 86 33.972656 C 85.945312 34.019531 85.878906 34.039062 86.03125 33.953125 C 86 33.972656 85.972656 33.992188 85.933594 34.011719 C 85.925781 34.019531 85.90625 34.019531 85.898438 34.027344 C 85.839844 34.066406 85.820312 34.027344 85.953125 34.011719 C 85.917969 34.019531 85.878906 34.039062 85.839844 34.046875 C 85.71875 34.085938 85.964844 34.046875 85.878906 34.046875 C 85.832031 34.046875 85.792969 34.046875 85.746094 34.046875 C 85.660156 34.046875 85.820312 34.058594 85.820312 34.058594 C 85.792969 34.046875 85.765625 34.046875 85.738281 34.039062 C 85.707031 34.027344 85.679688 34.019531 85.652344 34.011719 C 85.59375 33.992188 85.632812 33.972656 85.699219 34.027344 C 85.660156 34 85.59375 33.980469 85.558594 33.953125 C 85.5 33.925781 85.453125 33.886719 85.40625 33.859375 C 85.300781 33.792969 85.480469 33.925781 85.425781 33.867188 C 85.394531 33.839844 85.367188 33.820312 85.339844 33.792969 C 85.300781 33.753906 85.265625 33.714844 85.226562 33.679688 C 85.1875 33.640625 85.148438 33.574219 85.113281 33.542969 C 85.121094 33.554688 85.199219 33.660156 85.140625 33.582031 C 85.121094 33.5625 85.113281 33.535156 85.09375 33.515625 C 85.054688 33.46875 85.027344 33.410156 85 33.363281 C 84.953125 33.277344 84.914062 33.191406 84.867188 33.109375 C 84.953125 33.289062 84.875 33.117188 84.855469 33.078125 C 84.839844 33.03125 84.828125 32.984375 84.808594 32.9375 C 84.761719 32.765625 84.734375 32.605469 84.707031 32.433594 C 84.753906 32.660156 84.714844 32.492188 84.707031 32.433594 C 84.707031 32.394531 84.695312 32.367188 84.695312 32.328125 C 84.695312 32.261719 84.6875 32.207031 84.6875 32.140625 C 84.6875 32.082031 84.6875 32.023438 84.6875 31.96875 C 84.714844 31.652344 84.394531 31.359375 84.101562 31.378906 C 83.796875 31.386719 83.570312 31.625 83.542969 31.957031 Z M 83.542969 31.957031 "/>
<path style=" stroke:none;fill-rule:nonzero;fill:rgb(0%,0%,0%);fill-opacity:1;" d="M 85.632812 31.4375 C 85.640625 32.121094 85.859375 32.878906 86.257812 33.429688 C 86.605469 33.925781 87.109375 34.371094 87.703125 34.503906 C 88.222656 34.628906 88.761719 34.476562 89.121094 34.078125 C 89.332031 33.847656 89.492188 33.574219 89.578125 33.289062 C 89.671875 32.992188 89.472656 32.625 89.160156 32.558594 C 88.839844 32.480469 88.527344 32.652344 88.433594 32.976562 C 88.433594 32.984375 88.421875 32.992188 88.421875 33.003906 C 88.414062 33.011719 88.414062 33.03125 88.402344 33.042969 C 88.375 33.136719 88.480469 32.871094 88.433594 32.964844 C 88.386719 33.058594 88.328125 33.15625 88.269531 33.25 C 88.234375 33.308594 88.386719 33.117188 88.320312 33.183594 C 88.308594 33.191406 88.300781 33.203125 88.289062 33.210938 C 88.269531 33.242188 88.242188 33.261719 88.222656 33.277344 C 88.167969 33.335938 88.109375 33.335938 88.253906 33.269531 C 88.222656 33.289062 88.1875 33.316406 88.15625 33.335938 C 88.140625 33.34375 88.121094 33.355469 88.109375 33.363281 C 88.054688 33.402344 88.269531 33.316406 88.175781 33.335938 C 88.148438 33.34375 88.109375 33.355469 88.082031 33.363281 C 87.988281 33.394531 88.222656 33.355469 88.148438 33.355469 C 88.128906 33.355469 88.101562 33.355469 88.082031 33.355469 C 88.0625 33.355469 88.042969 33.355469 88.027344 33.355469 C 87.949219 33.355469 87.941406 33.316406 88.0625 33.363281 C 88.015625 33.34375 87.96875 33.34375 87.921875 33.335938 C 87.894531 33.328125 87.863281 33.316406 87.835938 33.308594 C 87.78125 33.289062 87.796875 33.261719 87.875 33.328125 C 87.855469 33.308594 87.523438 33.125 87.535156 33.125 C 87.535156 33.125 87.648438 33.222656 87.5625 33.15625 C 87.542969 33.136719 87.523438 33.125 87.503906 33.109375 C 87.46875 33.070312 87.429688 33.03125 87.390625 32.992188 C 87.355469 32.957031 87.316406 32.917969 87.289062 32.878906 C 87.277344 32.871094 87.257812 32.832031 87.242188 32.824219 C 87.296875 32.898438 87.308594 32.910156 87.269531 32.859375 C 87.257812 32.851562 87.257812 32.839844 87.25 32.832031 C 87.191406 32.746094 87.136719 32.660156 87.089844 32.574219 C 87.0625 32.527344 87.042969 32.480469 87.011719 32.433594 C 87.003906 32.414062 86.996094 32.394531 86.984375 32.375 C 86.9375 32.273438 87.042969 32.507812 86.996094 32.40625 C 86.929688 32.234375 86.882812 32.0625 86.832031 31.890625 C 86.816406 31.816406 86.804688 31.738281 86.785156 31.664062 C 86.785156 31.652344 86.785156 31.636719 86.777344 31.625 C 86.757812 31.53125 86.796875 31.796875 86.785156 31.710938 C 86.785156 31.683594 86.777344 31.652344 86.777344 31.617188 C 86.769531 31.558594 86.769531 31.503906 86.769531 31.445312 C 86.769531 31.132812 86.492188 30.835938 86.179688 30.855469 C 85.898438 30.855469 85.625 31.101562 85.632812 31.4375 Z M 85.632812 31.4375 "/>
<path style=" stroke:none;fill-rule:nonzero;fill:rgb(0%,0%,0%);fill-opacity:1;" d="M 87.570312 30.65625 C 87.601562 31.339844 87.847656 32.070312 88.253906 32.625 C 88.621094 33.117188 89.152344 33.5625 89.765625 33.667969 C 90.277344 33.753906 90.796875 33.609375 91.148438 33.203125 C 91.34375 32.976562 91.507812 32.699219 91.582031 32.394531 C 91.65625 32.089844 91.476562 31.738281 91.164062 31.664062 C 90.851562 31.597656 90.523438 31.757812 90.4375 32.082031 C 90.429688 32.128906 90.410156 32.167969 90.390625 32.214844 C 90.363281 32.28125 90.464844 32.042969 90.417969 32.140625 C 90.410156 32.167969 90.398438 32.1875 90.378906 32.214844 C 90.351562 32.273438 90.324219 32.320312 90.285156 32.375 C 90.277344 32.386719 90.265625 32.40625 90.257812 32.414062 C 90.257812 32.414062 90.363281 32.289062 90.3125 32.347656 C 90.296875 32.367188 90.277344 32.394531 90.257812 32.414062 C 90.230469 32.441406 90.199219 32.460938 90.183594 32.492188 C 90.144531 32.527344 90.125 32.492188 90.25 32.441406 C 90.230469 32.453125 90.210938 32.472656 90.191406 32.480469 C 90.164062 32.5 90.050781 32.546875 90.164062 32.5 C 90.277344 32.453125 90.144531 32.5 90.117188 32.507812 C 90.097656 32.507812 90.078125 32.519531 90.070312 32.519531 C 89.992188 32.546875 90.144531 32.507812 90.144531 32.507812 C 90.105469 32.5 90.03125 32.507812 89.992188 32.507812 C 89.917969 32.507812 90.152344 32.546875 90.039062 32.519531 C 90.019531 32.507812 90.003906 32.507812 89.972656 32.507812 C 89.925781 32.5 89.878906 32.472656 89.824219 32.460938 C 89.746094 32.441406 89.953125 32.527344 89.839844 32.472656 C 89.8125 32.460938 89.792969 32.441406 89.765625 32.433594 C 89.710938 32.40625 89.652344 32.367188 89.59375 32.328125 C 89.566406 32.308594 89.539062 32.289062 89.519531 32.273438 C 89.492188 32.253906 89.433594 32.242188 89.5 32.261719 C 89.511719 32.273438 89.519531 32.28125 89.53125 32.28125 C 89.511719 32.261719 89.492188 32.253906 89.472656 32.234375 C 89.453125 32.214844 89.433594 32.207031 89.414062 32.1875 C 89.332031 32.109375 89.265625 32.003906 89.179688 31.929688 C 89.1875 31.9375 89.265625 32.042969 89.207031 31.96875 C 89.199219 31.949219 89.179688 31.929688 89.171875 31.910156 C 89.140625 31.863281 89.113281 31.816406 89.085938 31.769531 C 89.039062 31.683594 88.992188 31.597656 88.953125 31.511719 C 88.886719 31.359375 89 31.636719 88.941406 31.484375 C 88.925781 31.445312 88.914062 31.40625 88.90625 31.371094 C 88.875 31.285156 88.847656 31.199219 88.820312 31.101562 C 88.800781 31.027344 88.78125 30.953125 88.761719 30.875 C 88.753906 30.828125 88.714844 30.722656 88.726562 30.675781 C 88.726562 30.65625 88.746094 30.855469 88.746094 30.789062 C 88.746094 30.78125 88.746094 30.761719 88.746094 30.75 C 88.746094 30.734375 88.746094 30.714844 88.734375 30.703125 C 88.734375 30.683594 88.734375 30.675781 88.734375 30.65625 C 88.714844 30.34375 88.46875 30.046875 88.148438 30.058594 C 87.855469 30.078125 87.550781 30.324219 87.570312 30.65625 Z M 87.570312 30.65625 "/>
<path style=" stroke:none;fill-rule:nonzero;fill:rgb(0%,0%,0%);fill-opacity:1;" d="M 90.265625 28.308594 C 89.964844 29.460938 90.152344 30.816406 90.570312 31.910156 C 90.917969 32.824219 91.46875 33.925781 92.40625 34.351562 C 93.113281 34.675781 93.898438 34.515625 94.4375 33.953125 C 94.957031 33.410156 95.261719 32.539062 94.996094 31.804688 C 94.882812 31.503906 94.597656 31.304688 94.269531 31.386719 C 93.984375 31.464844 93.746094 31.816406 93.851562 32.121094 C 93.871094 32.167969 93.878906 32.214844 93.898438 32.273438 C 93.910156 32.300781 93.910156 32.320312 93.917969 32.347656 C 93.890625 32.195312 93.910156 32.28125 93.910156 32.328125 C 93.910156 32.386719 93.910156 32.433594 93.910156 32.492188 C 93.910156 32.519531 93.890625 32.605469 93.910156 32.507812 C 93.925781 32.414062 93.898438 32.539062 93.898438 32.558594 C 93.878906 32.613281 93.871094 32.660156 93.851562 32.71875 C 93.84375 32.746094 93.832031 32.773438 93.824219 32.792969 C 93.871094 32.660156 93.84375 32.757812 93.824219 32.792969 C 93.796875 32.839844 93.765625 32.898438 93.738281 32.945312 C 93.710938 32.984375 93.605469 33.117188 93.691406 33.023438 C 93.652344 33.058594 93.613281 33.109375 93.578125 33.144531 C 93.558594 33.164062 93.519531 33.191406 93.5 33.222656 C 93.453125 33.277344 93.585938 33.175781 93.519531 33.203125 C 93.472656 33.230469 93.425781 33.261719 93.378906 33.289062 C 93.359375 33.296875 93.273438 33.335938 93.359375 33.308594 C 93.445312 33.269531 93.332031 33.316406 93.3125 33.316406 C 93.246094 33.335938 93.132812 33.34375 93.265625 33.335938 C 93.207031 33.335938 93.132812 33.328125 93.074219 33.335938 C 93 33.34375 93.171875 33.363281 93.105469 33.335938 C 93.074219 33.328125 93.046875 33.328125 93.019531 33.316406 C 92.992188 33.308594 92.960938 33.296875 92.933594 33.289062 C 92.878906 33.269531 93.011719 33.335938 92.914062 33.277344 C 92.746094 33.175781 92.746094 33.183594 92.59375 33.042969 C 92.460938 32.910156 92.347656 32.765625 92.242188 32.605469 C 92.007812 32.242188 91.808594 31.855469 91.65625 31.445312 C 91.523438 31.074219 91.421875 30.683594 91.363281 30.296875 C 91.363281 30.285156 91.34375 30.152344 91.355469 30.21875 C 91.363281 30.285156 91.34375 30.164062 91.34375 30.152344 C 91.335938 30.078125 91.328125 30 91.328125 29.925781 C 91.316406 29.773438 91.308594 29.621094 91.316406 29.46875 C 91.316406 29.335938 91.328125 29.195312 91.335938 29.0625 C 91.34375 29.003906 91.34375 28.945312 91.355469 28.878906 C 91.363281 28.785156 91.328125 29.042969 91.355469 28.878906 C 91.375 28.792969 91.382812 28.699219 91.402344 28.613281 C 91.488281 28.300781 91.296875 27.96875 90.984375 27.882812 C 90.683594 27.816406 90.351562 28.007812 90.265625 28.308594 Z M 90.265625 28.308594 "/>
<path style=" stroke:none;fill-rule:nonzero;fill:rgb(0%,0%,0%);fill-opacity:1;" d="M 111.460938 22.953125 C 113.382812 24.472656 115.160156 26.609375 115.984375 28.9375 C 116.324219 29.90625 116.476562 30.921875 116.804688 31.890625 C 117.0625 32.660156 117.375 33.421875 117.769531 34.132812 C 118.09375 34.722656 118.480469 35.367188 118.992188 35.824219 C 119.226562 35.511719 119.464844 35.207031 119.710938 34.894531 C 116.039062 32.851562 112.882812 29.414062 110.980469 25.6875 C 110.628906 25.003906 109.609375 25.613281 109.957031 26.285156 C 111.359375 29.03125 113.363281 31.4375 115.699219 33.429688 C 116.757812 34.34375 117.894531 35.226562 119.125 35.910156 C 119.691406 36.222656 120.351562 35.445312 119.84375 34.980469 C 119.339844 34.523438 118.980469 33.878906 118.679688 33.289062 C 117.808594 31.597656 117.628906 29.695312 116.882812 27.957031 C 115.925781 25.714844 114.234375 23.617188 112.3125 22.105469 C 111.707031 21.652344 110.867188 22.488281 111.460938 22.953125 Z M 111.460938 22.953125 "/>
<path style=" stroke:none;fill-rule:nonzero;fill:rgb(0%,0%,0%);fill-opacity:1;" d="M 109.769531 26.972656 C 111.605469 28.710938 113.183594 31.085938 113.75 33.5625 C 114.289062 35.871094 114.386719 38.636719 116.097656 40.480469 C 116.332031 40.167969 116.570312 39.863281 116.816406 39.546875 C 115.773438 38.835938 114.8125 37.933594 113.921875 37.011719 C 111.859375 34.914062 110.136719 32.453125 109.03125 29.707031 C 108.75 29.003906 107.605469 29.316406 107.886719 30.019531 C 109.542969 34.132812 112.53125 38.046875 116.21875 40.566406 C 116.796875 40.953125 117.375 40.109375 116.9375 39.632812 C 116.796875 39.480469 116.84375 39.519531 116.691406 39.292969 C 116.417969 38.875 116.191406 38.417969 116.003906 37.953125 C 115.273438 36.1875 115.273438 34.277344 114.695312 32.480469 C 113.941406 30.117188 112.417969 27.84375 110.621094 26.132812 C 110.054688 25.601562 109.210938 26.4375 109.769531 26.972656 Z M 109.769531 26.972656 "/>
<path style=" stroke:none;fill-rule:nonzero;fill:rgb(0%,0%,0%);fill-opacity:1;" d="M 107.074219 28.726562 C 108.332031 30.5625 109.269531 32.925781 109.230469 35.167969 C 109.191406 37.097656 108.910156 39.398438 109.949219 41.15625 C 110.261719 40.917969 110.5625 40.679688 110.875 40.433594 C 108.417969 37.839844 106.722656 34.230469 106.117188 30.734375 C 105.984375 29.980469 104.851562 30.296875 104.972656 31.046875 C 105.617188 34.742188 107.441406 38.53125 110.035156 41.269531 C 110.496094 41.753906 111.300781 41.125 110.960938 40.546875 C 109.941406 38.816406 110.535156 36.347656 110.375 34.371094 C 110.195312 32.1875 109.324219 29.933594 108.085938 28.121094 C 107.660156 27.503906 106.640625 28.101562 107.074219 28.726562 Z M 107.074219 28.726562 "/>
<path style=" stroke:none;fill-rule:nonzero;fill:rgb(0%,0%,0%);fill-opacity:1;" d="M 104.433594 29.429688 C 105.257812 31.453125 105.691406 33.914062 105.21875 36.0625 C 104.804688 37.992188 103.960938 40.195312 104.625 42.179688 C 104.984375 42.027344 105.34375 41.875 105.703125 41.722656 C 103.714844 39.0625 102.941406 35.386719 103.0625 32.128906 C 103.09375 31.371094 101.910156 31.371094 101.882812 32.128906 C 101.785156 34.628906 102.210938 37.136719 103.160156 39.453125 C 103.566406 40.441406 104.039062 41.457031 104.679688 42.324219 C 105.050781 42.816406 105.996094 42.558594 105.757812 41.867188 C 105.078125 39.824219 106.214844 37.621094 106.476562 35.625 C 106.761719 33.476562 106.375 31.113281 105.5625 29.109375 C 105.285156 28.414062 104.140625 28.726562 104.433594 29.429688 Z M 104.433594 29.429688 "/>
<path style=" stroke:none;fill-rule:nonzero;fill:rgb(0%,0%,0%);fill-opacity:1;" d="M 101.371094 32.355469 C 101.664062 33.847656 101.625 35.730469 101.050781 37.222656 C 100.472656 38.710938 99.394531 40.28125 99.613281 41.980469 C 99.980469 41.875 100.347656 41.78125 100.707031 41.675781 C 99.5 39.246094 99.035156 36.015625 99.660156 33.296875 C 99.828125 32.558594 98.695312 32.234375 98.515625 32.984375 C 97.816406 36.023438 98.289062 39.492188 99.679688 42.285156 C 99.921875 42.789062 100.859375 42.570312 100.773438 41.980469 C 100.546875 40.234375 101.835938 38.695312 102.308594 37.117188 C 102.789062 35.511719 102.808594 33.679688 102.488281 32.035156 C 102.363281 31.292969 101.21875 31.605469 101.371094 32.355469 Z M 101.371094 32.355469 "/>
<path style=" stroke:none;fill-rule:nonzero;fill:rgb(0%,0%,0%);fill-opacity:1;" d="M 98.011719 33.78125 C 97.996094 34.914062 97.710938 36.175781 97.097656 37.191406 C 96.832031 37.628906 96.480469 37.992188 96.1875 38.398438 C 95.921875 38.769531 95.6875 39.160156 95.496094 39.578125 C 95.316406 39.984375 95.15625 40.402344 95.117188 40.851562 C 95.507812 40.792969 95.894531 40.746094 96.28125 40.6875 C 96.320312 40.972656 96.292969 40.738281 96.28125 40.660156 C 96.261719 40.507812 96.253906 40.347656 96.246094 40.195312 C 96.214844 39.683594 96.207031 39.160156 96.226562 38.636719 C 96.292969 37.125 96.574219 35.605469 97.226562 34.238281 C 97.550781 33.554688 96.539062 32.945312 96.207031 33.640625 C 95.148438 35.882812 94.789062 38.5625 95.136719 41.011719 C 95.175781 41.296875 95.527344 41.476562 95.789062 41.4375 C 96.09375 41.390625 96.28125 41.15625 96.300781 40.859375 C 96.3125 40.753906 96.261719 41.050781 96.292969 40.917969 C 96.3125 40.839844 96.328125 40.753906 96.347656 40.679688 C 96.433594 40.386719 96.527344 40.15625 96.660156 39.890625 C 97.113281 39.015625 97.863281 38.34375 98.304688 37.457031 C 98.863281 36.347656 99.175781 35.035156 99.195312 33.792969 C 99.214844 33.011719 98.03125 33.011719 98.011719 33.78125 Z M 98.011719 33.78125 "/>
<path style=" stroke:none;fill-rule:nonzero;fill:rgb(0%,0%,0%);fill-opacity:1;" d="M 92.480469 34.417969 C 92.507812 35.101562 92.753906 35.835938 93.160156 36.386719 C 93.53125 36.878906 94.058594 37.324219 94.675781 37.429688 C 95.183594 37.515625 95.707031 37.375 96.054688 36.964844 C 96.253906 36.738281 96.414062 36.460938 96.492188 36.15625 C 96.566406 35.851562 96.386719 35.5 96.074219 35.425781 C 95.761719 35.359375 95.429688 35.519531 95.347656 35.84375 C 95.335938 35.890625 95.316406 35.929688 95.296875 35.976562 C 95.269531 36.042969 95.375 35.804688 95.328125 35.902344 C 95.316406 35.929688 95.308594 35.949219 95.289062 35.976562 C 95.261719 36.035156 95.234375 36.082031 95.195312 36.136719 C 95.183594 36.148438 95.175781 36.167969 95.167969 36.175781 C 95.167969 36.175781 95.269531 36.054688 95.222656 36.109375 C 95.203125 36.128906 95.183594 36.15625 95.167969 36.175781 C 95.136719 36.203125 95.109375 36.222656 95.089844 36.253906 C 95.054688 36.289062 95.035156 36.253906 95.15625 36.203125 C 95.136719 36.214844 95.117188 36.234375 95.101562 36.242188 C 95.070312 36.261719 94.957031 36.308594 95.070312 36.261719 C 95.183594 36.214844 95.054688 36.261719 95.023438 36.269531 C 95.003906 36.269531 94.988281 36.28125 94.976562 36.28125 C 94.902344 36.308594 95.054688 36.269531 95.054688 36.269531 C 95.015625 36.261719 94.9375 36.269531 94.902344 36.269531 C 94.824219 36.269531 95.0625 36.308594 94.949219 36.28125 C 94.929688 36.269531 94.910156 36.269531 94.882812 36.269531 C 94.835938 36.261719 94.789062 36.234375 94.730469 36.222656 C 94.65625 36.203125 94.863281 36.289062 94.75 36.234375 C 94.722656 36.222656 94.703125 36.203125 94.675781 36.195312 C 94.617188 36.167969 94.5625 36.128906 94.503906 36.089844 C 94.476562 36.070312 94.449219 36.054688 94.429688 36.035156 C 94.398438 36.015625 94.34375 36.003906 94.410156 36.023438 C 94.417969 36.035156 94.429688 36.042969 94.4375 36.042969 C 94.417969 36.023438 94.398438 36.015625 94.382812 35.996094 C 94.363281 35.976562 94.34375 35.96875 94.324219 35.949219 C 94.238281 35.871094 94.171875 35.769531 94.089844 35.691406 C 94.097656 35.703125 94.171875 35.804688 94.117188 35.730469 C 94.105469 35.710938 94.089844 35.691406 94.078125 35.671875 C 94.050781 35.625 94.023438 35.578125 93.992188 35.53125 C 93.945312 35.445312 93.898438 35.359375 93.859375 35.273438 C 93.796875 35.121094 93.910156 35.398438 93.851562 35.246094 C 93.832031 35.207031 93.824219 35.167969 93.8125 35.132812 C 93.785156 35.046875 93.757812 34.960938 93.730469 34.867188 C 93.710938 34.789062 93.691406 34.714844 93.671875 34.636719 C 93.664062 34.589844 93.625 34.484375 93.632812 34.4375 C 93.632812 34.417969 93.652344 34.617188 93.652344 34.550781 C 93.652344 34.542969 93.652344 34.523438 93.652344 34.515625 C 93.652344 34.496094 93.652344 34.476562 93.644531 34.464844 C 93.644531 34.449219 93.644531 34.4375 93.644531 34.417969 C 93.625 34.105469 93.378906 33.8125 93.058594 33.828125 C 92.765625 33.839844 92.472656 34.085938 92.480469 34.417969 Z M 92.480469 34.417969 "/>
<path style=" stroke:none;fill-rule:nonzero;fill:rgb(0%,0%,0%);fill-opacity:1;" d="M 90.132812 32.976562 C 89.898438 33.859375 90.039062 34.894531 90.363281 35.730469 C 90.636719 36.441406 91.0625 37.308594 91.800781 37.640625 C 92.386719 37.90625 93.039062 37.792969 93.492188 37.316406 C 93.910156 36.878906 94.164062 36.167969 93.945312 35.566406 C 93.84375 35.273438 93.539062 35.046875 93.21875 35.148438 C 92.933594 35.246094 92.6875 35.566406 92.800781 35.882812 C 92.8125 35.917969 92.820312 35.957031 92.839844 35.996094 C 92.878906 36.136719 92.839844 35.871094 92.839844 35.996094 C 92.839844 36.035156 92.839844 36.070312 92.839844 36.121094 C 92.839844 36.234375 92.878906 35.984375 92.839844 36.128906 C 92.832031 36.167969 92.820312 36.214844 92.800781 36.253906 C 92.753906 36.40625 92.859375 36.15625 92.792969 36.269531 C 92.773438 36.308594 92.753906 36.347656 92.726562 36.386719 C 92.714844 36.40625 92.707031 36.421875 92.6875 36.441406 C 92.621094 36.546875 92.714844 36.414062 92.714844 36.414062 C 92.714844 36.421875 92.640625 36.5 92.632812 36.507812 C 92.613281 36.527344 92.59375 36.546875 92.574219 36.566406 C 92.527344 36.621094 92.679688 36.5 92.621094 36.527344 C 92.585938 36.546875 92.554688 36.574219 92.519531 36.59375 C 92.5 36.605469 92.433594 36.632812 92.519531 36.59375 C 92.613281 36.554688 92.527344 36.59375 92.5 36.59375 C 92.480469 36.59375 92.460938 36.605469 92.441406 36.613281 C 92.355469 36.640625 92.488281 36.605469 92.507812 36.605469 C 92.488281 36.59375 92.394531 36.605469 92.367188 36.605469 C 92.292969 36.613281 92.5 36.632812 92.421875 36.613281 C 92.40625 36.605469 92.375 36.605469 92.355469 36.59375 C 92.339844 36.585938 92.308594 36.574219 92.292969 36.574219 C 92.226562 36.554688 92.40625 36.640625 92.308594 36.585938 C 92.292969 36.574219 92.261719 36.554688 92.242188 36.546875 C 92.234375 36.546875 92.121094 36.472656 92.195312 36.519531 C 92.261719 36.566406 92.1875 36.507812 92.167969 36.5 C 92.140625 36.480469 92.121094 36.460938 92.101562 36.433594 C 92.054688 36.386719 92.007812 36.335938 91.960938 36.28125 C 91.902344 36.214844 91.996094 36.347656 91.949219 36.261719 C 91.921875 36.222656 91.894531 36.175781 91.867188 36.136719 C 91.769531 35.984375 91.675781 35.835938 91.601562 35.671875 C 91.5625 35.605469 91.535156 35.53125 91.496094 35.453125 C 91.457031 35.367188 91.523438 35.53125 91.488281 35.433594 C 91.46875 35.386719 91.449219 35.351562 91.441406 35.300781 C 91.335938 35.027344 91.269531 34.742188 91.222656 34.449219 C 91.195312 34.296875 91.230469 34.53125 91.214844 34.378906 C 91.203125 34.324219 91.203125 34.265625 91.195312 34.210938 C 91.183594 34.097656 91.183594 33.980469 91.183594 33.867188 C 91.183594 33.761719 91.195312 33.667969 91.195312 33.5625 C 91.195312 33.515625 91.203125 33.476562 91.203125 33.429688 C 91.214844 33.335938 91.175781 33.609375 91.203125 33.46875 C 91.214844 33.402344 91.222656 33.335938 91.242188 33.269531 C 91.316406 32.964844 91.136719 32.613281 90.824219 32.539062 C 90.550781 32.492188 90.21875 32.652344 90.132812 32.976562 Z M 90.132812 32.976562 "/>
<path style=" stroke:none;fill-rule:nonzero;fill:rgb(0%,0%,0%);fill-opacity:1;" d="M 87.617188 33.800781 C 87.542969 33.980469 87.535156 34.199219 87.542969 34.390625 C 87.5625 34.902344 87.730469 35.398438 87.988281 35.84375 C 88.328125 36.460938 88.8125 37.070312 89.492188 37.308594 C 90.039062 37.496094 90.644531 37.335938 91.070312 36.957031 C 91.277344 36.765625 91.441406 36.519531 91.515625 36.253906 C 91.621094 35.9375 91.574219 35.617188 91.441406 35.320312 C 91.308594 35.035156 90.882812 34.941406 90.625 35.113281 C 90.332031 35.300781 90.277344 35.625 90.417969 35.929688 C 90.332031 35.75 90.378906 35.84375 90.398438 35.902344 C 90.429688 35.996094 90.398438 35.730469 90.390625 35.863281 C 90.390625 35.882812 90.390625 35.890625 90.390625 35.910156 C 90.390625 35.957031 90.34375 35.984375 90.398438 35.824219 C 90.390625 35.863281 90.378906 35.902344 90.371094 35.9375 C 90.34375 36.0625 90.429688 35.835938 90.390625 35.910156 C 90.371094 35.9375 90.351562 35.976562 90.332031 36.015625 C 90.324219 36.035156 90.3125 36.042969 90.304688 36.0625 C 90.265625 36.128906 90.410156 35.9375 90.34375 36.015625 C 90.3125 36.042969 90.285156 36.070312 90.257812 36.101562 C 90.257812 36.101562 90.238281 36.121094 90.21875 36.128906 C 90.171875 36.175781 90.21875 36.089844 90.277344 36.089844 C 90.25 36.089844 90.210938 36.136719 90.183594 36.148438 C 90.164062 36.15625 90.152344 36.167969 90.132812 36.175781 C 90.039062 36.234375 90.257812 36.128906 90.191406 36.15625 C 90.152344 36.167969 90.117188 36.1875 90.070312 36.195312 C 90.050781 36.203125 90.019531 36.203125 90.003906 36.214844 C 89.9375 36.234375 90.144531 36.203125 90.070312 36.203125 C 90.019531 36.203125 89.972656 36.203125 89.9375 36.203125 C 89.890625 36.203125 89.859375 36.175781 90.003906 36.214844 C 89.984375 36.203125 89.964844 36.203125 89.9375 36.203125 C 89.890625 36.195312 89.824219 36.15625 89.773438 36.15625 C 89.839844 36.15625 89.878906 36.203125 89.824219 36.175781 C 89.804688 36.167969 89.773438 36.15625 89.757812 36.136719 C 89.710938 36.109375 89.660156 36.070312 89.605469 36.042969 C 89.539062 35.996094 89.710938 36.136719 89.605469 36.042969 C 89.585938 36.023438 89.558594 36.003906 89.539062 35.984375 C 89.480469 35.929688 89.425781 35.871094 89.378906 35.804688 C 89.359375 35.777344 89.332031 35.75 89.3125 35.71875 C 89.332031 35.738281 89.378906 35.804688 89.3125 35.710938 C 89.273438 35.652344 89.234375 35.605469 89.199219 35.550781 C 89.121094 35.433594 89.046875 35.3125 88.980469 35.1875 C 88.953125 35.132812 88.925781 35.082031 88.894531 35.027344 C 88.886719 35.007812 88.875 34.980469 88.867188 34.960938 C 88.839844 34.914062 88.867188 34.902344 88.886719 35 C 88.875 34.914062 88.820312 34.808594 88.792969 34.722656 C 88.773438 34.648438 88.753906 34.570312 88.734375 34.484375 C 88.707031 34.363281 88.746094 34.648438 88.734375 34.503906 C 88.734375 34.464844 88.726562 34.429688 88.726562 34.390625 C 88.726562 34.324219 88.726562 34.265625 88.726562 34.199219 C 88.734375 34.132812 88.761719 34.046875 88.714844 34.265625 C 88.714844 34.246094 88.726562 34.230469 88.726562 34.210938 C 88.734375 34.171875 88.746094 34.132812 88.753906 34.105469 C 88.867188 33.820312 88.628906 33.441406 88.335938 33.375 C 88.007812 33.308594 87.75 33.496094 87.617188 33.800781 Z M 87.617188 33.800781 "/>
<path style=" stroke:none;fill-rule:nonzero;fill:rgb(0%,0%,0%);fill-opacity:1;" d="M 85.753906 34.257812 C 85.492188 34.855469 85.6875 35.550781 86.011719 36.082031 C 86.324219 36.585938 86.75 37.078125 87.324219 37.269531 C 87.828125 37.429688 88.355469 37.289062 88.753906 36.957031 C 89.171875 36.605469 89.320312 36.023438 89.074219 35.53125 C 88.933594 35.253906 88.527344 35.148438 88.261719 35.320312 C 87.976562 35.5 87.902344 35.835938 88.054688 36.136719 C 88.082031 36.195312 87.988281 35.96875 88.027344 36.082031 C 88.0625 36.1875 88.027344 35.929688 88.015625 36.015625 C 88.015625 36.023438 88.015625 36.042969 88.015625 36.054688 C 88.027344 36.121094 88.027344 35.957031 88.035156 35.949219 C 88.035156 35.949219 88.015625 36.035156 88.015625 36.042969 C 87.996094 36.121094 88.089844 35.890625 88.035156 35.996094 C 88.027344 36.023438 88.007812 36.042969 87.996094 36.070312 C 87.960938 36.148438 88.109375 35.949219 88.027344 36.035156 C 88.007812 36.0625 87.976562 36.082031 87.960938 36.101562 C 87.882812 36.175781 88.082031 36.015625 87.988281 36.082031 C 87.960938 36.101562 87.941406 36.121094 87.910156 36.128906 C 87.902344 36.136719 87.863281 36.148438 87.855469 36.15625 C 87.855469 36.15625 88.007812 36.101562 87.929688 36.128906 C 87.894531 36.136719 87.863281 36.148438 87.828125 36.15625 C 87.808594 36.15625 87.796875 36.167969 87.78125 36.167969 C 87.714844 36.1875 87.929688 36.15625 87.863281 36.15625 C 87.828125 36.15625 87.796875 36.15625 87.761719 36.15625 C 87.742188 36.15625 87.722656 36.15625 87.703125 36.15625 C 87.636719 36.15625 87.847656 36.1875 87.78125 36.167969 C 87.742188 36.15625 87.695312 36.148438 87.65625 36.136719 C 87.636719 36.128906 87.617188 36.121094 87.601562 36.121094 C 87.722656 36.148438 87.703125 36.167969 87.65625 36.136719 C 87.617188 36.121094 87.582031 36.101562 87.542969 36.070312 C 87.523438 36.0625 87.503906 36.042969 87.488281 36.035156 C 87.402344 35.976562 87.515625 36.054688 87.523438 36.0625 C 87.496094 36.015625 87.421875 35.96875 87.382812 35.929688 C 87.34375 35.890625 87.308594 35.84375 87.269531 35.796875 C 87.25 35.777344 87.230469 35.75 87.210938 35.730469 C 87.183594 35.691406 87.144531 35.683594 87.230469 35.75 C 87.15625 35.691406 87.097656 35.558594 87.050781 35.484375 C 87.003906 35.40625 86.964844 35.332031 86.929688 35.253906 C 86.917969 35.234375 86.910156 35.214844 86.898438 35.199219 C 86.871094 35.132812 86.949219 35.332031 86.929688 35.265625 C 86.917969 35.226562 86.898438 35.1875 86.890625 35.148438 C 86.871094 35.09375 86.851562 35.027344 86.84375 34.96875 C 86.832031 34.941406 86.816406 34.816406 86.832031 34.949219 C 86.851562 35.082031 86.832031 34.96875 86.832031 34.941406 C 86.832031 34.894531 86.832031 34.847656 86.832031 34.789062 C 86.832031 34.78125 86.832031 34.769531 86.832031 34.761719 C 86.832031 34.683594 86.816406 34.882812 86.816406 34.875 C 86.824219 34.855469 86.824219 34.835938 86.824219 34.828125 C 86.824219 34.808594 86.832031 34.78125 86.84375 34.761719 C 86.863281 34.675781 86.796875 34.875 86.796875 34.875 C 86.863281 34.722656 86.898438 34.582031 86.851562 34.417969 C 86.816406 34.285156 86.710938 34.132812 86.578125 34.066406 C 86.304688 33.90625 85.886719 33.953125 85.753906 34.257812 Z M 85.753906 34.257812 "/>
<path style=" stroke:none;fill-rule:nonzero;fill:rgb(0%,0%,0%);fill-opacity:1;" d="M 49.097656 20.625 C 49.523438 20.664062 48.917969 20.578125 49.277344 20.644531 C 49.671875 20.710938 50.070312 20.785156 50.457031 20.882812 C 51.839844 21.214844 53.117188 21.6875 54.335938 22.296875 C 58.722656 24.472656 62.121094 28.121094 64.429688 32.421875 C 66.507812 36.308594 67.679688 40.601562 68.371094 44.945312 C 68.609375 46.445312 70.886719 45.808594 70.652344 44.316406 C 68.902344 33.328125 63.019531 21.820312 51.554688 18.714844 C 50.761719 18.496094 49.929688 18.316406 49.105469 18.25 C 47.574219 18.136719 47.582031 20.511719 49.097656 20.625 Z M 49.097656 20.625 "/>
<path style=" stroke:none;fill-rule:nonzero;fill:rgb(0%,0%,0%);fill-opacity:1;" d="M 80.96875 18.335938 C 78.738281 18.507812 76.523438 19.351562 74.539062 20.332031 C 69.820312 22.675781 66.082031 26.6875 63.605469 31.3125 C 61.421875 35.378906 60.144531 39.851562 59.425781 44.394531 C 59.1875 45.886719 61.46875 46.53125 61.703125 45.019531 C 63.320312 34.835938 68.542969 23.949219 79.152344 21.082031 C 79.664062 20.949219 80.175781 20.84375 80.6875 20.738281 C 81.207031 20.644531 80.523438 20.738281 80.96875 20.699219 C 82.472656 20.597656 82.492188 18.222656 80.96875 18.335938 Z M 80.96875 18.335938 "/>
<path style=" stroke:none;fill-rule:nonzero;fill:rgb(0%,0%,0%);fill-opacity:1;" d="M 50.015625 20.710938 C 50.015625 27.710938 50.015625 34.722656 50.015625 41.722656 C 50.015625 42.722656 50.015625 43.710938 50.015625 44.707031 C 50.015625 46.238281 52.378906 46.238281 52.378906 44.707031 C 52.378906 37.707031 52.378906 30.695312 52.378906 23.691406 C 52.378906 22.695312 52.378906 21.707031 52.378906 20.710938 C 52.378906 19.191406 50.015625 19.179688 50.015625 20.710938 Z M 50.015625 20.710938 "/>
<path style=" stroke:none;fill-rule:nonzero;fill:rgb(0%,0%,0%);fill-opacity:1;" d="M 77.632812 20.710938 C 77.632812 27.710938 77.632812 34.722656 77.632812 41.722656 C 77.632812 42.722656 77.632812 43.710938 77.632812 44.707031 C 77.632812 46.238281 79.996094 46.238281 79.996094 44.707031 C 79.996094 37.707031 79.996094 30.695312 79.996094 23.691406 C 79.996094 22.695312 79.996094 21.707031 79.996094 20.710938 C 79.996094 19.191406 77.632812 19.179688 77.632812 20.710938 Z M 77.632812 20.710938 "/>
<path style=" stroke:none;fill-rule:nonzero;fill:rgb(0%,0%,0%);fill-opacity:1;" d="M 78.710938 28.878906 C 74.578125 29.222656 71.617188 33.296875 70.167969 36.792969 C 69.136719 39.292969 68.628906 41.953125 68.324219 44.621094 C 68.25 45.257812 68.921875 45.808594 69.507812 45.808594 C 70.207031 45.808594 70.613281 45.257812 70.6875 44.621094 C 70.933594 42.457031 71.378906 40.289062 72.125 38.238281 C 72.617188 36.90625 73.402344 35.398438 74.160156 34.410156 C 74.519531 33.933594 74.925781 33.496094 75.359375 33.089844 C 75.550781 32.917969 75.738281 32.746094 75.9375 32.59375 C 76.097656 32.460938 75.816406 32.679688 76.03125 32.519531 C 76.144531 32.441406 76.25 32.355469 76.363281 32.289062 C 76.703125 32.0625 77.054688 31.863281 77.421875 31.683594 C 77.5 31.644531 77.566406 31.617188 77.640625 31.578125 C 77.800781 31.503906 77.375 31.671875 77.648438 31.578125 C 77.792969 31.53125 77.933594 31.472656 78.074219 31.425781 C 78.292969 31.351562 78.519531 31.304688 78.746094 31.253906 C 79.144531 31.160156 78.539062 31.265625 78.71875 31.253906 C 80.214844 31.132812 80.222656 28.757812 78.710938 28.878906 Z M 78.710938 28.878906 "/>
<path style=" stroke:none;fill-rule:nonzero;fill:rgb(0%,0%,0%);fill-opacity:1;" d="M 51.1875 31.246094 C 51.394531 31.265625 50.769531 31.152344 51.09375 31.234375 C 51.28125 31.285156 51.460938 31.3125 51.648438 31.371094 C 51.773438 31.40625 51.894531 31.445312 52.019531 31.484375 C 52.085938 31.503906 52.152344 31.53125 52.207031 31.550781 C 52.253906 31.570312 52.558594 31.691406 52.359375 31.605469 C 52.160156 31.519531 52.425781 31.636719 52.464844 31.652344 C 52.546875 31.691406 52.644531 31.738281 52.726562 31.789062 C 52.917969 31.882812 53.105469 31.988281 53.285156 32.101562 C 53.476562 32.214844 53.65625 32.339844 53.835938 32.460938 C 53.921875 32.527344 54.015625 32.585938 54.101562 32.652344 C 53.890625 32.492188 54.242188 32.765625 54.289062 32.804688 C 54.722656 33.175781 55.128906 33.582031 55.507812 34.019531 C 56.332031 34.980469 57.097656 36.289062 57.644531 37.574219 C 58.59375 39.796875 59.101562 42.226562 59.378906 44.613281 C 59.453125 45.25 59.867188 45.800781 60.558594 45.800781 C 61.136719 45.800781 61.816406 45.257812 61.742188 44.613281 C 61.050781 38.695312 58.839844 31.207031 52.511719 29.136719 C 52.074219 28.996094 51.632812 28.898438 51.175781 28.859375 C 49.664062 28.746094 49.671875 31.121094 51.1875 31.246094 Z M 51.1875 31.246094 "/>
<path style=" stroke:none;fill-rule:nonzero;fill:rgb(0%,0%,0%);fill-opacity:1;" d="M 48.113281 45.980469 C 49.910156 45.980469 51.707031 45.980469 53.496094 45.980469 C 53.75 45.980469 54.003906 45.980469 54.261719 45.980469 C 54.875 45.980469 55.472656 45.4375 55.441406 44.792969 C 55.414062 44.148438 54.921875 43.605469 54.261719 43.605469 C 52.464844 43.605469 50.667969 43.605469 48.878906 43.605469 C 48.625 43.605469 48.367188 43.605469 48.113281 43.605469 C 47.496094 43.605469 46.902344 44.148438 46.929688 44.792969 C 46.957031 45.4375 47.449219 45.980469 48.113281 45.980469 Z M 48.113281 45.980469 "/>
<path style=" stroke:none;fill-rule:nonzero;fill:rgb(0%,0%,0%);fill-opacity:1;" d="M 75.636719 45.980469 C 77.433594 45.980469 79.230469 45.980469 81.015625 45.980469 C 81.273438 45.980469 81.527344 45.980469 81.785156 45.980469 C 82.398438 45.980469 82.992188 45.4375 82.964844 44.792969 C 82.9375 44.148438 82.445312 43.605469 81.785156 43.605469 C 79.984375 43.605469 78.1875 43.605469 76.402344 43.605469 C 76.144531 43.605469 75.890625 43.605469 75.636719 43.605469 C 75.019531 43.605469 74.425781 44.148438 74.453125 44.792969 C 74.480469 45.4375 74.964844 45.980469 75.636719 45.980469 Z M 75.636719 45.980469 "/>
</g>
</svg>
