<?xml version="1.0" encoding="UTF-8"?>
<svg xmlns="http://www.w3.org/2000/svg" xmlns:xlink="http://www.w3.org/1999/xlink" width="300px" height="150px" viewBox="0 0 201 94" version="1.1">
<g id="surface4">
<path style=" stroke:none;fill-rule:nonzero;fill:rgb(0%,0%,0%);fill-opacity:1;" d="M 78.03125 47.152344 C 73.71875 46.917969 69.242188 44.988281 65.835938 42.441406 C 64.328125 41.3125 62.96875 39.996094 61.796875 38.515625 C 60.335938 36.671875 59.402344 34.492188 57.980469 32.617188 C 55.921875 29.894531 53.140625 27.859375 49.96875 26.613281 C 47.511719 25.648438 44.851562 25.179688 42.203125 25.105469 C 41.339844 25.078125 40.476562 25.09375 39.613281 25.164062 C 39.425781 25.179688 38.066406 25.355469 38.621094 25.28125 C 36.425781 25.589844 34.304688 26.261719 32.332031 27.300781 C 30.679688 28.167969 29.128906 29.324219 27.886719 30.726562 C 26.996094 31.738281 25.75 33.203125 25.796875 34.652344 C 25.984375 39.71875 36.074219 34.476562 37.507812 33.613281 C 38.519531 33.011719 37.597656 31.429688 36.585938 32.03125 C 34.789062 33.101562 32.726562 34.140625 30.679688 34.636719 C 29.964844 34.8125 29.113281 34.972656 28.382812 34.886719 C 27.125 34.738281 27.800781 33.890625 28.355469 33.070312 C 30.3125 30.15625 33.621094 28.328125 36.953125 27.464844 C 37.976562 27.199219 38.707031 27.082031 39.394531 27.023438 C 43.886719 26.613281 48.636719 27.464844 52.46875 29.9375 C 55.804688 32.089844 57.25 35.25 59.429688 38.398438 C 61.300781 41.09375 63.699219 43.375 66.476562 45.105469 C 69.855469 47.210938 73.996094 48.75 78 48.984375 C 79.199219 49.058594 79.199219 47.210938 78.03125 47.152344 Z M 78.03125 47.152344 "/>
<path style=" stroke:none;fill-rule:nonzero;fill:rgb(0%,0%,0%);fill-opacity:1;" d="M 42.1875 34.035156 C 40.316406 36.453125 37.785156 38.546875 35.066406 39.90625 C 34.132812 40.375 33.078125 40.828125 32.039062 40.960938 C 32.011719 40.960938 31.746094 40.976562 31.628906 40.976562 C 31.558594 40.976562 31.484375 40.976562 31.410156 40.960938 C 31.617188 40.992188 31.382812 40.945312 31.339844 40.933594 C 31.292969 40.917969 31.25 40.902344 31.207031 40.886719 C 31.410156 40.960938 31.222656 40.902344 31.175781 40.859375 C 31.046875 40.757812 31.175781 40.875 31.207031 40.886719 C 31.148438 40.859375 30.988281 40.640625 31.132812 40.84375 C 31.089844 40.785156 30.957031 40.492188 31.046875 40.726562 C 31 40.625 30.988281 40.523438 30.957031 40.40625 C 30.882812 40.171875 30.929688 40.492188 30.941406 40.230469 C 30.941406 40.082031 30.941406 39.921875 30.941406 39.777344 C 30.941406 39.71875 30.988281 39.335938 30.957031 39.542969 C 30.988281 39.394531 31 39.234375 31.046875 39.085938 C 31.105469 38.78125 31.191406 38.472656 31.28125 38.179688 C 31.382812 37.859375 31.484375 37.550781 31.601562 37.242188 C 31.660156 37.097656 31.703125 36.964844 31.761719 36.816406 C 31.777344 36.773438 31.851562 36.613281 31.761719 36.816406 C 31.792969 36.746094 31.820312 36.6875 31.851562 36.613281 C 31.964844 36.363281 32.070312 36.117188 32.199219 35.867188 C 32.742188 34.828125 31.164062 33.890625 30.621094 34.945312 C 30.210938 35.75 29.859375 36.585938 29.582031 37.449219 C 29.171875 38.707031 28.765625 40.316406 29.421875 41.5625 C 30.328125 43.304688 32.566406 42.820312 34.058594 42.292969 C 36.457031 41.445312 38.605469 40.023438 40.523438 38.355469 C 41.574219 37.433594 42.613281 36.421875 43.460938 35.324219 C 43.769531 34.929688 43.839844 34.417969 43.460938 34.035156 C 43.152344 33.714844 42.480469 33.640625 42.1875 34.035156 Z M 42.1875 34.035156 "/>
<path style=" stroke:none;fill-rule:nonzero;fill:rgb(0%,0%,0%);fill-opacity:1;" d="M 46.371094 37.828125 C 45.304688 39.511719 44.089844 41.121094 42.714844 42.558594 C 41.675781 43.625 40.550781 44.429688 39.132812 44.914062 C 38.460938 45.132812 37.785156 45.292969 37.070312 45.25 C 36.835938 45.234375 36.675781 45.207031 36.441406 45.132812 C 36.25 45.074219 36.121094 45 36.0625 44.929688 C 36.121094 45 35.972656 44.753906 35.945312 44.695312 C 35.929688 44.648438 35.871094 44.460938 35.855469 44.359375 C 35.785156 44.035156 35.769531 43.714844 35.769531 43.390625 C 35.769531 42.777344 35.855469 41.984375 36.25 41.472656 C 36.558594 41.09375 36.632812 40.550781 36.25 40.183594 C 35.929688 39.863281 35.273438 39.789062 34.964844 40.183594 C 33.925781 41.488281 33.675781 43.433594 34.144531 45.03125 C 34.585938 46.554688 35.957031 47.140625 37.464844 47.09375 C 41.238281 46.992188 43.957031 44.195312 46.109375 41.402344 C 46.765625 40.550781 47.394531 39.671875 47.980469 38.765625 C 48.59375 37.753906 47 36.832031 46.371094 37.828125 Z M 46.371094 37.828125 "/>
<path style=" stroke:none;fill-rule:nonzero;fill:rgb(0%,0%,0%);fill-opacity:1;" d="M 50.992188 40.875 C 50.507812 43.199219 49.339844 45.5 47.65625 47.242188 C 46.414062 48.515625 44.617188 49.6875 42.847656 49.6875 C 42.613281 49.6875 42.757812 49.699219 42.554688 49.640625 C 42.480469 49.628906 42.421875 49.613281 42.347656 49.582031 C 42.203125 49.539062 42.523438 49.6875 42.304688 49.570312 C 42.246094 49.539062 41.953125 49.335938 42.117188 49.464844 C 42 49.378906 41.894531 49.261719 41.808594 49.160156 C 41.941406 49.320312 41.734375 49.042969 41.707031 48.984375 C 41.664062 48.925781 41.632812 48.851562 41.605469 48.777344 C 41.5 48.558594 41.648438 48.894531 41.589844 48.75 C 41.488281 48.484375 41.429688 48.222656 41.371094 47.945312 C 41.355469 47.886719 41.355469 47.8125 41.339844 47.753906 C 41.371094 47.988281 41.339844 47.710938 41.339844 47.667969 C 41.324219 47.519531 41.324219 47.375 41.3125 47.226562 C 41.296875 46.964844 41.3125 46.714844 41.324219 46.449219 C 41.339844 46.261719 41.355469 46.070312 41.371094 45.878906 C 41.382812 45.660156 41.324219 46.128906 41.371094 45.867188 C 41.457031 45.382812 41.238281 44.882812 40.726562 44.738281 C 40.289062 44.621094 39.6875 44.882812 39.601562 45.382812 C 39.25 47.492188 39.46875 50.492188 41.824219 51.3125 C 43.839844 52.015625 46.28125 50.726562 47.832031 49.511719 C 49.441406 48.25 50.671875 46.554688 51.546875 44.722656 C 52.058594 43.65625 52.527344 42.5 52.761719 41.328125 C 52.996094 40.199219 51.242188 39.71875 50.992188 40.875 Z M 50.992188 40.875 "/>
<path style=" stroke:none;fill-rule:nonzero;fill:rgb(0%,0%,0%);fill-opacity:1;" d="M 55.847656 44.152344 C 55.847656 44.34375 55.816406 44.535156 55.804688 44.722656 C 55.789062 44.824219 55.773438 44.914062 55.773438 45.015625 C 55.816406 44.722656 55.757812 45.074219 55.757812 45.132812 C 55.714844 45.410156 55.65625 45.691406 55.597656 45.96875 C 55.277344 47.417969 54.78125 48.660156 53.886719 49.875 C 53.433594 50.492188 52.835938 51.089844 52.191406 51.53125 C 51.839844 51.765625 51.460938 51.984375 51.066406 52.160156 C 50.890625 52.234375 50.714844 52.308594 50.523438 52.351562 C 50.449219 52.367188 50.390625 52.394531 50.320312 52.410156 C 50.289062 52.425781 49.925781 52.484375 50.101562 52.46875 C 49.953125 52.484375 49.820312 52.484375 49.675781 52.484375 C 49.632812 52.484375 49.382812 52.4375 49.617188 52.484375 C 49.558594 52.46875 49.5 52.46875 49.441406 52.4375 C 49.382812 52.425781 49.324219 52.410156 49.265625 52.394531 C 49.046875 52.320312 49.425781 52.484375 49.238281 52.378906 C 49.164062 52.335938 48.855469 52.117188 49.046875 52.277344 C 48.960938 52.203125 48.886719 52.132812 48.8125 52.058594 C 48.785156 52.027344 48.652344 51.851562 48.796875 52.042969 C 48.769531 52 48.738281 51.957031 48.710938 51.910156 C 48.652344 51.808594 48.59375 51.707031 48.535156 51.605469 C 48.507812 51.558594 48.492188 51.5 48.460938 51.457031 C 48.433594 51.398438 48.449219 51.414062 48.492188 51.53125 C 48.476562 51.488281 48.460938 51.457031 48.449219 51.414062 C 48.359375 51.179688 48.285156 50.945312 48.226562 50.695312 C 48.199219 50.566406 48.167969 50.433594 48.15625 50.300781 C 48.15625 50.273438 48.140625 50.226562 48.140625 50.199219 C 48.109375 50.039062 48.15625 50.449219 48.140625 50.199219 C 48.125 49.980469 48.097656 49.773438 48.097656 49.554688 C 48.097656 48.382812 46.269531 48.367188 46.269531 49.554688 C 46.269531 51.574219 47.175781 54.0625 49.457031 54.3125 C 51.34375 54.515625 53.347656 53.199219 54.605469 51.898438 C 55.863281 50.578125 56.695312 48.925781 57.191406 47.183594 C 57.46875 46.214844 57.675781 45.191406 57.703125 44.183594 C 57.703125 42.96875 55.875 42.96875 55.847656 44.152344 Z M 55.847656 44.152344 "/>
<path style=" stroke:none;fill-rule:nonzero;fill:rgb(0%,0%,0%);fill-opacity:1;" d="M 57.675781 44.535156 C 57.675781 44.488281 57.675781 44.429688 57.675781 44.386719 C 57.675781 44.136719 57.691406 44.460938 57.71875 44.152344 C 57.734375 44.019531 57.761719 44.226562 57.734375 44.109375 C 57.691406 43.933594 57.777344 44.253906 57.660156 44.167969 C 57.675781 44.183594 57.703125 44.210938 57.601562 44.167969 C 57.675781 44.210938 57.777344 44.167969 57.894531 44.210938 C 59.839844 45.105469 61.171875 46.917969 63.042969 47.972656 C 66.523438 49.933594 70.617188 50.84375 74.550781 51.398438 C 75.589844 51.546875 76.628906 51.691406 77.679688 51.765625 C 78.851562 51.851562 78.851562 50.023438 77.679688 49.933594 C 74.652344 49.714844 71.609375 49.144531 68.699219 48.296875 C 66.550781 47.667969 64.3125 46.847656 62.53125 45.457031 C 61.171875 44.402344 59.3125 41.914062 57.28125 42.367188 C 56.316406 42.585938 55.816406 43.597656 55.863281 44.535156 C 55.921875 45.703125 57.75 45.703125 57.675781 44.535156 Z M 57.675781 44.535156 "/>
<path style=" stroke:none;fill-rule:nonzero;fill:rgb(0%,0%,0%);fill-opacity:1;" d="M 76.554688 51.398438 C 76.570312 51.457031 76.582031 51.53125 76.582031 51.589844 C 76.613281 51.75 76.554688 51.296875 76.570312 51.472656 C 76.570312 51.5 76.582031 51.546875 76.582031 51.574219 C 76.597656 51.675781 76.597656 51.78125 76.597656 51.882812 C 76.613281 52.132812 76.597656 52.378906 76.582031 52.628906 C 76.582031 52.65625 76.582031 52.6875 76.570312 52.714844 C 76.554688 52.890625 76.597656 52.511719 76.582031 52.628906 C 76.570312 52.703125 76.570312 52.761719 76.554688 52.832031 C 76.523438 52.996094 76.480469 53.140625 76.4375 53.300781 C 76.421875 53.359375 76.394531 53.433594 76.378906 53.492188 C 76.363281 53.535156 76.347656 53.566406 76.335938 53.609375 C 76.289062 53.726562 76.4375 53.390625 76.347656 53.550781 C 76.277344 53.699219 76.203125 53.84375 76.113281 53.992188 C 76.070312 54.050781 76.011719 54.121094 75.96875 54.195312 C 76.042969 54.019531 76.058594 54.09375 75.984375 54.167969 C 75.953125 54.195312 75.925781 54.238281 75.894531 54.269531 C 75.835938 54.328125 75.777344 54.386719 75.71875 54.445312 C 75.675781 54.472656 75.632812 54.515625 75.601562 54.546875 C 75.53125 54.605469 75.765625 54.429688 75.601562 54.546875 C 75.53125 54.589844 75.472656 54.632812 75.398438 54.664062 C 75.28125 54.738281 75.472656 54.632812 75.488281 54.632812 C 75.457031 54.648438 75.414062 54.664062 75.382812 54.679688 C 75.324219 54.691406 75.253906 54.707031 75.195312 54.722656 C 75.472656 54.648438 75.3125 54.707031 75.195312 54.707031 C 74.972656 54.707031 75.414062 54.765625 75.207031 54.707031 C 75.148438 54.691406 75.105469 54.679688 75.046875 54.664062 C 74.871094 54.605469 75.265625 54.78125 75.089844 54.679688 C 75.046875 54.648438 74.988281 54.621094 74.945312 54.589844 C 74.917969 54.574219 74.902344 54.5625 74.871094 54.546875 C 74.785156 54.488281 75.078125 54.722656 74.960938 54.605469 C 74.917969 54.5625 74.871094 54.53125 74.828125 54.488281 C 74.753906 54.429688 74.695312 54.355469 74.636719 54.28125 C 74.519531 54.152344 74.800781 54.503906 74.683594 54.339844 C 74.667969 54.3125 74.652344 54.296875 74.636719 54.269531 C 74.625 54.238281 74.609375 54.222656 74.59375 54.195312 C 74.359375 53.785156 73.761719 53.59375 73.335938 53.875 C 72.914062 54.136719 72.75 54.679688 73.015625 55.132812 C 73.585938 56.128906 74.8125 56.84375 75.953125 56.40625 C 77.636719 55.761719 78.410156 53.875 78.425781 52.175781 C 78.425781 51.75 78.398438 51.324219 78.308594 50.917969 C 78.207031 50.449219 77.636719 50.125 77.183594 50.273438 C 76.699219 50.433594 76.453125 50.886719 76.554688 51.398438 Z M 76.554688 51.398438 "/>
<path style=" stroke:none;fill-rule:nonzero;fill:rgb(0%,0%,0%);fill-opacity:1;" d="M 73.4375 51.148438 C 73.453125 51.398438 73.4375 51.648438 73.410156 51.898438 C 73.378906 52.132812 73.4375 51.722656 73.410156 51.851562 C 73.394531 51.910156 73.394531 51.984375 73.378906 52.042969 C 73.351562 52.191406 73.320312 52.320312 73.292969 52.453125 C 73.261719 52.585938 73.21875 52.714844 73.160156 52.847656 C 73.148438 52.878906 73.132812 52.90625 73.132812 52.9375 C 73.074219 53.097656 73.21875 52.761719 73.160156 52.878906 C 73.117188 52.964844 73.089844 53.039062 73.042969 53.125 C 72.972656 53.257812 72.898438 53.390625 72.808594 53.523438 C 72.78125 53.550781 72.75 53.59375 72.738281 53.625 C 72.679688 53.726562 72.882812 53.449219 72.765625 53.582031 C 72.707031 53.652344 72.648438 53.710938 72.589844 53.785156 C 72.53125 53.859375 72.460938 53.917969 72.386719 53.976562 C 72.355469 54.003906 72.328125 54.019531 72.296875 54.050781 C 72.414062 53.917969 72.402344 53.976562 72.34375 54.003906 C 72.253906 54.0625 72.167969 54.121094 72.078125 54.179688 C 72.050781 54.195312 72.007812 54.222656 71.976562 54.238281 C 71.949219 54.253906 71.917969 54.269531 71.875 54.28125 C 71.917969 54.269531 71.960938 54.253906 71.992188 54.238281 C 71.917969 54.253906 71.832031 54.296875 71.757812 54.3125 C 71.726562 54.328125 71.699219 54.328125 71.667969 54.328125 C 71.507812 54.371094 71.875 54.3125 71.757812 54.3125 C 71.699219 54.3125 71.640625 54.3125 71.582031 54.3125 C 71.449219 54.328125 71.726562 54.328125 71.714844 54.328125 C 71.683594 54.328125 71.625 54.3125 71.582031 54.296875 C 71.449219 54.269531 71.421875 54.195312 71.609375 54.328125 C 71.566406 54.296875 71.523438 54.28125 71.480469 54.253906 C 71.4375 54.222656 71.390625 54.195312 71.347656 54.167969 C 71.597656 54.296875 71.449219 54.253906 71.378906 54.167969 C 71.332031 54.121094 71.289062 54.078125 71.261719 54.035156 C 71.246094 54.019531 71.230469 54.003906 71.214844 53.992188 C 71.128906 53.886719 71.363281 54.195312 71.289062 54.078125 C 71.230469 54.003906 71.1875 53.917969 71.128906 53.828125 C 71.054688 53.699219 70.9375 53.40625 71.085938 53.785156 C 70.910156 53.347656 70.457031 52.980469 69.957031 53.140625 C 69.519531 53.289062 69.140625 53.785156 69.316406 54.269531 C 69.476562 54.664062 69.679688 55.015625 69.972656 55.335938 C 70.515625 55.9375 71.289062 56.199219 72.078125 56.070312 C 73.015625 55.90625 73.804688 55.191406 74.332031 54.445312 C 74.753906 53.84375 75.019531 53.125 75.136719 52.410156 C 75.207031 51.984375 75.265625 51.546875 75.238281 51.105469 C 75.207031 50.625 74.84375 50.167969 74.332031 50.199219 C 73.890625 50.257812 73.410156 50.636719 73.4375 51.148438 Z M 73.4375 51.148438 "/>
<path style=" stroke:none;fill-rule:nonzero;fill:rgb(0%,0%,0%);fill-opacity:1;" d="M 70.003906 50.300781 C 70.015625 50.550781 70.003906 50.800781 69.988281 51.046875 C 69.988281 51.089844 69.957031 51.296875 69.988281 51.105469 C 70.015625 50.917969 69.988281 51.136719 69.972656 51.179688 C 69.945312 51.3125 69.914062 51.457031 69.886719 51.589844 C 69.855469 51.722656 69.8125 51.851562 69.769531 51.984375 C 69.738281 52.058594 69.710938 52.132812 69.679688 52.203125 C 69.769531 51.925781 69.695312 52.175781 69.652344 52.25 C 69.578125 52.394531 69.503906 52.527344 69.417969 52.65625 C 69.375 52.714844 69.316406 52.773438 69.285156 52.847656 C 69.386719 52.65625 69.375 52.746094 69.316406 52.804688 C 69.285156 52.847656 69.242188 52.890625 69.214844 52.921875 C 69.15625 52.980469 69.097656 53.039062 69.039062 53.097656 C 69.007812 53.125 68.964844 53.15625 68.933594 53.183594 C 68.804688 53.300781 68.964844 53.199219 68.964844 53.171875 C 68.964844 53.214844 68.773438 53.300781 68.730469 53.332031 C 68.65625 53.375 68.511719 53.417969 68.453125 53.476562 C 68.46875 53.464844 68.671875 53.40625 68.527344 53.449219 C 68.480469 53.464844 68.453125 53.476562 68.410156 53.476562 C 68.304688 53.507812 68.128906 53.492188 68.410156 53.492188 C 68.335938 53.492188 68.277344 53.492188 68.203125 53.492188 C 67.984375 53.492188 68.421875 53.550781 68.21875 53.492188 C 68.203125 53.492188 68.058594 53.464844 68.042969 53.433594 C 68.042969 53.417969 68.277344 53.550781 68.160156 53.476562 C 68.144531 53.464844 68.117188 53.464844 68.101562 53.449219 C 68.058594 53.417969 68.015625 53.390625 67.957031 53.359375 C 67.851562 53.300781 68.058594 53.433594 68.058594 53.449219 C 68.058594 53.449219 68 53.390625 67.984375 53.390625 C 67.941406 53.347656 67.898438 53.300781 67.851562 53.257812 C 67.792969 53.183594 67.691406 53.023438 67.882812 53.300781 C 67.824219 53.230469 67.765625 53.140625 67.722656 53.066406 C 67.691406 53.007812 67.664062 52.949219 67.617188 52.890625 C 67.53125 52.730469 67.664062 53.007812 67.675781 53.023438 C 67.589844 52.789062 67.472656 52.613281 67.253906 52.484375 C 67.0625 52.367188 66.769531 52.320312 66.550781 52.394531 C 66.128906 52.527344 65.71875 53.039062 65.90625 53.523438 C 66.070312 53.917969 66.273438 54.269531 66.566406 54.589844 C 67.121094 55.191406 67.898438 55.441406 68.699219 55.292969 C 69.636719 55.117188 70.425781 54.371094 70.9375 53.609375 C 71.332031 53.007812 71.582031 52.308594 71.699219 51.605469 C 71.773438 51.179688 71.832031 50.726562 71.785156 50.300781 C 71.742188 49.816406 71.390625 49.363281 70.878906 49.394531 C 70.457031 49.40625 69.972656 49.789062 70.003906 50.300781 Z M 70.003906 50.300781 "/>
<path style=" stroke:none;fill-rule:nonzero;fill:rgb(0%,0%,0%);fill-opacity:1;" d="M 66.785156 49.496094 C 66.785156 49.570312 66.785156 49.640625 66.769531 49.699219 C 66.769531 49.773438 66.757812 49.847656 66.742188 49.921875 C 66.769531 49.523438 66.742188 49.90625 66.710938 50.023438 C 66.667969 50.273438 66.59375 50.519531 66.523438 50.769531 C 66.492188 50.84375 66.464844 50.917969 66.433594 50.988281 C 66.40625 51.046875 66.359375 51.121094 66.476562 50.902344 C 66.464844 50.929688 66.449219 50.960938 66.433594 50.988281 C 66.359375 51.136719 66.289062 51.296875 66.199219 51.429688 C 66.15625 51.5 66.113281 51.558594 66.070312 51.617188 C 66.039062 51.648438 66.011719 51.691406 65.996094 51.722656 C 65.996094 51.707031 66.140625 51.546875 66.039062 51.664062 C 65.921875 51.792969 65.789062 51.941406 65.660156 52.058594 C 65.628906 52.085938 65.601562 52.101562 65.570312 52.132812 C 65.511719 52.175781 65.46875 52.175781 65.617188 52.085938 C 65.542969 52.132812 65.46875 52.191406 65.394531 52.234375 C 65.308594 52.277344 65.234375 52.320312 65.148438 52.367188 C 65 52.4375 65.175781 52.351562 65.207031 52.351562 C 65.164062 52.351562 65.105469 52.394531 65.058594 52.410156 C 64.988281 52.4375 64.882812 52.4375 64.824219 52.46875 C 64.839844 52.46875 65.074219 52.453125 64.929688 52.453125 C 64.898438 52.453125 64.871094 52.453125 64.839844 52.453125 C 64.8125 52.453125 64.765625 52.453125 64.738281 52.453125 C 64.621094 52.453125 64.707031 52.394531 64.839844 52.46875 C 64.796875 52.4375 64.707031 52.425781 64.664062 52.425781 C 64.546875 52.394531 64.78125 52.46875 64.78125 52.484375 C 64.753906 52.46875 64.722656 52.453125 64.707031 52.4375 C 64.664062 52.410156 64.621094 52.378906 64.578125 52.351562 C 64.476562 52.292969 64.679688 52.425781 64.679688 52.425781 C 64.664062 52.410156 64.636719 52.378906 64.621094 52.367188 C 64.578125 52.320312 64.535156 52.277344 64.488281 52.234375 C 64.476562 52.21875 64.460938 52.203125 64.445312 52.191406 C 64.34375 52.085938 64.578125 52.394531 64.503906 52.277344 C 64.476562 52.234375 64.445312 52.191406 64.417969 52.144531 C 64.371094 52.074219 64.328125 51.984375 64.285156 51.898438 C 64.242188 51.808594 64.195312 51.648438 64.3125 51.984375 C 64.300781 51.957031 64.300781 51.941406 64.285156 51.910156 C 64.269531 51.882812 64.269531 51.867188 64.253906 51.839844 C 64.109375 51.382812 63.613281 51.046875 63.128906 51.195312 C 62.675781 51.339844 62.339844 51.824219 62.484375 52.320312 C 62.808594 53.390625 63.773438 54.371094 64.957031 54.253906 C 66.757812 54.09375 68 52.394531 68.410156 50.753906 C 68.511719 50.332031 68.585938 49.890625 68.597656 49.453125 C 68.597656 48.96875 68.175781 48.515625 67.691406 48.542969 C 67.195312 48.601562 66.785156 48.96875 66.785156 49.496094 Z M 66.785156 49.496094 "/>
<path style=" stroke:none;fill-rule:nonzero;fill:rgb(0%,0%,0%);fill-opacity:1;" d="M 63.789062 48.296875 C 63.789062 48.367188 63.773438 48.441406 63.773438 48.515625 C 63.757812 48.632812 63.816406 48.222656 63.789062 48.382812 C 63.773438 48.425781 63.773438 48.472656 63.757812 48.53125 C 63.742188 48.632812 63.714844 48.734375 63.699219 48.835938 C 63.640625 49.085938 63.566406 49.335938 63.464844 49.582031 C 63.378906 49.804688 63.554688 49.421875 63.453125 49.597656 C 63.421875 49.671875 63.394531 49.730469 63.347656 49.804688 C 63.277344 49.949219 63.1875 50.082031 63.101562 50.214844 C 63.042969 50.285156 62.894531 50.433594 63.070312 50.257812 C 63.011719 50.316406 62.96875 50.390625 62.910156 50.449219 C 62.851562 50.507812 62.792969 50.566406 62.734375 50.625 C 62.707031 50.652344 62.53125 50.785156 62.53125 50.8125 C 62.53125 50.769531 62.691406 50.695312 62.558594 50.800781 C 62.53125 50.828125 62.5 50.84375 62.457031 50.871094 C 62.382812 50.917969 62.3125 50.976562 62.222656 51.019531 C 62.179688 51.03125 62.148438 51.0625 62.105469 51.078125 C 62.089844 51.089844 62.0625 51.089844 62.046875 51.105469 C 61.972656 51.136719 61.972656 51.136719 62.046875 51.105469 C 62.0625 51.089844 62.078125 51.089844 62.105469 51.078125 C 62.078125 51.089844 62.03125 51.105469 62.003906 51.121094 C 61.960938 51.136719 61.902344 51.148438 61.855469 51.164062 C 61.828125 51.179688 61.796875 51.179688 61.753906 51.179688 C 61.609375 51.207031 61.84375 51.164062 61.855469 51.164062 C 61.796875 51.148438 61.695312 51.164062 61.636719 51.164062 C 61.492188 51.164062 61.886719 51.222656 61.683594 51.164062 C 61.625 51.148438 61.566406 51.121094 61.507812 51.105469 C 61.695312 51.136719 61.695312 51.195312 61.609375 51.148438 C 61.578125 51.136719 61.550781 51.121094 61.535156 51.105469 C 61.519531 51.089844 61.492188 51.078125 61.476562 51.0625 C 61.375 51.003906 61.578125 51.136719 61.578125 51.148438 C 61.507812 51.0625 61.417969 50.988281 61.34375 50.917969 C 61.300781 50.859375 61.300781 50.800781 61.433594 51.019531 C 61.417969 50.988281 61.390625 50.960938 61.375 50.945312 C 61.34375 50.902344 61.316406 50.859375 61.300781 50.8125 C 61.285156 50.785156 61.15625 50.566406 61.171875 50.550781 C 61.171875 50.550781 61.273438 50.828125 61.214844 50.652344 C 61.199219 50.625 61.199219 50.609375 61.183594 50.578125 C 61.171875 50.550781 61.171875 50.535156 61.15625 50.507812 C 61.039062 50.039062 60.496094 49.714844 60.03125 49.863281 C 59.5625 50.023438 59.253906 50.492188 59.386719 50.988281 C 59.664062 52.058594 60.601562 53.039062 61.769531 52.996094 C 62.71875 52.964844 63.640625 52.394531 64.253906 51.675781 C 64.765625 51.078125 65.132812 50.375 65.367188 49.597656 C 65.484375 49.175781 65.570312 48.71875 65.601562 48.28125 C 65.628906 47.796875 65.164062 47.34375 64.695312 47.375 C 64.183594 47.402344 63.800781 47.785156 63.789062 48.296875 Z M 63.789062 48.296875 "/>
<path style=" stroke:none;fill-rule:nonzero;fill:rgb(0%,0%,0%);fill-opacity:1;" d="M 59.679688 45.164062 C 59.707031 45.265625 59.722656 45.367188 59.738281 45.46875 C 59.75 45.527344 59.75 45.574219 59.765625 45.632812 C 59.796875 45.777344 59.75 45.527344 59.75 45.527344 C 59.765625 45.527344 59.765625 45.632812 59.765625 45.660156 C 59.78125 45.835938 59.796875 45.996094 59.808594 46.171875 C 59.855469 47.242188 59.765625 47.988281 59.460938 49 C 59.285156 49.613281 59.035156 50.183594 58.726562 50.742188 C 58.433594 51.265625 58.085938 51.824219 57.601562 52.203125 C 57.703125 52.132812 57.425781 52.308594 57.398438 52.320312 C 57.367188 52.335938 57.222656 52.410156 57.324219 52.367188 C 57.425781 52.320312 57.28125 52.378906 57.265625 52.378906 C 57.222656 52.394531 56.945312 52.453125 57.074219 52.4375 C 57.191406 52.425781 56.886719 52.425781 56.839844 52.4375 C 56.722656 52.453125 56.988281 52.496094 56.898438 52.4375 C 56.871094 52.425781 56.8125 52.425781 56.78125 52.410156 C 56.738281 52.394531 56.710938 52.378906 56.664062 52.367188 C 56.550781 52.351562 56.796875 52.453125 56.710938 52.378906 C 56.652344 52.335938 56.550781 52.292969 56.492188 52.25 C 56.460938 52.234375 56.359375 52.144531 56.445312 52.21875 C 56.5625 52.308594 56.386719 52.160156 56.375 52.144531 C 56.300781 52.074219 56.242188 52 56.167969 51.925781 C 56.328125 52.101562 56.125 51.851562 56.082031 51.78125 C 56.023438 51.675781 55.980469 51.589844 55.933594 51.488281 C 56.023438 51.675781 55.921875 51.441406 55.90625 51.371094 C 55.875 51.28125 55.875 51.179688 55.832031 51.089844 C 55.890625 51.265625 55.847656 51.222656 55.847656 51.148438 C 55.847656 51.089844 55.832031 51.019531 55.832031 50.960938 C 55.832031 50.917969 55.832031 50.871094 55.832031 50.84375 C 55.816406 50.667969 55.773438 51.019531 55.832031 50.84375 C 55.863281 50.742188 55.875 50.652344 55.921875 50.550781 C 56.09375 50.082031 55.730469 49.554688 55.277344 49.421875 C 54.765625 49.277344 54.324219 49.597656 54.152344 50.066406 C 53.375 52.144531 55.453125 54.75 57.660156 54.179688 C 59.167969 53.785156 60.132812 52.203125 60.714844 50.886719 C 61.285156 49.597656 61.625 48.238281 61.667969 46.832031 C 61.683594 46.128906 61.652344 45.367188 61.460938 44.695312 C 61.332031 44.210938 60.804688 43.917969 60.335938 44.050781 C 59.839844 44.183594 59.546875 44.695312 59.679688 45.164062 Z M 59.679688 45.164062 "/>
<path style=" stroke:none;fill-rule:nonzero;fill:rgb(0%,0%,0%);fill-opacity:1;" d="M 27.375 35.132812 C 24.421875 37.460938 21.804688 40.699219 20.3125 44.152344 C 19.171875 46.832031 18.894531 49.746094 17.535156 52.367188 C 17.066406 53.273438 16.507812 54.28125 15.734375 54.972656 C 14.945312 55.675781 15.953125 56.902344 16.847656 56.40625 C 18.734375 55.351562 20.488281 53.976562 22.140625 52.585938 C 25.738281 49.511719 28.835938 45.792969 31.015625 41.574219 C 31.558594 40.535156 29.976562 39.601562 29.4375 40.652344 C 26.496094 46.378906 21.597656 51.675781 15.9375 54.839844 C 16.304688 55.324219 16.671875 55.789062 17.050781 56.273438 C 17.839844 55.570312 18.441406 54.574219 18.9375 53.667969 C 19.535156 52.570312 20.019531 51.398438 20.429688 50.214844 C 20.941406 48.71875 21.175781 47.140625 21.699219 45.660156 C 22.972656 42.074219 25.722656 38.78125 28.691406 36.4375 C 29.597656 35.707031 28.296875 34.417969 27.375 35.132812 Z M 27.375 35.132812 "/>
<path style=" stroke:none;fill-rule:nonzero;fill:rgb(0%,0%,0%);fill-opacity:1;" d="M 29.992188 41.3125 C 27.214844 43.949219 24.859375 47.445312 23.691406 51.089844 C 22.8125 53.828125 22.796875 56.714844 21.714844 59.421875 C 21.351562 60.34375 20.707031 61.601562 20.210938 62.128906 C 19.535156 62.863281 20.429688 64.179688 21.320312 63.566406 C 27.007812 59.683594 31.628906 53.652344 34.203125 47.316406 C 34.644531 46.214844 32.875 45.75 32.433594 46.832031 C 30.722656 51.0625 28.0625 54.839844 24.875 58.089844 C 23.484375 59.496094 21.992188 60.898438 20.398438 62 C 20.765625 62.480469 21.128906 62.949219 21.511719 63.433594 C 24.15625 60.578125 24.304688 56.332031 25.136719 52.773438 C 26.03125 48.953125 28.472656 45.292969 31.292969 42.617188 C 32.140625 41.796875 30.855469 40.507812 29.992188 41.3125 Z M 29.992188 41.3125 "/>
<path style=" stroke:none;fill-rule:nonzero;fill:rgb(0%,0%,0%);fill-opacity:1;" d="M 33.882812 44.402344 C 31.964844 47.183594 30.621094 50.652344 30.34375 54.035156 C 30.09375 57.078125 31.015625 60.898438 29.4375 63.550781 C 28.910156 64.429688 30.152344 65.421875 30.871094 64.664062 C 34.875 60.445312 37.699219 54.605469 38.695312 48.910156 C 38.898438 47.753906 37.128906 47.269531 36.925781 48.425781 C 35.972656 53.828125 33.371094 59.378906 29.570312 63.375 C 30.050781 63.738281 30.519531 64.105469 31 64.488281 C 32.609375 61.777344 32.171875 58.234375 32.113281 55.265625 C 32.054688 51.808594 33.503906 48.179688 35.445312 45.339844 C 36.121094 44.359375 34.539062 43.433594 33.882812 44.402344 Z M 33.882812 44.402344 "/>
<path style=" stroke:none;fill-rule:nonzero;fill:rgb(0%,0%,0%);fill-opacity:1;" d="M 37.773438 45.925781 C 36.515625 49.011719 35.914062 52.65625 36.355469 55.964844 C 36.761719 59.039062 38.519531 62.421875 37.464844 65.585938 C 37.113281 66.640625 38.5625 67.0625 39.132812 66.289062 C 40.125 64.957031 40.859375 63.390625 41.488281 61.867188 C 42.949219 58.292969 43.621094 54.429688 43.460938 50.578125 C 43.417969 49.40625 41.589844 49.394531 41.632812 50.578125 C 41.824219 55.601562 40.625 61.265625 37.554688 65.363281 C 38.109375 65.597656 38.664062 65.832031 39.21875 66.066406 C 40.242188 63.007812 38.957031 59.597656 38.296875 56.640625 C 37.566406 53.332031 38.253906 49.523438 39.511719 46.421875 C 39.980469 45.308594 38.210938 44.839844 37.773438 45.925781 Z M 37.773438 45.925781 "/>
<path style=" stroke:none;fill-rule:nonzero;fill:rgb(0%,0%,0%);fill-opacity:1;" d="M 42.511719 50.433594 C 42.011719 52.964844 42.042969 55.789062 42.789062 58.265625 C 43.535156 60.695312 45.523438 63.066406 45.15625 65.761719 C 45.039062 66.667969 46.472656 66.988281 46.851562 66.230469 C 49.003906 61.925781 49.734375 56.582031 48.652344 51.898438 C 48.390625 50.753906 46.621094 51.238281 46.882812 52.378906 C 47.863281 56.566406 47.132812 61.558594 45.257812 65.308594 C 45.828125 65.46875 46.398438 65.613281 46.957031 65.773438 C 47.308594 63.15625 45.625 60.753906 44.734375 58.441406 C 43.839844 56.128906 43.78125 53.242188 44.234375 50.945312 C 44.5 49.757812 42.746094 49.277344 42.511719 50.433594 Z M 42.511719 50.433594 "/>
<path style=" stroke:none;fill-rule:nonzero;fill:rgb(0%,0%,0%);fill-opacity:1;" d="M 47.628906 53.113281 C 47.65625 55.03125 48.125 57.050781 49.003906 58.761719 C 49.691406 60.125 50.847656 61.148438 51.546875 62.511719 C 51.765625 62.921875 51.914062 63.273438 52.03125 63.726562 C 52.058594 63.84375 52.074219 63.972656 52.117188 64.089844 C 52.175781 64.28125 52.089844 63.84375 52.101562 64.003906 C 52.132812 64.457031 52.425781 64.851562 52.894531 64.898438 C 53.300781 64.941406 53.828125 64.691406 53.902344 64.238281 C 54.441406 60.445312 53.902344 56.316406 52.25 52.878906 C 51.738281 51.808594 50.171875 52.746094 50.671875 53.800781 C 51.679688 55.90625 52.117188 58.265625 52.21875 60.578125 C 52.25 61.382812 52.25 62.171875 52.191406 62.980469 C 52.175781 63.214844 52.160156 63.449219 52.132812 63.683594 C 52.117188 63.871094 52.074219 64.089844 52.132812 63.753906 C 52.730469 63.84375 53.332031 63.914062 53.929688 64.003906 C 53.871094 63.316406 53.625 62.65625 53.347656 62.042969 C 53.054688 61.398438 52.6875 60.796875 52.277344 60.226562 C 51.824219 59.597656 51.285156 59.039062 50.875 58.367188 C 49.925781 56.785156 49.484375 54.855469 49.457031 53.113281 C 49.441406 51.925781 47.613281 51.925781 47.628906 53.113281 Z M 47.628906 53.113281 "/>
<path style=" stroke:none;fill-rule:nonzero;fill:rgb(0%,0%,0%);fill-opacity:1;" d="M 56.183594 54.09375 C 56.183594 54.167969 56.167969 54.238281 56.167969 54.3125 C 56.152344 54.429688 56.210938 54.019531 56.183594 54.179688 C 56.167969 54.222656 56.167969 54.269531 56.152344 54.328125 C 56.140625 54.429688 56.109375 54.53125 56.09375 54.632812 C 56.035156 54.882812 55.964844 55.132812 55.863281 55.382812 C 55.773438 55.601562 55.949219 55.21875 55.847656 55.394531 C 55.816406 55.46875 55.789062 55.527344 55.746094 55.601562 C 55.671875 55.746094 55.582031 55.878906 55.496094 56.011719 C 55.4375 56.082031 55.292969 56.230469 55.464844 56.054688 C 55.410156 56.113281 55.363281 56.1875 55.304688 56.246094 C 55.246094 56.304688 55.1875 56.363281 55.128906 56.421875 C 55.101562 56.449219 54.925781 56.582031 54.925781 56.609375 C 54.925781 56.566406 55.085938 56.492188 54.953125 56.597656 C 54.925781 56.625 54.894531 56.640625 54.851562 56.667969 C 54.78125 56.714844 54.707031 56.773438 54.617188 56.816406 C 54.574219 56.832031 54.546875 56.859375 54.5 56.875 C 54.488281 56.890625 54.457031 56.890625 54.441406 56.902344 C 54.371094 56.933594 54.371094 56.933594 54.441406 56.902344 C 54.457031 56.890625 54.472656 56.890625 54.5 56.875 C 54.472656 56.890625 54.429688 56.902344 54.398438 56.917969 C 54.355469 56.933594 54.296875 56.949219 54.253906 56.960938 C 54.222656 56.976562 54.195312 56.976562 54.152344 56.976562 C 54.003906 57.007812 54.238281 56.960938 54.253906 56.960938 C 54.195312 56.949219 54.09375 56.960938 54.035156 56.960938 C 53.886719 56.960938 54.28125 57.019531 54.078125 56.960938 C 54.019531 56.949219 53.960938 56.917969 53.902344 56.902344 C 54.09375 56.933594 54.09375 56.992188 54.003906 56.949219 C 53.976562 56.933594 53.945312 56.917969 53.929688 56.902344 C 53.917969 56.890625 53.886719 56.875 53.871094 56.859375 C 53.769531 56.800781 53.976562 56.933594 53.976562 56.949219 C 53.902344 56.859375 53.8125 56.785156 53.742188 56.714844 C 53.699219 56.65625 53.699219 56.597656 53.828125 56.816406 C 53.8125 56.785156 53.785156 56.757812 53.769531 56.742188 C 53.742188 56.699219 53.710938 56.65625 53.699219 56.609375 C 53.683594 56.582031 53.550781 56.363281 53.566406 56.347656 C 53.566406 56.347656 53.667969 56.625 53.609375 56.449219 C 53.59375 56.421875 53.59375 56.40625 53.582031 56.375 C 53.566406 56.347656 53.566406 56.332031 53.550781 56.304688 C 53.433594 55.835938 52.894531 55.511719 52.425781 55.660156 C 51.957031 55.820312 51.648438 56.289062 51.78125 56.785156 C 52.058594 57.855469 52.996094 58.835938 54.164062 58.792969 C 55.117188 58.761719 56.035156 58.191406 56.652344 57.472656 C 57.164062 56.875 57.527344 56.171875 57.761719 55.394531 C 57.878906 54.972656 57.96875 54.515625 57.996094 54.078125 C 58.027344 53.59375 57.558594 53.140625 57.089844 53.171875 C 56.578125 53.199219 56.210938 53.582031 56.183594 54.09375 Z M 56.183594 54.09375 "/>
<path style=" stroke:none;fill-rule:nonzero;fill:rgb(0%,0%,0%);fill-opacity:1;" d="M 59.882812 52.351562 C 59.898438 52.425781 59.914062 52.511719 59.925781 52.585938 C 59.925781 52.628906 59.941406 52.65625 59.941406 52.703125 C 59.957031 52.789062 59.914062 52.425781 59.925781 52.65625 C 59.941406 52.789062 59.957031 52.90625 59.957031 53.039062 C 59.972656 53.359375 59.957031 53.699219 59.925781 54.019531 C 59.925781 54.050781 59.925781 54.121094 59.914062 54.152344 C 59.972656 53.992188 59.925781 54.050781 59.914062 54.109375 C 59.898438 54.210938 59.882812 54.328125 59.855469 54.429688 C 59.808594 54.648438 59.765625 54.855469 59.691406 55.074219 C 59.445312 55.894531 59.035156 56.800781 58.363281 57.355469 C 58.550781 57.210938 58.304688 57.386719 58.261719 57.414062 C 58.070312 57.53125 58.421875 57.386719 58.214844 57.429688 C 58.1875 57.445312 57.9375 57.488281 58.113281 57.460938 C 58.261719 57.445312 58.15625 57.460938 58.113281 57.460938 C 58.070312 57.460938 58.011719 57.460938 57.96875 57.460938 C 57.851562 57.460938 58.171875 57.519531 58.070312 57.472656 C 58.039062 57.460938 58.011719 57.460938 57.980469 57.445312 C 57.953125 57.429688 57.921875 57.414062 57.894531 57.414062 C 57.792969 57.386719 58.070312 57.519531 57.980469 57.445312 C 57.9375 57.414062 57.863281 57.386719 57.820312 57.34375 C 57.792969 57.328125 57.691406 57.253906 57.820312 57.34375 C 57.953125 57.429688 57.804688 57.328125 57.792969 57.300781 C 57.761719 57.269531 57.675781 57.136719 57.644531 57.136719 C 57.734375 57.152344 57.761719 57.300781 57.703125 57.210938 C 57.675781 57.167969 57.644531 57.125 57.617188 57.09375 C 57.585938 57.050781 57.542969 56.902344 57.5 56.875 C 57.515625 56.890625 57.574219 57.09375 57.542969 56.960938 C 57.527344 56.917969 57.515625 56.890625 57.5 56.84375 C 57.484375 56.785156 57.484375 56.683594 57.457031 56.640625 C 57.527344 56.742188 57.46875 56.84375 57.46875 56.742188 C 57.46875 56.699219 57.46875 56.65625 57.46875 56.597656 C 57.46875 56.566406 57.46875 56.539062 57.46875 56.507812 C 57.457031 56.347656 57.410156 56.714844 57.457031 56.566406 C 57.46875 56.492188 57.484375 56.421875 57.515625 56.347656 C 57.675781 55.894531 57.324219 55.324219 56.871094 55.21875 C 56.359375 55.101562 55.921875 55.382812 55.746094 55.863281 C 55.464844 56.625 55.699219 57.578125 56.167969 58.222656 C 56.753906 58.996094 57.660156 59.464844 58.640625 59.214844 C 59.824219 58.910156 60.585938 57.707031 61.054688 56.65625 C 61.492188 55.660156 61.753906 54.605469 61.785156 53.523438 C 61.796875 52.980469 61.769531 52.394531 61.625 51.867188 C 61.507812 51.398438 60.964844 51.078125 60.496094 51.222656 C 60.042969 51.382812 59.75 51.851562 59.882812 52.351562 Z M 59.882812 52.351562 "/>
<path style=" stroke:none;fill-rule:nonzero;fill:rgb(0%,0%,0%);fill-opacity:1;" d="M 63.773438 53.625 C 63.789062 53.667969 63.800781 53.710938 63.816406 53.757812 C 63.847656 53.902344 63.832031 53.945312 63.816406 53.683594 C 63.816406 53.757812 63.832031 53.828125 63.832031 53.917969 C 63.832031 54.003906 63.832031 54.09375 63.816406 54.195312 C 63.816406 54.222656 63.816406 54.238281 63.816406 54.269531 C 63.800781 54.414062 63.859375 54.050781 63.832031 54.152344 C 63.816406 54.210938 63.816406 54.269531 63.800781 54.328125 C 63.773438 54.457031 63.730469 54.589844 63.683594 54.722656 C 63.65625 54.78125 63.640625 54.855469 63.613281 54.914062 C 63.566406 55.058594 63.625 54.855469 63.640625 54.855469 C 63.613281 54.898438 63.597656 54.957031 63.566406 55.015625 C 63.394531 55.394531 63.160156 55.734375 62.925781 56.070312 C 62.910156 56.097656 62.824219 56.199219 62.925781 56.082031 C 62.894531 56.128906 62.851562 56.171875 62.824219 56.214844 C 62.765625 56.289062 62.691406 56.363281 62.617188 56.433594 C 62.589844 56.464844 62.542969 56.492188 62.515625 56.539062 C 62.5 56.550781 62.339844 56.699219 62.457031 56.597656 C 62.542969 56.507812 62.457031 56.597656 62.425781 56.625 C 62.382812 56.65625 62.324219 56.699219 62.28125 56.726562 C 62.253906 56.742188 62.207031 56.773438 62.179688 56.785156 C 62.0625 56.84375 62.089844 56.773438 62.222656 56.773438 C 62.164062 56.773438 62.078125 56.816406 62.03125 56.832031 C 62.003906 56.84375 61.972656 56.84375 61.929688 56.84375 C 61.785156 56.875 62.019531 56.832031 62.03125 56.832031 C 61.972656 56.816406 61.871094 56.832031 61.796875 56.832031 C 61.652344 56.832031 61.902344 56.84375 61.902344 56.84375 C 61.871094 56.832031 61.828125 56.832031 61.796875 56.832031 C 61.742188 56.816406 61.683594 56.800781 61.636719 56.785156 C 61.449219 56.726562 61.84375 56.890625 61.636719 56.785156 C 61.609375 56.773438 61.492188 56.667969 61.460938 56.667969 C 61.476562 56.667969 61.636719 56.832031 61.550781 56.726562 C 61.519531 56.699219 61.492188 56.667969 61.460938 56.640625 C 61.417969 56.597656 61.375 56.523438 61.332031 56.492188 C 61.34375 56.492188 61.460938 56.699219 61.402344 56.582031 C 61.390625 56.550781 61.359375 56.507812 61.34375 56.480469 C 61.332031 56.449219 61.316406 56.433594 61.300781 56.40625 C 61.257812 56.316406 61.285156 56.246094 61.332031 56.480469 C 61.316406 56.421875 61.285156 56.375 61.285156 56.316406 C 61.285156 56.304688 61.257812 56.230469 61.273438 56.230469 C 61.285156 56.214844 61.285156 56.507812 61.285156 56.347656 C 61.285156 56.316406 61.285156 56.289062 61.285156 56.257812 C 61.285156 56.128906 61.242188 56.480469 61.273438 56.375 C 61.300781 56.289062 61.390625 56.082031 61.242188 56.375 C 61.449219 55.9375 61.375 55.367188 60.921875 55.117188 C 60.511719 54.898438 59.882812 54.984375 59.664062 55.441406 C 59.285156 56.273438 59.488281 57.125 60.074219 57.796875 C 60.65625 58.46875 61.578125 58.734375 62.425781 58.574219 C 63.507812 58.367188 64.269531 57.414062 64.824219 56.550781 C 65.277344 55.835938 65.585938 55.042969 65.675781 54.210938 C 65.703125 53.859375 65.703125 53.449219 65.570312 53.113281 C 65.484375 52.878906 65.382812 52.703125 65.148438 52.570312 C 64.957031 52.453125 64.664062 52.410156 64.445312 52.484375 C 63.976562 52.644531 63.566406 53.15625 63.773438 53.625 Z M 63.773438 53.625 "/>
<path style=" stroke:none;fill-rule:nonzero;fill:rgb(0%,0%,0%);fill-opacity:1;" d="M 66.84375 54.765625 C 66.667969 54.386719 66.757812 54.546875 66.785156 54.664062 C 66.816406 54.765625 66.800781 54.925781 66.769531 54.5625 C 66.769531 54.621094 66.785156 54.679688 66.785156 54.738281 C 66.785156 54.808594 66.769531 54.882812 66.769531 54.957031 C 66.769531 55.058594 66.816406 54.679688 66.785156 54.824219 C 66.785156 54.839844 66.785156 54.867188 66.769531 54.882812 C 66.757812 54.925781 66.757812 54.984375 66.742188 55.03125 C 66.710938 55.132812 66.683594 55.234375 66.652344 55.324219 C 66.582031 55.511719 66.757812 55.117188 66.667969 55.308594 C 66.640625 55.367188 66.609375 55.441406 66.566406 55.5 C 66.492188 55.628906 66.417969 55.746094 66.347656 55.863281 C 66.304688 55.9375 66.257812 55.996094 66.214844 56.054688 C 66.128906 56.1875 66.230469 56.023438 66.246094 56.023438 C 66.199219 56.054688 66.140625 56.140625 66.113281 56.1875 C 65.996094 56.316406 65.878906 56.433594 65.761719 56.550781 C 65.6875 56.625 65.703125 56.539062 65.820312 56.523438 C 65.804688 56.523438 65.746094 56.582031 65.734375 56.582031 C 65.675781 56.625 65.601562 56.667969 65.527344 56.699219 C 65.335938 56.800781 65.71875 56.640625 65.527344 56.699219 C 65.46875 56.714844 65.410156 56.726562 65.351562 56.742188 C 65.164062 56.785156 65.570312 56.726562 65.382812 56.742188 C 65.324219 56.742188 65.265625 56.742188 65.207031 56.742188 C 65.074219 56.742188 65.324219 56.757812 65.335938 56.757812 C 65.335938 56.757812 65.277344 56.742188 65.265625 56.742188 C 65.21875 56.726562 65.164062 56.714844 65.117188 56.699219 C 64.914062 56.625 65.308594 56.800781 65.148438 56.714844 C 65.105469 56.683594 65.058594 56.65625 65 56.625 C 64.824219 56.507812 65.164062 56.785156 65.015625 56.640625 C 64.972656 56.609375 64.941406 56.566406 64.914062 56.523438 C 64.8125 56.40625 65.046875 56.726562 64.941406 56.566406 C 64.929688 56.550781 64.855469 56.449219 64.871094 56.421875 C 64.882812 56.40625 64.957031 56.667969 64.929688 56.550781 C 64.929688 56.523438 64.914062 56.507812 64.914062 56.480469 C 64.871094 56.273438 64.914062 56.683594 64.929688 56.566406 C 64.929688 56.550781 64.929688 56.523438 64.929688 56.507812 C 64.914062 56.40625 64.871094 56.742188 64.914062 56.640625 C 64.988281 56.433594 64.824219 56.800781 64.882812 56.699219 C 65.105469 56.273438 65.015625 55.6875 64.5625 55.441406 C 64.152344 55.21875 63.539062 55.308594 63.304688 55.761719 C 62.9375 56.480469 63.144531 57.253906 63.671875 57.824219 C 64.210938 58.410156 65.03125 58.617188 65.789062 58.46875 C 66.710938 58.308594 67.371094 57.5625 67.882812 56.832031 C 68.292969 56.246094 68.554688 55.585938 68.628906 54.882812 C 68.65625 54.503906 68.597656 54.136719 68.4375 53.785156 C 68.351562 53.59375 68.085938 53.417969 67.898438 53.359375 C 67.675781 53.300781 67.386719 53.332031 67.195312 53.449219 C 67.003906 53.582031 66.828125 53.757812 66.769531 53.992188 C 66.683594 54.3125 66.726562 54.53125 66.84375 54.765625 Z M 66.84375 54.765625 "/>
<path style=" stroke:none;fill-rule:nonzero;fill:rgb(0%,0%,0%);fill-opacity:1;" d="M 122.984375 47.929688 C 126.347656 47.738281 129.769531 46.582031 132.738281 45.058594 C 135.558594 43.609375 138.148438 41.605469 140.179688 39.144531 C 142.507812 36.363281 143.777344 32.925781 146.484375 30.449219 C 152.902344 24.578125 164.28125 24.097656 170.699219 29.863281 C 171.285156 30.390625 173.875 32.75 173.304688 33.683594 C 173.011719 34.167969 171.285156 33.789062 170.816406 33.699219 C 168.566406 33.304688 166.3125 32.148438 164.382812 30.992188 C 163.375 30.390625 162.453125 31.972656 163.460938 32.574219 C 165.347656 33.699219 172.792969 37.859375 174.867188 34.667969 C 176.390625 32.324219 172.570312 28.972656 171.035156 27.785156 C 168.695312 25.984375 165.859375 24.828125 162.949219 24.316406 C 162.746094 24.285156 162.554688 24.257812 162.351562 24.226562 C 162.921875 24.316406 162.1875 24.199219 162.160156 24.199219 C 161.515625 24.125 160.875 24.066406 160.230469 24.050781 C 157.730469 23.980469 155.199219 24.257812 152.785156 24.960938 C 149.757812 25.839844 146.9375 27.390625 144.683594 29.617188 C 141.6875 32.585938 140.285156 36.65625 137.226562 39.613281 C 133.542969 43.171875 128.144531 45.808594 122.953125 46.085938 C 121.8125 46.171875 121.800781 48.003906 122.984375 47.929688 Z M 122.984375 47.929688 "/>
<path style=" stroke:none;fill-rule:nonzero;fill:rgb(0%,0%,0%);fill-opacity:1;" d="M 157.539062 34.269531 C 159.746094 37.109375 162.847656 39.554688 166.152344 40.945312 C 167.6875 41.589844 170.203125 42.484375 171.417969 40.785156 C 172.222656 39.671875 171.914062 38.078125 171.5625 36.847656 C 171.269531 35.835938 170.875 34.84375 170.394531 33.90625 C 169.851562 32.851562 168.273438 33.789062 168.8125 34.828125 C 168.917969 35.03125 169.003906 35.238281 169.105469 35.441406 C 169.148438 35.53125 169.195312 35.632812 169.222656 35.71875 C 169.3125 35.925781 169.164062 35.589844 169.222656 35.71875 C 169.253906 35.777344 169.265625 35.835938 169.296875 35.882812 C 169.398438 36.144531 169.5 36.421875 169.605469 36.6875 C 169.808594 37.257812 169.96875 37.859375 170.070312 38.457031 C 170.101562 38.617188 170.058594 38.238281 170.070312 38.5 C 170.085938 38.574219 170.085938 38.664062 170.085938 38.734375 C 170.101562 38.867188 170.085938 38.984375 170.085938 39.117188 C 170.085938 39.160156 170.085938 39.21875 170.070312 39.261719 C 170.058594 39.496094 170.117188 39.074219 170.070312 39.308594 C 170.042969 39.4375 170.011719 39.570312 169.96875 39.6875 C 170.058594 39.453125 169.925781 39.746094 169.882812 39.804688 C 170.070312 39.527344 169.648438 39.996094 169.894531 39.777344 C 169.851562 39.804688 169.777344 39.863281 169.71875 39.878906 C 169.910156 39.820312 169.792969 39.847656 169.75 39.863281 C 169.675781 39.890625 169.605469 39.90625 169.53125 39.921875 C 169.734375 39.878906 169.488281 39.921875 169.441406 39.921875 C 168.550781 39.921875 167.585938 39.585938 166.722656 39.203125 C 164.734375 38.355469 162.933594 37.066406 161.339844 35.617188 C 160.449219 34.8125 159.585938 33.933594 158.855469 32.984375 C 158.546875 32.585938 157.875 32.660156 157.570312 32.984375 C 157.144531 33.363281 157.230469 33.875 157.539062 34.269531 Z M 157.539062 34.269531 "/>
<path style=" stroke:none;fill-rule:nonzero;fill:rgb(0%,0%,0%);fill-opacity:1;" d="M 153.050781 37.695312 C 154.394531 39.820312 155.972656 41.972656 157.875 43.625 C 159.292969 44.871094 161.105469 45.75 162.992188 45.984375 C 164.324219 46.144531 165.992188 45.894531 166.636719 44.5625 C 167.425781 42.910156 167.175781 40.550781 166.035156 39.132812 C 165.726562 38.75 165.070312 38.808594 164.75 39.132812 C 164.367188 39.511719 164.441406 40.039062 164.75 40.417969 C 165.363281 41.195312 165.390625 42.792969 165.054688 43.640625 C 165.042969 43.683594 164.878906 43.960938 164.9375 43.875 C 164.851562 44.007812 164.984375 43.859375 164.867188 43.949219 C 164.703125 44.050781 164.777344 44.007812 164.660156 44.050781 C 164.527344 44.09375 164.398438 44.136719 164.265625 44.167969 C 163.753906 44.269531 163.097656 44.195312 162.539062 44.066406 C 159.644531 43.363281 157.714844 41.09375 156.003906 38.78125 C 155.519531 38.136719 155.054688 37.460938 154.613281 36.789062 C 154 35.777344 152.421875 36.699219 153.050781 37.695312 Z M 153.050781 37.695312 "/>
<path style=" stroke:none;fill-rule:nonzero;fill:rgb(0%,0%,0%);fill-opacity:1;" d="M 148.253906 40.300781 C 148.839844 43.128906 150.417969 46.011719 152.550781 47.945312 C 154.132812 49.378906 156.484375 50.742188 158.695312 50.402344 C 160.1875 50.167969 161.105469 48.910156 161.386719 47.492188 C 161.589844 46.464844 161.589844 45.382812 161.414062 44.34375 C 161.328125 43.859375 160.726562 43.582031 160.289062 43.699219 C 159.777344 43.84375 159.570312 44.328125 159.644531 44.824219 C 159.675781 45.03125 159.644531 44.765625 159.644531 44.78125 C 159.660156 44.941406 159.675781 45.105469 159.6875 45.265625 C 159.71875 45.734375 159.703125 46.1875 159.675781 46.65625 C 159.675781 46.699219 159.628906 46.949219 159.675781 46.714844 C 159.675781 46.757812 159.660156 46.816406 159.644531 46.859375 C 159.617188 46.992188 159.585938 47.140625 159.558594 47.269531 C 159.527344 47.386719 159.484375 47.519531 159.441406 47.636719 C 159.425781 47.679688 159.351562 47.839844 159.441406 47.667969 C 159.410156 47.738281 159.367188 47.828125 159.324219 47.898438 C 159.089844 48.308594 158.871094 48.484375 158.445312 48.601562 C 158.269531 48.648438 157.964844 48.660156 157.625 48.617188 C 157.246094 48.574219 156.75 48.414062 156.339844 48.25 C 155.417969 47.886719 154.554688 47.328125 153.824219 46.671875 C 152.539062 45.5 151.585938 44.019531 150.871094 42.441406 C 150.550781 41.707031 150.183594 40.726562 149.992188 39.832031 C 149.773438 38.664062 148.003906 39.144531 148.253906 40.300781 Z M 148.253906 40.300781 "/>
<path style=" stroke:none;fill-rule:nonzero;fill:rgb(0%,0%,0%);fill-opacity:1;" d="M 143.324219 43.097656 C 143.398438 45.644531 144.363281 48.308594 145.957031 50.285156 C 147.171875 51.78125 149.101562 53.140625 151.074219 53.242188 C 152.597656 53.316406 153.707031 52.335938 154.261719 51.003906 C 154.585938 50.214844 154.746094 49.320312 154.746094 48.472656 C 154.746094 47.300781 152.917969 47.285156 152.917969 48.472656 C 152.917969 48.648438 152.902344 48.824219 152.890625 49.011719 C 152.875 49.085938 152.832031 49.394531 152.890625 49.070312 C 152.875 49.160156 152.859375 49.246094 152.84375 49.335938 C 152.800781 49.554688 152.757812 49.789062 152.683594 50.007812 C 152.65625 50.125 152.609375 50.226562 152.566406 50.34375 C 152.480469 50.59375 152.625 50.257812 152.507812 50.476562 C 152.449219 50.578125 152.40625 50.683594 152.332031 50.785156 C 152.304688 50.828125 152.273438 50.871094 152.246094 50.917969 C 152.15625 51.03125 152.363281 50.800781 152.1875 50.988281 C 152.113281 51.0625 152.039062 51.136719 151.953125 51.207031 C 152.144531 51.046875 151.878906 51.253906 151.820312 51.28125 C 151.777344 51.3125 151.574219 51.382812 151.792969 51.296875 C 151.734375 51.3125 151.691406 51.339844 151.632812 51.355469 C 151.574219 51.371094 151.515625 51.382812 151.457031 51.398438 C 151.351562 51.414062 151.351562 51.414062 151.46875 51.398438 C 151.410156 51.398438 151.367188 51.414062 151.308594 51.414062 C 150.945312 51.414062 150.914062 51.414062 150.5625 51.324219 C 150.125 51.207031 149.730469 51.019531 149.335938 50.800781 C 148.589844 50.375 147.929688 49.816406 147.375 49.175781 C 146.425781 48.0625 145.871094 46.742188 145.503906 45.367188 C 145.417969 45.058594 145.359375 44.738281 145.300781 44.429688 C 145.269531 44.269531 145.242188 44.125 145.226562 43.960938 C 145.226562 43.917969 145.210938 43.875 145.210938 43.84375 C 145.253906 44.136719 145.210938 43.875 145.210938 43.816406 C 145.183594 43.582031 145.167969 43.363281 145.152344 43.128906 C 145.125 41.914062 143.296875 41.914062 143.324219 43.097656 Z M 143.324219 43.097656 "/>
<path style=" stroke:none;fill-rule:nonzero;fill:rgb(0%,0%,0%);fill-opacity:1;" d="M 145.152344 43.480469 C 145.195312 42.71875 144.890625 41.867188 144.203125 41.488281 C 142.449219 40.507812 140.253906 42.804688 139.144531 43.832031 C 135.925781 46.789062 131.011719 47.785156 126.84375 48.457031 C 125.6875 48.648438 124.519531 48.808594 123.347656 48.882812 C 122.179688 48.96875 122.179688 50.800781 123.347656 50.710938 C 125.996094 50.519531 128.65625 50.066406 131.246094 49.421875 C 133.308594 48.910156 135.339844 48.25 137.242188 47.300781 C 138.148438 46.847656 139.011719 46.320312 139.800781 45.691406 C 140.738281 44.941406 141.511719 44.035156 142.550781 43.421875 C 142.828125 43.257812 143.195312 43.199219 143.414062 43.097656 C 143.222656 43.1875 143.324219 42.863281 143.308594 43.113281 C 143.308594 42.996094 143.355469 43.375 143.339844 43.257812 C 143.355469 43.332031 143.339844 43.40625 143.339844 43.480469 C 143.25 44.664062 145.078125 44.648438 145.152344 43.480469 Z M 145.152344 43.480469 "/>
<path style=" stroke:none;fill-rule:nonzero;fill:rgb(0%,0%,0%);fill-opacity:1;" d="M 122.691406 49.863281 C 122.472656 50.859375 122.515625 52 122.867188 52.949219 C 123.1875 53.84375 123.757812 54.679688 124.59375 55.160156 C 125.324219 55.585938 126.246094 55.617188 126.960938 55.132812 C 127.355469 54.867188 127.738281 54.503906 127.96875 54.078125 C 128.203125 53.667969 128.085938 53.054688 127.648438 52.820312 C 127.210938 52.585938 126.652344 52.703125 126.390625 53.140625 C 126.347656 53.199219 126.304688 53.257812 126.257812 53.332031 C 126.480469 53.023438 126.316406 53.257812 126.246094 53.347656 C 126.171875 53.417969 126.097656 53.492188 126.027344 53.550781 C 125.9375 53.625 126.128906 53.464844 126.128906 53.464844 C 126.128906 53.464844 126.070312 53.507812 126.054688 53.507812 C 126.011719 53.535156 125.96875 53.566406 125.921875 53.59375 C 125.910156 53.609375 125.878906 53.609375 125.863281 53.625 C 125.746094 53.699219 126.070312 53.550781 125.96875 53.582031 C 125.910156 53.59375 125.835938 53.625 125.777344 53.640625 C 125.570312 53.699219 125.996094 53.640625 125.820312 53.640625 C 125.761719 53.640625 125.703125 53.640625 125.644531 53.640625 C 125.878906 53.625 125.851562 53.667969 125.761719 53.652344 C 125.734375 53.640625 125.6875 53.640625 125.660156 53.625 C 125.628906 53.609375 125.585938 53.59375 125.558594 53.59375 C 125.410156 53.550781 125.746094 53.699219 125.601562 53.609375 C 125.542969 53.582031 125.484375 53.535156 125.410156 53.507812 C 125.398438 53.492188 125.234375 53.390625 125.367188 53.476562 C 125.5 53.566406 125.339844 53.449219 125.308594 53.433594 C 125.25 53.375 125.191406 53.316406 125.132812 53.257812 C 125.105469 53.230469 125.074219 53.183594 125.03125 53.15625 C 125 53.125 124.898438 52.964844 124.972656 53.097656 C 125.046875 53.230469 124.957031 53.082031 124.941406 53.054688 C 124.929688 53.023438 124.898438 52.996094 124.886719 52.964844 C 124.839844 52.890625 124.796875 52.820312 124.753906 52.730469 C 124.722656 52.671875 124.695312 52.613281 124.652344 52.542969 C 124.636719 52.511719 124.578125 52.351562 124.636719 52.511719 C 124.695312 52.671875 124.621094 52.484375 124.621094 52.453125 C 124.519531 52.175781 124.445312 51.882812 124.402344 51.589844 C 124.371094 51.414062 124.417969 51.792969 124.417969 51.675781 C 124.417969 51.648438 124.402344 51.605469 124.402344 51.574219 C 124.402344 51.515625 124.386719 51.441406 124.386719 51.382812 C 124.371094 51.253906 124.371094 51.136719 124.371094 51.003906 C 124.371094 50.785156 124.386719 50.578125 124.417969 50.359375 C 124.371094 50.769531 124.402344 50.433594 124.429688 50.332031 C 124.535156 49.863281 124.285156 49.320312 123.789062 49.203125 C 123.347656 49.117188 122.792969 49.351562 122.691406 49.863281 Z M 122.691406 49.863281 "/>
<path style=" stroke:none;fill-rule:nonzero;fill:rgb(0%,0%,0%);fill-opacity:1;" d="M 125.734375 50.097656 C 125.703125 50.460938 125.761719 50.84375 125.804688 51.207031 C 125.910156 51.898438 126.128906 52.585938 126.480469 53.199219 C 126.960938 54.003906 127.722656 54.722656 128.644531 55.015625 C 129.449219 55.265625 130.28125 55.03125 130.878906 54.457031 C 131.230469 54.136719 131.480469 53.710938 131.640625 53.273438 C 131.816406 52.820312 131.449219 52.25 130.996094 52.144531 C 130.472656 52.027344 130.0625 52.308594 129.871094 52.789062 C 130.003906 52.4375 129.929688 52.644531 129.855469 52.789062 C 129.8125 52.863281 129.785156 52.921875 129.738281 52.996094 C 129.726562 53.023438 129.695312 53.054688 129.679688 53.082031 C 129.609375 53.199219 129.828125 52.90625 129.753906 52.980469 C 129.738281 53.007812 129.710938 53.023438 129.695312 53.054688 C 129.652344 53.097656 129.550781 53.257812 129.476562 53.273438 C 129.460938 53.273438 129.695312 53.125 129.578125 53.183594 C 129.550781 53.199219 129.535156 53.214844 129.503906 53.230469 C 129.492188 53.242188 129.359375 53.332031 129.34375 53.316406 C 129.332031 53.300781 129.59375 53.242188 129.460938 53.257812 C 129.433594 53.257812 129.417969 53.273438 129.390625 53.273438 C 129.359375 53.289062 129.316406 53.289062 129.285156 53.300781 C 129.199219 53.332031 129.242188 53.242188 129.417969 53.289062 C 129.375 53.273438 129.285156 53.289062 129.242188 53.289062 C 129.15625 53.289062 129.097656 53.230469 129.34375 53.300781 C 129.300781 53.289062 129.257812 53.289062 129.214844 53.273438 C 129.140625 53.257812 129.082031 53.230469 129.007812 53.199219 C 128.890625 53.171875 129.214844 53.316406 129.050781 53.214844 C 129.023438 53.199219 128.980469 53.183594 128.949219 53.15625 C 128.863281 53.113281 128.773438 53.054688 128.6875 52.996094 C 128.65625 52.964844 128.628906 52.949219 128.597656 52.921875 C 128.804688 53.054688 128.65625 52.964844 128.613281 52.921875 C 128.496094 52.820312 128.378906 52.703125 128.261719 52.570312 C 128.25 52.554688 128.132812 52.410156 128.234375 52.542969 C 128.335938 52.671875 128.21875 52.527344 128.203125 52.511719 C 128.160156 52.4375 128.101562 52.367188 128.058594 52.292969 C 127.96875 52.160156 127.910156 52.015625 127.839844 51.867188 C 127.75 51.675781 127.910156 52.058594 127.824219 51.839844 C 127.792969 51.765625 127.765625 51.675781 127.738281 51.589844 C 127.648438 51.324219 127.605469 51.078125 127.5625 50.800781 C 127.546875 50.726562 127.546875 50.609375 127.574219 50.917969 C 127.574219 50.886719 127.5625 50.84375 127.5625 50.8125 C 127.5625 50.753906 127.546875 50.710938 127.546875 50.652344 C 127.53125 50.550781 127.53125 50.449219 127.53125 50.359375 C 127.53125 50.273438 127.53125 50.183594 127.53125 50.097656 C 127.5625 49.613281 127.09375 49.160156 126.625 49.1875 C 126.128906 49.203125 125.761719 49.582031 125.734375 50.097656 Z M 125.734375 50.097656 "/>
<path style=" stroke:none;fill-rule:nonzero;fill:rgb(0%,0%,0%);fill-opacity:1;" d="M 129.167969 49.246094 C 129.140625 49.539062 129.167969 49.847656 129.199219 50.140625 C 129.285156 50.917969 129.492188 51.664062 129.871094 52.351562 C 130.339844 53.171875 131.101562 53.886719 132.019531 54.195312 C 132.8125 54.457031 133.644531 54.222656 134.242188 53.667969 C 134.609375 53.347656 134.859375 52.921875 135.035156 52.484375 C 135.210938 52.042969 134.84375 51.457031 134.390625 51.355469 C 133.863281 51.238281 133.453125 51.515625 133.265625 52 C 133.425781 51.589844 133.308594 51.882812 133.25 52 C 133.207031 52.074219 133.175781 52.132812 133.132812 52.191406 C 133.101562 52.234375 133 52.367188 133.117188 52.203125 C 133.234375 52.042969 133.101562 52.21875 133.074219 52.25 C 133.042969 52.277344 133 52.320312 132.972656 52.351562 C 132.882812 52.425781 132.78125 52.453125 133.015625 52.320312 C 132.972656 52.351562 132.925781 52.378906 132.871094 52.410156 C 132.855469 52.425781 132.824219 52.425781 132.8125 52.4375 C 132.722656 52.496094 132.695312 52.4375 132.898438 52.410156 C 132.839844 52.425781 132.78125 52.453125 132.722656 52.46875 C 132.53125 52.527344 132.914062 52.46875 132.78125 52.46875 C 132.707031 52.46875 132.648438 52.46875 132.578125 52.46875 C 132.445312 52.46875 132.695312 52.484375 132.695312 52.484375 C 132.648438 52.46875 132.605469 52.46875 132.5625 52.453125 C 132.519531 52.4375 132.472656 52.425781 132.429688 52.410156 C 132.34375 52.378906 132.402344 52.351562 132.503906 52.4375 C 132.445312 52.394531 132.34375 52.367188 132.285156 52.320312 C 132.195312 52.277344 132.125 52.21875 132.050781 52.175781 C 131.890625 52.074219 132.167969 52.277344 132.078125 52.191406 C 132.035156 52.144531 131.992188 52.117188 131.949219 52.074219 C 131.890625 52.015625 131.832031 51.957031 131.773438 51.898438 C 131.714844 51.839844 131.65625 51.734375 131.597656 51.691406 C 131.613281 51.707031 131.730469 51.867188 131.640625 51.75 C 131.613281 51.722656 131.597656 51.675781 131.566406 51.648438 C 131.507812 51.574219 131.464844 51.488281 131.421875 51.414062 C 131.347656 51.28125 131.289062 51.148438 131.214844 51.019531 C 131.347656 51.296875 131.230469 51.03125 131.203125 50.976562 C 131.171875 50.902344 131.160156 50.828125 131.128906 50.753906 C 131.054688 50.492188 131.011719 50.242188 130.96875 49.980469 C 131.042969 50.332031 130.984375 50.066406 130.96875 49.980469 C 130.96875 49.921875 130.953125 49.875 130.953125 49.816406 C 130.953125 49.714844 130.9375 49.628906 130.9375 49.523438 C 130.9375 49.4375 130.9375 49.351562 130.9375 49.261719 C 130.984375 48.777344 130.484375 48.324219 130.03125 48.355469 C 129.5625 48.367188 129.214844 48.734375 129.167969 49.246094 Z M 129.167969 49.246094 "/>
<path style=" stroke:none;fill-rule:nonzero;fill:rgb(0%,0%,0%);fill-opacity:1;" d="M 132.402344 48.441406 C 132.414062 49.496094 132.753906 50.667969 133.367188 51.515625 C 133.90625 52.277344 134.683594 52.964844 135.605469 53.171875 C 136.40625 53.359375 137.242188 53.125 137.796875 52.511719 C 138.117188 52.160156 138.367188 51.734375 138.5 51.296875 C 138.644531 50.84375 138.339844 50.273438 137.855469 50.167969 C 137.359375 50.050781 136.875 50.316406 136.730469 50.8125 C 136.730469 50.828125 136.714844 50.84375 136.714844 50.859375 C 136.699219 50.871094 136.699219 50.902344 136.6875 50.917969 C 136.640625 51.0625 136.804688 50.652344 136.730469 50.800781 C 136.65625 50.945312 136.570312 51.089844 136.480469 51.238281 C 136.421875 51.324219 136.65625 51.03125 136.554688 51.136719 C 136.539062 51.148438 136.523438 51.164062 136.511719 51.179688 C 136.480469 51.222656 136.4375 51.253906 136.40625 51.28125 C 136.320312 51.371094 136.234375 51.371094 136.453125 51.265625 C 136.40625 51.296875 136.351562 51.339844 136.304688 51.371094 C 136.277344 51.382812 136.246094 51.398438 136.234375 51.414062 C 136.144531 51.472656 136.480469 51.339844 136.335938 51.371094 C 136.292969 51.382812 136.234375 51.398438 136.1875 51.414062 C 136.042969 51.457031 136.40625 51.398438 136.292969 51.398438 C 136.261719 51.398438 136.21875 51.398438 136.1875 51.398438 C 136.160156 51.398438 136.128906 51.398438 136.101562 51.398438 C 135.984375 51.398438 135.96875 51.339844 136.160156 51.414062 C 136.085938 51.382812 136.011719 51.382812 135.941406 51.371094 C 135.894531 51.355469 135.851562 51.339844 135.808594 51.324219 C 135.722656 51.296875 135.75 51.253906 135.867188 51.355469 C 135.835938 51.324219 135.324219 51.046875 135.339844 51.046875 C 135.339844 51.046875 135.515625 51.195312 135.382812 51.089844 C 135.355469 51.0625 135.324219 51.046875 135.296875 51.019531 C 135.238281 50.960938 135.179688 50.902344 135.121094 50.84375 C 135.0625 50.785156 135.003906 50.726562 134.960938 50.667969 C 134.945312 50.652344 134.917969 50.59375 134.886719 50.578125 C 134.976562 50.695312 134.988281 50.710938 134.929688 50.636719 C 134.917969 50.625 134.917969 50.609375 134.902344 50.59375 C 134.8125 50.460938 134.726562 50.332031 134.652344 50.199219 C 134.609375 50.125 134.582031 50.050781 134.535156 49.980469 C 134.523438 49.949219 134.507812 49.921875 134.492188 49.890625 C 134.417969 49.730469 134.582031 50.097656 134.507812 49.933594 C 134.40625 49.671875 134.332031 49.40625 134.257812 49.144531 C 134.230469 49.027344 134.214844 48.910156 134.183594 48.792969 C 134.183594 48.777344 134.183594 48.75 134.171875 48.734375 C 134.140625 48.589844 134.199219 49 134.183594 48.867188 C 134.183594 48.824219 134.171875 48.777344 134.171875 48.71875 C 134.15625 48.632812 134.15625 48.542969 134.15625 48.457031 C 134.15625 47.972656 133.730469 47.519531 133.25 47.550781 C 132.8125 47.550781 132.386719 47.929688 132.402344 48.441406 Z M 132.402344 48.441406 "/>
<path style=" stroke:none;fill-rule:nonzero;fill:rgb(0%,0%,0%);fill-opacity:1;" d="M 135.398438 47.242188 C 135.441406 48.296875 135.824219 49.421875 136.453125 50.273438 C 137.023438 51.03125 137.839844 51.722656 138.792969 51.882812 C 139.582031 52.015625 140.386719 51.792969 140.925781 51.164062 C 141.234375 50.8125 141.484375 50.390625 141.597656 49.921875 C 141.714844 49.453125 141.4375 48.910156 140.957031 48.792969 C 140.472656 48.691406 139.960938 48.941406 139.828125 49.4375 C 139.816406 49.511719 139.785156 49.570312 139.757812 49.640625 C 139.714844 49.746094 139.875 49.378906 139.800781 49.523438 C 139.785156 49.570312 139.773438 49.597656 139.742188 49.640625 C 139.699219 49.730469 139.65625 49.804688 139.597656 49.890625 C 139.582031 49.90625 139.566406 49.933594 139.550781 49.949219 C 139.550781 49.949219 139.714844 49.757812 139.640625 49.847656 C 139.609375 49.875 139.582031 49.921875 139.550781 49.949219 C 139.507812 49.992188 139.464844 50.023438 139.433594 50.066406 C 139.375 50.125 139.347656 50.066406 139.539062 49.992188 C 139.507812 50.007812 139.480469 50.039062 139.449219 50.050781 C 139.40625 50.082031 139.230469 50.15625 139.40625 50.082031 C 139.582031 50.007812 139.375 50.082031 139.332031 50.097656 C 139.304688 50.097656 139.273438 50.109375 139.257812 50.109375 C 139.144531 50.15625 139.375 50.097656 139.375 50.097656 C 139.316406 50.082031 139.203125 50.097656 139.144531 50.097656 C 139.027344 50.097656 139.390625 50.15625 139.214844 50.109375 C 139.1875 50.097656 139.15625 50.097656 139.113281 50.097656 C 139.039062 50.082031 138.96875 50.039062 138.878906 50.023438 C 138.761719 49.992188 139.085938 50.125 138.910156 50.039062 C 138.863281 50.023438 138.835938 49.992188 138.792969 49.980469 C 138.703125 49.933594 138.617188 49.875 138.527344 49.816406 C 138.484375 49.789062 138.441406 49.757812 138.410156 49.730469 C 138.367188 49.699219 138.28125 49.6875 138.382812 49.714844 C 138.398438 49.730469 138.410156 49.746094 138.425781 49.746094 C 138.398438 49.714844 138.367188 49.699219 138.339844 49.671875 C 138.308594 49.640625 138.28125 49.628906 138.25 49.597656 C 138.117188 49.480469 138.015625 49.320312 137.886719 49.203125 C 137.898438 49.21875 138.015625 49.378906 137.929688 49.261719 C 137.914062 49.234375 137.886719 49.203125 137.871094 49.175781 C 137.828125 49.101562 137.78125 49.027344 137.738281 48.953125 C 137.664062 48.824219 137.59375 48.691406 137.535156 48.558594 C 137.433594 48.324219 137.605469 48.75 137.519531 48.515625 C 137.492188 48.457031 137.476562 48.398438 137.460938 48.339844 C 137.417969 48.207031 137.375 48.074219 137.328125 47.929688 C 137.300781 47.8125 137.269531 47.695312 137.242188 47.578125 C 137.226562 47.503906 137.167969 47.34375 137.183594 47.269531 C 137.183594 47.242188 137.210938 47.550781 137.210938 47.445312 C 137.210938 47.433594 137.210938 47.402344 137.210938 47.386719 C 137.210938 47.359375 137.210938 47.328125 137.199219 47.316406 C 137.199219 47.285156 137.199219 47.269531 137.199219 47.242188 C 137.167969 46.757812 136.789062 46.304688 136.292969 46.320312 C 135.835938 46.347656 135.371094 46.730469 135.398438 47.242188 Z M 135.398438 47.242188 "/>
<path style=" stroke:none;fill-rule:nonzero;fill:rgb(0%,0%,0%);fill-opacity:1;" d="M 139.566406 43.625 C 139.097656 45.398438 139.390625 47.492188 140.035156 49.175781 C 140.574219 50.578125 141.425781 52.277344 142.871094 52.9375 C 143.96875 53.433594 145.183594 53.183594 146.015625 52.320312 C 146.820312 51.488281 147.289062 50.140625 146.878906 49.011719 C 146.703125 48.542969 146.265625 48.238281 145.753906 48.367188 C 145.3125 48.484375 144.949219 49.027344 145.109375 49.496094 C 145.136719 49.570312 145.152344 49.640625 145.183594 49.730469 C 145.195312 49.773438 145.195312 49.804688 145.210938 49.847656 C 145.167969 49.613281 145.195312 49.746094 145.195312 49.816406 C 145.195312 49.90625 145.195312 49.980469 145.195312 50.066406 C 145.195312 50.109375 145.167969 50.242188 145.195312 50.097656 C 145.226562 49.949219 145.183594 50.140625 145.183594 50.167969 C 145.152344 50.257812 145.136719 50.332031 145.109375 50.417969 C 145.09375 50.460938 145.078125 50.507812 145.066406 50.535156 C 145.136719 50.332031 145.09375 50.476562 145.066406 50.535156 C 145.019531 50.609375 144.976562 50.695312 144.933594 50.769531 C 144.890625 50.828125 144.730469 51.03125 144.859375 50.886719 C 144.800781 50.945312 144.742188 51.019531 144.683594 51.078125 C 144.65625 51.105469 144.597656 51.148438 144.566406 51.195312 C 144.496094 51.28125 144.699219 51.121094 144.597656 51.164062 C 144.523438 51.207031 144.449219 51.253906 144.378906 51.296875 C 144.347656 51.3125 144.21875 51.371094 144.347656 51.324219 C 144.480469 51.265625 144.304688 51.339844 144.277344 51.339844 C 144.171875 51.371094 143.996094 51.382812 144.203125 51.371094 C 144.113281 51.371094 143.996094 51.355469 143.910156 51.371094 C 143.792969 51.382812 144.054688 51.414062 143.953125 51.371094 C 143.910156 51.355469 143.867188 51.355469 143.820312 51.339844 C 143.777344 51.324219 143.734375 51.3125 143.691406 51.296875 C 143.601562 51.265625 143.808594 51.371094 143.660156 51.28125 C 143.398438 51.121094 143.398438 51.136719 143.164062 50.917969 C 142.960938 50.710938 142.785156 50.492188 142.625 50.242188 C 142.257812 49.6875 141.949219 49.085938 141.714844 48.457031 C 141.511719 47.886719 141.351562 47.285156 141.261719 46.683594 C 141.261719 46.671875 141.234375 46.464844 141.25 46.566406 C 141.261719 46.671875 141.234375 46.480469 141.234375 46.464844 C 141.21875 46.347656 141.203125 46.230469 141.203125 46.113281 C 141.191406 45.878906 141.175781 45.644531 141.191406 45.410156 C 141.191406 45.207031 141.203125 44.988281 141.21875 44.78125 C 141.234375 44.695312 141.234375 44.605469 141.25 44.503906 C 141.261719 44.359375 141.203125 44.753906 141.25 44.503906 C 141.277344 44.371094 141.292969 44.226562 141.320312 44.09375 C 141.453125 43.609375 141.160156 43.097656 140.679688 42.96875 C 140.210938 42.863281 139.699219 43.15625 139.566406 43.625 Z M 139.566406 43.625 "/>
<path style=" stroke:none;fill-rule:nonzero;fill:rgb(0%,0%,0%);fill-opacity:1;" d="M 172.339844 35.367188 C 175.308594 37.710938 178.054688 41.003906 179.328125 44.59375 C 179.855469 46.085938 180.089844 47.652344 180.601562 49.144531 C 180.996094 50.332031 181.476562 51.5 182.09375 52.597656 C 182.589844 53.507812 183.1875 54.503906 183.980469 55.207031 C 184.34375 54.722656 184.710938 54.253906 185.089844 53.769531 C 179.414062 50.625 174.53125 45.324219 171.59375 39.585938 C 171.050781 38.53125 169.472656 39.46875 170.011719 40.507812 C 172.175781 44.738281 175.277344 48.441406 178.890625 51.515625 C 180.527344 52.921875 182.28125 54.28125 184.183594 55.335938 C 185.0625 55.820312 186.085938 54.621094 185.292969 53.902344 C 184.519531 53.199219 183.964844 52.203125 183.496094 51.296875 C 182.152344 48.691406 181.871094 45.761719 180.71875 43.082031 C 179.242188 39.628906 176.621094 36.394531 173.65625 34.066406 C 172.71875 33.363281 171.417969 34.652344 172.339844 35.367188 Z M 172.339844 35.367188 "/>
<path style=" stroke:none;fill-rule:nonzero;fill:rgb(0%,0%,0%);fill-opacity:1;" d="M 169.71875 41.5625 C 172.558594 44.242188 175 47.898438 175.878906 51.722656 C 176.710938 55.277344 176.855469 59.539062 179.503906 62.378906 C 179.871094 61.894531 180.234375 61.425781 180.613281 60.945312 C 179.007812 59.847656 177.515625 58.457031 176.140625 57.035156 C 172.953125 53.800781 170.289062 50.007812 168.578125 45.777344 C 168.140625 44.695312 166.371094 45.175781 166.808594 46.261719 C 169.371094 52.597656 173.992188 58.632812 179.695312 62.511719 C 180.585938 63.109375 181.476562 61.808594 180.804688 61.074219 C 180.585938 60.839844 180.660156 60.898438 180.425781 60.546875 C 180 59.90625 179.648438 59.203125 179.359375 58.484375 C 178.230469 55.761719 178.230469 52.820312 177.339844 50.050781 C 176.167969 46.40625 173.816406 42.910156 171.035156 40.273438 C 170.160156 39.453125 168.859375 40.742188 169.71875 41.5625 Z M 169.71875 41.5625 "/>
<path style=" stroke:none;fill-rule:nonzero;fill:rgb(0%,0%,0%);fill-opacity:1;" d="M 165.554688 44.269531 C 167.496094 47.09375 168.945312 50.742188 168.886719 54.195312 C 168.828125 57.167969 168.390625 60.710938 170 63.417969 C 170.480469 63.050781 170.949219 62.6875 171.429688 62.304688 C 167.628906 58.308594 165.011719 52.746094 164.074219 47.359375 C 163.871094 46.203125 162.117188 46.683594 162.304688 47.839844 C 163.300781 53.535156 166.125 59.378906 170.128906 63.59375 C 170.847656 64.339844 172.089844 63.375 171.5625 62.480469 C 169.984375 59.816406 170.90625 56.011719 170.65625 52.964844 C 170.378906 49.597656 169.035156 46.128906 167.117188 43.332031 C 166.460938 42.382812 164.878906 43.304688 165.554688 44.269531 Z M 165.554688 44.269531 "/>
<path style=" stroke:none;fill-rule:nonzero;fill:rgb(0%,0%,0%);fill-opacity:1;" d="M 161.472656 45.351562 C 162.746094 48.472656 163.417969 52.261719 162.6875 55.570312 C 162.042969 58.542969 160.742188 61.941406 161.765625 65 C 162.320312 64.765625 162.875 64.53125 163.433594 64.296875 C 160.363281 60.199219 159.164062 54.53125 159.351562 49.511719 C 159.394531 48.339844 157.570312 48.339844 157.523438 49.511719 C 157.378906 53.359375 158.035156 57.226562 159.5 60.796875 C 160.128906 62.320312 160.859375 63.886719 161.851562 65.21875 C 162.421875 65.980469 163.886719 65.585938 163.519531 64.515625 C 162.46875 61.367188 164.222656 57.972656 164.632812 54.898438 C 165.070312 51.589844 164.472656 47.945312 163.214844 44.855469 C 162.789062 43.785156 161.019531 44.269531 161.472656 45.351562 Z M 161.472656 45.351562 "/>
<path style=" stroke:none;fill-rule:nonzero;fill:rgb(0%,0%,0%);fill-opacity:1;" d="M 156.734375 49.863281 C 157.1875 52.160156 157.128906 55.058594 156.238281 57.355469 C 155.34375 59.65625 153.679688 62.070312 154.015625 64.691406 C 154.585938 64.53125 155.15625 64.382812 155.710938 64.222656 C 153.839844 60.476562 153.121094 55.5 154.089844 51.3125 C 154.351562 50.167969 152.597656 49.671875 152.320312 50.828125 C 151.238281 55.511719 151.96875 60.855469 154.117188 65.160156 C 154.496094 65.9375 155.945312 65.597656 155.8125 64.691406 C 155.460938 62 157.453125 59.625 158.183594 57.195312 C 158.929688 54.722656 158.957031 51.898438 158.460938 49.363281 C 158.269531 48.222656 156.5 48.707031 156.734375 49.863281 Z M 156.734375 49.863281 "/>
<path style=" stroke:none;fill-rule:nonzero;fill:rgb(0%,0%,0%);fill-opacity:1;" d="M 151.542969 52.058594 C 151.515625 53.800781 151.074219 55.746094 150.125 57.3125 C 149.714844 57.988281 149.175781 58.542969 148.722656 59.171875 C 148.3125 59.742188 147.945312 60.34375 147.652344 60.988281 C 147.375 61.617188 147.128906 62.261719 147.070312 62.949219 C 147.667969 62.863281 148.269531 62.789062 148.867188 62.699219 C 148.925781 63.140625 148.882812 62.773438 148.867188 62.65625 C 148.839844 62.421875 148.824219 62.171875 148.808594 61.941406 C 148.765625 61.148438 148.75 60.34375 148.78125 59.539062 C 148.882812 57.210938 149.320312 54.867188 150.328125 52.761719 C 150.828125 51.707031 149.261719 50.769531 148.75 51.839844 C 147.113281 55.292969 146.558594 59.421875 147.097656 63.199219 C 147.15625 63.636719 147.699219 63.914062 148.105469 63.855469 C 148.574219 63.785156 148.867188 63.417969 148.898438 62.964844 C 148.910156 62.804688 148.839844 63.257812 148.882812 63.050781 C 148.910156 62.933594 148.941406 62.804688 148.96875 62.6875 C 149.101562 62.230469 149.246094 61.882812 149.453125 61.472656 C 150.152344 60.125 151.308594 59.085938 151.996094 57.722656 C 152.859375 56.011719 153.34375 53.992188 153.371094 52.074219 C 153.402344 50.871094 151.574219 50.871094 151.542969 52.058594 Z M 151.542969 52.058594 "/>
<path style=" stroke:none;fill-rule:nonzero;fill:rgb(0%,0%,0%);fill-opacity:1;" d="M 142.988281 53.039062 C 143.03125 54.09375 143.414062 55.21875 144.042969 56.070312 C 144.613281 56.832031 145.429688 57.519531 146.382812 57.679688 C 147.171875 57.8125 147.976562 57.589844 148.515625 56.960938 C 148.824219 56.609375 149.070312 56.1875 149.1875 55.71875 C 149.304688 55.25 149.027344 54.707031 148.546875 54.589844 C 148.0625 54.488281 147.550781 54.738281 147.417969 55.234375 C 147.40625 55.308594 147.375 55.367188 147.347656 55.441406 C 147.300781 55.542969 147.464844 55.175781 147.390625 55.324219 C 147.375 55.367188 147.359375 55.394531 147.332031 55.441406 C 147.289062 55.527344 147.246094 55.601562 147.1875 55.6875 C 147.171875 55.703125 147.15625 55.734375 147.140625 55.746094 C 147.140625 55.746094 147.300781 55.558594 147.230469 55.644531 C 147.199219 55.675781 147.171875 55.71875 147.140625 55.746094 C 147.097656 55.789062 147.054688 55.820312 147.023438 55.863281 C 146.964844 55.921875 146.9375 55.863281 147.128906 55.789062 C 147.097656 55.804688 147.070312 55.835938 147.039062 55.847656 C 146.996094 55.878906 146.820312 55.953125 146.996094 55.878906 C 147.171875 55.804688 146.964844 55.878906 146.921875 55.894531 C 146.894531 55.894531 146.863281 55.90625 146.847656 55.90625 C 146.730469 55.953125 146.964844 55.894531 146.964844 55.894531 C 146.90625 55.878906 146.789062 55.894531 146.730469 55.894531 C 146.617188 55.894531 146.980469 55.953125 146.804688 55.90625 C 146.777344 55.894531 146.746094 55.894531 146.703125 55.894531 C 146.628906 55.878906 146.558594 55.835938 146.46875 55.820312 C 146.351562 55.789062 146.675781 55.921875 146.5 55.835938 C 146.453125 55.820312 146.425781 55.789062 146.382812 55.777344 C 146.292969 55.734375 146.207031 55.675781 146.117188 55.617188 C 146.074219 55.585938 146.03125 55.558594 146 55.527344 C 145.957031 55.5 145.871094 55.484375 145.972656 55.511719 C 145.988281 55.527344 146 55.542969 146.015625 55.542969 C 145.988281 55.511719 145.957031 55.5 145.929688 55.46875 C 145.898438 55.441406 145.871094 55.425781 145.839844 55.394531 C 145.707031 55.277344 145.605469 55.117188 145.476562 55 C 145.488281 55.015625 145.605469 55.175781 145.519531 55.058594 C 145.503906 55.03125 145.476562 55 145.460938 54.972656 C 145.417969 54.898438 145.371094 54.824219 145.328125 54.75 C 145.253906 54.621094 145.183594 54.488281 145.125 54.355469 C 145.019531 54.121094 145.195312 54.546875 145.109375 54.3125 C 145.078125 54.253906 145.066406 54.195312 145.050781 54.136719 C 145.007812 54.003906 144.964844 53.875 144.917969 53.726562 C 144.890625 53.609375 144.859375 53.492188 144.832031 53.375 C 144.816406 53.300781 144.757812 53.140625 144.773438 53.066406 C 144.773438 53.039062 144.800781 53.347656 144.800781 53.242188 C 144.800781 53.230469 144.800781 53.199219 144.800781 53.183594 C 144.800781 53.15625 144.800781 53.125 144.789062 53.113281 C 144.789062 53.082031 144.789062 53.066406 144.789062 53.039062 C 144.757812 52.554688 144.378906 52.101562 143.878906 52.132812 C 143.425781 52.144531 142.972656 52.527344 142.988281 53.039062 Z M 142.988281 53.039062 "/>
<path style=" stroke:none;fill-rule:nonzero;fill:rgb(0%,0%,0%);fill-opacity:1;" d="M 139.363281 50.8125 C 138.996094 52.175781 139.214844 53.769531 139.714844 55.058594 C 140.136719 56.15625 140.796875 57.488281 141.9375 58 C 142.84375 58.410156 143.851562 58.234375 144.554688 57.503906 C 145.195312 56.832031 145.589844 55.734375 145.253906 54.808594 C 145.09375 54.355469 144.625 54.003906 144.128906 54.167969 C 143.691406 54.3125 143.308594 54.808594 143.484375 55.292969 C 143.5 55.351562 143.515625 55.410156 143.542969 55.46875 C 143.601562 55.6875 143.542969 55.277344 143.542969 55.46875 C 143.542969 55.527344 143.542969 55.585938 143.542969 55.660156 C 143.542969 55.835938 143.601562 55.453125 143.542969 55.675781 C 143.53125 55.734375 143.515625 55.804688 143.484375 55.863281 C 143.414062 56.097656 143.574219 55.71875 143.472656 55.894531 C 143.441406 55.953125 143.414062 56.011719 143.367188 56.070312 C 143.355469 56.097656 143.339844 56.128906 143.308594 56.15625 C 143.207031 56.316406 143.355469 56.113281 143.355469 56.113281 C 143.355469 56.128906 143.238281 56.246094 143.222656 56.257812 C 143.195312 56.289062 143.164062 56.316406 143.136719 56.347656 C 143.0625 56.433594 143.296875 56.246094 143.207031 56.289062 C 143.148438 56.316406 143.105469 56.363281 143.046875 56.390625 C 143.019531 56.40625 142.914062 56.449219 143.046875 56.390625 C 143.195312 56.332031 143.0625 56.390625 143.019531 56.390625 C 142.988281 56.390625 142.960938 56.40625 142.929688 56.421875 C 142.796875 56.464844 143.003906 56.40625 143.03125 56.40625 C 143.003906 56.390625 142.855469 56.40625 142.8125 56.40625 C 142.695312 56.421875 143.019531 56.449219 142.902344 56.421875 C 142.871094 56.40625 142.828125 56.40625 142.796875 56.390625 C 142.769531 56.375 142.726562 56.363281 142.695312 56.363281 C 142.59375 56.332031 142.871094 56.464844 142.726562 56.375 C 142.695312 56.363281 142.652344 56.332031 142.625 56.316406 C 142.609375 56.316406 142.433594 56.199219 142.550781 56.273438 C 142.652344 56.347656 142.535156 56.257812 142.507812 56.246094 C 142.460938 56.214844 142.433594 56.1875 142.402344 56.140625 C 142.332031 56.070312 142.257812 55.996094 142.183594 55.90625 C 142.097656 55.804688 142.242188 56.011719 142.167969 55.878906 C 142.125 55.820312 142.082031 55.746094 142.039062 55.6875 C 141.890625 55.453125 141.746094 55.21875 141.628906 54.972656 C 141.570312 54.867188 141.527344 54.75 141.46875 54.632812 C 141.410156 54.503906 141.511719 54.75 141.453125 54.605469 C 141.425781 54.53125 141.394531 54.472656 141.378906 54.398438 C 141.21875 53.976562 141.117188 53.535156 141.042969 53.082031 C 141 52.847656 141.058594 53.214844 141.027344 52.980469 C 141.015625 52.890625 141.015625 52.804688 141 52.714844 C 140.984375 52.542969 140.984375 52.367188 140.984375 52.191406 C 140.984375 52.027344 141 51.882812 141 51.722656 C 141 51.648438 141.015625 51.589844 141.015625 51.515625 C 141.027344 51.371094 140.96875 51.792969 141.015625 51.574219 C 141.027344 51.472656 141.042969 51.371094 141.074219 51.265625 C 141.191406 50.800781 140.914062 50.257812 140.429688 50.140625 C 140.003906 50.066406 139.492188 50.316406 139.363281 50.8125 Z M 139.363281 50.8125 "/>
<path style=" stroke:none;fill-rule:nonzero;fill:rgb(0%,0%,0%);fill-opacity:1;" d="M 135.472656 52.085938 C 135.355469 52.367188 135.339844 52.703125 135.355469 52.996094 C 135.382812 53.785156 135.648438 54.546875 136.042969 55.234375 C 136.570312 56.1875 137.316406 57.125 138.367188 57.488281 C 139.214844 57.78125 140.152344 57.53125 140.808594 56.949219 C 141.132812 56.65625 141.378906 56.273438 141.496094 55.863281 C 141.65625 55.382812 141.585938 54.882812 141.378906 54.429688 C 141.175781 53.992188 140.515625 53.84375 140.121094 54.109375 C 139.667969 54.398438 139.582031 54.898438 139.800781 55.367188 C 139.667969 55.089844 139.742188 55.234375 139.773438 55.324219 C 139.816406 55.46875 139.773438 55.058594 139.757812 55.265625 C 139.757812 55.292969 139.757812 55.308594 139.757812 55.335938 C 139.757812 55.410156 139.683594 55.453125 139.773438 55.207031 C 139.757812 55.265625 139.742188 55.324219 139.726562 55.382812 C 139.683594 55.570312 139.816406 55.21875 139.757812 55.335938 C 139.726562 55.382812 139.699219 55.441406 139.667969 55.5 C 139.65625 55.527344 139.640625 55.542969 139.625 55.570312 C 139.566406 55.675781 139.785156 55.382812 139.683594 55.5 C 139.640625 55.542969 139.597656 55.585938 139.550781 55.628906 C 139.550781 55.628906 139.523438 55.660156 139.492188 55.675781 C 139.421875 55.746094 139.492188 55.617188 139.582031 55.617188 C 139.539062 55.617188 139.480469 55.6875 139.433594 55.703125 C 139.40625 55.71875 139.390625 55.734375 139.363281 55.746094 C 139.214844 55.835938 139.550781 55.675781 139.449219 55.71875 C 139.390625 55.734375 139.332031 55.761719 139.257812 55.777344 C 139.230469 55.789062 139.1875 55.789062 139.15625 55.804688 C 139.054688 55.835938 139.375 55.789062 139.257812 55.789062 C 139.1875 55.789062 139.113281 55.789062 139.054688 55.789062 C 138.980469 55.789062 138.9375 55.746094 139.15625 55.804688 C 139.128906 55.789062 139.097656 55.789062 139.054688 55.789062 C 138.980469 55.777344 138.878906 55.71875 138.804688 55.71875 C 138.910156 55.71875 138.96875 55.789062 138.878906 55.746094 C 138.851562 55.734375 138.804688 55.71875 138.777344 55.6875 C 138.703125 55.644531 138.632812 55.585938 138.542969 55.542969 C 138.441406 55.46875 138.703125 55.6875 138.542969 55.542969 C 138.515625 55.511719 138.46875 55.484375 138.441406 55.453125 C 138.351562 55.367188 138.265625 55.277344 138.191406 55.175781 C 138.164062 55.132812 138.117188 55.089844 138.089844 55.042969 C 138.117188 55.074219 138.191406 55.175781 138.089844 55.03125 C 138.03125 54.941406 137.972656 54.867188 137.914062 54.78125 C 137.796875 54.605469 137.679688 54.414062 137.578125 54.222656 C 137.535156 54.136719 137.492188 54.0625 137.445312 53.976562 C 137.433594 53.945312 137.417969 53.902344 137.402344 53.875 C 137.359375 53.800781 137.402344 53.785156 137.433594 53.933594 C 137.417969 53.800781 137.328125 53.640625 137.285156 53.507812 C 137.257812 53.390625 137.226562 53.273438 137.199219 53.140625 C 137.152344 52.949219 137.210938 53.390625 137.199219 53.171875 C 137.199219 53.113281 137.183594 53.054688 137.183594 52.996094 C 137.183594 52.890625 137.183594 52.804688 137.183594 52.703125 C 137.199219 52.597656 137.242188 52.46875 137.167969 52.804688 C 137.167969 52.773438 137.183594 52.746094 137.183594 52.714844 C 137.199219 52.65625 137.210938 52.597656 137.226562 52.554688 C 137.402344 52.117188 137.035156 51.53125 136.582031 51.429688 C 136.070312 51.324219 135.675781 51.617188 135.472656 52.085938 Z M 135.472656 52.085938 "/>
<path style=" stroke:none;fill-rule:nonzero;fill:rgb(0%,0%,0%);fill-opacity:1;" d="M 132.589844 52.789062 C 132.183594 53.710938 132.488281 54.78125 132.984375 55.601562 C 133.46875 56.375 134.125 57.136719 135.019531 57.429688 C 135.792969 57.679688 136.613281 57.460938 137.226562 56.949219 C 137.871094 56.40625 138.105469 55.511719 137.722656 54.75 C 137.503906 54.328125 136.875 54.167969 136.464844 54.429688 C 136.027344 54.707031 135.910156 55.21875 136.144531 55.6875 C 136.1875 55.777344 136.042969 55.425781 136.101562 55.601562 C 136.160156 55.761719 136.101562 55.367188 136.085938 55.5 C 136.085938 55.511719 136.085938 55.542969 136.085938 55.558594 C 136.101562 55.660156 136.101562 55.410156 136.117188 55.394531 C 136.117188 55.394531 136.085938 55.527344 136.085938 55.542969 C 136.058594 55.660156 136.203125 55.308594 136.117188 55.46875 C 136.101562 55.511719 136.070312 55.542969 136.058594 55.585938 C 136 55.703125 136.234375 55.394531 136.101562 55.527344 C 136.070312 55.570312 136.027344 55.601562 136 55.628906 C 135.882812 55.746094 136.1875 55.5 136.042969 55.601562 C 136 55.628906 135.96875 55.660156 135.925781 55.675781 C 135.910156 55.6875 135.851562 55.703125 135.835938 55.71875 C 135.835938 55.71875 136.070312 55.628906 135.953125 55.675781 C 135.894531 55.6875 135.851562 55.703125 135.792969 55.71875 C 135.765625 55.71875 135.75 55.734375 135.722656 55.734375 C 135.617188 55.761719 135.953125 55.71875 135.851562 55.71875 C 135.792969 55.71875 135.75 55.71875 135.691406 55.71875 C 135.664062 55.71875 135.632812 55.71875 135.605469 55.71875 C 135.5 55.71875 135.824219 55.761719 135.722656 55.734375 C 135.664062 55.71875 135.589844 55.703125 135.53125 55.6875 C 135.5 55.675781 135.472656 55.660156 135.441406 55.660156 C 135.632812 55.703125 135.605469 55.734375 135.53125 55.6875 C 135.472656 55.660156 135.414062 55.628906 135.355469 55.585938 C 135.324219 55.570312 135.296875 55.542969 135.265625 55.527344 C 135.136719 55.441406 135.3125 55.558594 135.324219 55.570312 C 135.28125 55.5 135.164062 55.425781 135.105469 55.367188 C 135.046875 55.308594 134.988281 55.234375 134.929688 55.160156 C 134.902344 55.132812 134.871094 55.089844 134.84375 55.058594 C 134.800781 55 134.742188 54.984375 134.871094 55.089844 C 134.753906 55 134.667969 54.796875 134.59375 54.679688 C 134.523438 54.5625 134.464844 54.445312 134.40625 54.328125 C 134.390625 54.296875 134.375 54.269531 134.359375 54.238281 C 134.316406 54.136719 134.433594 54.445312 134.40625 54.339844 C 134.390625 54.28125 134.359375 54.222656 134.347656 54.167969 C 134.316406 54.078125 134.289062 53.976562 134.273438 53.886719 C 134.257812 53.84375 134.230469 53.652344 134.257812 53.859375 C 134.289062 54.0625 134.257812 53.886719 134.257812 53.84375 C 134.257812 53.769531 134.257812 53.699219 134.257812 53.609375 C 134.257812 53.59375 134.257812 53.582031 134.257812 53.566406 C 134.257812 53.449219 134.230469 53.757812 134.230469 53.742188 C 134.242188 53.710938 134.242188 53.683594 134.242188 53.667969 C 134.242188 53.640625 134.257812 53.59375 134.273438 53.566406 C 134.300781 53.433594 134.199219 53.742188 134.199219 53.742188 C 134.300781 53.507812 134.359375 53.289062 134.289062 53.039062 C 134.230469 52.832031 134.066406 52.597656 133.863281 52.496094 C 133.441406 52.25 132.796875 52.320312 132.589844 52.789062 Z M 132.589844 52.789062 "/>
<path style=" stroke:none;fill-rule:nonzero;fill:rgb(0%,0%,0%);fill-opacity:1;" d="M 75.910156 31.78125 C 76.570312 31.839844 75.632812 31.710938 76.1875 31.8125 C 76.800781 31.914062 77.417969 32.03125 78.015625 32.175781 C 80.152344 32.691406 82.125 33.421875 84.011719 34.359375 C 90.796875 37.710938 96.046875 43.332031 99.617188 49.964844 C 102.832031 55.953125 104.644531 62.570312 105.714844 69.257812 C 106.078125 71.574219 109.601562 70.589844 109.238281 68.292969 C 106.53125 51.355469 97.4375 33.625 79.710938 28.839844 C 78.484375 28.503906 77.199219 28.226562 75.925781 28.121094 C 73.554688 27.945312 73.570312 31.605469 75.910156 31.78125 Z M 75.910156 31.78125 "/>
<path style=" stroke:none;fill-rule:nonzero;fill:rgb(0%,0%,0%);fill-opacity:1;" d="M 125.191406 28.253906 C 121.742188 28.519531 118.320312 29.820312 115.246094 31.328125 C 107.949219 34.945312 102.175781 41.121094 98.34375 48.25 C 94.964844 54.515625 92.992188 61.414062 91.878906 68.410156 C 91.515625 70.707031 95.039062 71.703125 95.402344 69.375 C 97.90625 53.683594 105.976562 36.90625 122.382812 32.484375 C 123.171875 32.28125 123.964844 32.117188 124.753906 31.957031 C 125.558594 31.8125 124.503906 31.957031 125.191406 31.898438 C 127.515625 31.738281 127.546875 28.078125 125.191406 28.253906 Z M 125.191406 28.253906 "/>
<path style=" stroke:none;fill-rule:nonzero;fill:rgb(0%,0%,0%);fill-opacity:1;" d="M 77.328125 31.914062 C 77.328125 42.703125 77.328125 53.507812 77.328125 64.296875 C 77.328125 65.832031 77.328125 67.355469 77.328125 68.894531 C 77.328125 71.25 80.984375 71.25 80.984375 68.894531 C 80.984375 58.105469 80.984375 47.300781 80.984375 36.511719 C 80.984375 34.972656 80.984375 33.453125 80.984375 31.914062 C 80.984375 29.570312 77.328125 29.558594 77.328125 31.914062 Z M 77.328125 31.914062 "/>
<path style=" stroke:none;fill-rule:nonzero;fill:rgb(0%,0%,0%);fill-opacity:1;" d="M 120.03125 31.914062 C 120.03125 42.703125 120.03125 53.507812 120.03125 64.296875 C 120.03125 65.832031 120.03125 67.355469 120.03125 68.894531 C 120.03125 71.25 123.6875 71.25 123.6875 68.894531 C 123.6875 58.105469 123.6875 47.300781 123.6875 36.511719 C 123.6875 34.972656 123.6875 33.453125 123.6875 31.914062 C 123.6875 29.570312 120.03125 29.558594 120.03125 31.914062 Z M 120.03125 31.914062 "/>
<path style=" stroke:none;fill-rule:nonzero;fill:rgb(0%,0%,0%);fill-opacity:1;" d="M 121.695312 44.503906 C 115.304688 45.03125 110.730469 51.3125 108.492188 56.699219 C 106.898438 60.546875 106.109375 64.648438 105.640625 68.761719 C 105.523438 69.742188 106.5625 70.589844 107.46875 70.589844 C 108.550781 70.589844 109.179688 69.742188 109.296875 68.761719 C 109.675781 65.421875 110.363281 62.085938 111.519531 58.925781 C 112.277344 56.875 113.492188 54.546875 114.664062 53.023438 C 115.21875 52.292969 115.847656 51.617188 116.519531 50.988281 C 116.8125 50.726562 117.105469 50.460938 117.414062 50.226562 C 117.660156 50.023438 117.222656 50.359375 117.558594 50.109375 C 117.734375 49.992188 117.894531 49.863281 118.070312 49.757812 C 118.597656 49.40625 119.136719 49.101562 119.707031 48.824219 C 119.824219 48.765625 119.925781 48.71875 120.042969 48.660156 C 120.292969 48.542969 119.636719 48.808594 120.058594 48.660156 C 120.277344 48.589844 120.496094 48.5 120.71875 48.425781 C 121.054688 48.308594 121.40625 48.238281 121.753906 48.164062 C 122.371094 48.015625 121.433594 48.179688 121.710938 48.164062 C 124.023438 47.972656 124.035156 44.3125 121.695312 44.503906 Z M 121.695312 44.503906 "/>
<path style=" stroke:none;fill-rule:nonzero;fill:rgb(0%,0%,0%);fill-opacity:1;" d="M 79.140625 48.148438 C 79.464844 48.179688 78.5 48.003906 78.996094 48.132812 C 79.289062 48.207031 79.566406 48.25 79.859375 48.339844 C 80.050781 48.398438 80.238281 48.457031 80.429688 48.515625 C 80.53125 48.542969 80.632812 48.589844 80.722656 48.617188 C 80.792969 48.648438 81.261719 48.835938 80.957031 48.707031 C 80.648438 48.574219 81.058594 48.75 81.117188 48.777344 C 81.25 48.835938 81.394531 48.910156 81.527344 48.984375 C 81.820312 49.128906 82.109375 49.292969 82.390625 49.464844 C 82.679688 49.640625 82.960938 49.832031 83.238281 50.023438 C 83.367188 50.125 83.515625 50.214844 83.644531 50.316406 C 83.324219 50.066406 83.867188 50.492188 83.9375 50.550781 C 84.613281 51.121094 85.242188 51.75 85.824219 52.425781 C 87.097656 53.902344 88.28125 55.921875 89.128906 57.898438 C 90.59375 61.324219 91.382812 65.074219 91.804688 68.746094 C 91.921875 69.726562 92.566406 70.578125 93.632812 70.578125 C 94.527344 70.578125 95.578125 69.742188 95.460938 68.746094 C 94.394531 59.625 90.972656 48.089844 81.191406 44.898438 C 80.515625 44.679688 79.828125 44.535156 79.128906 44.476562 C 76.789062 44.300781 76.800781 47.957031 79.140625 48.148438 Z M 79.140625 48.148438 "/>
<path style=" stroke:none;fill-rule:nonzero;fill:rgb(0%,0%,0%);fill-opacity:1;" d="M 74.390625 70.855469 C 77.167969 70.855469 79.945312 70.855469 82.710938 70.855469 C 83.105469 70.855469 83.5 70.855469 83.894531 70.855469 C 84.84375 70.855469 85.765625 70.019531 85.722656 69.023438 C 85.679688 68.03125 84.917969 67.195312 83.894531 67.195312 C 81.117188 67.195312 78.339844 67.195312 75.574219 67.195312 C 75.179688 67.195312 74.785156 67.195312 74.390625 67.195312 C 73.4375 67.195312 72.519531 68.03125 72.5625 69.023438 C 72.605469 70.019531 73.367188 70.855469 74.390625 70.855469 Z M 74.390625 70.855469 "/>
<path style=" stroke:none;fill-rule:nonzero;fill:rgb(0%,0%,0%);fill-opacity:1;" d="M 116.945312 70.855469 C 119.722656 70.855469 122.5 70.855469 125.265625 70.855469 C 125.660156 70.855469 126.054688 70.855469 126.449219 70.855469 C 127.398438 70.855469 128.320312 70.019531 128.277344 69.023438 C 128.234375 68.03125 127.472656 67.195312 126.449219 67.195312 C 123.671875 67.195312 120.890625 67.195312 118.128906 67.195312 C 117.734375 67.195312 117.339844 67.195312 116.945312 67.195312 C 115.992188 67.195312 115.074219 68.03125 115.117188 69.023438 C 115.160156 70.019531 115.90625 70.855469 116.945312 70.855469 Z M 116.945312 70.855469 "/>
</g>
</svg>
