<?xml version="1.0" encoding="UTF-8"?>
<svg xmlns="http://www.w3.org/2000/svg" xmlns:xlink="http://www.w3.org/1999/xlink" width="100px" height="47px" viewBox="0 0 99 47" version="1.1">
<g id="surface1">
<path style=" stroke:none;fill-rule:nonzero;fill:rgb(0%,0%,0%);fill-opacity:1;" d="M 38.433594 23.578125 C 36.308594 23.460938 34.105469 22.5 32.425781 21.238281 C 31.683594 20.675781 31.015625 20.023438 30.4375 19.289062 C 29.71875 18.375 29.257812 17.292969 28.558594 16.359375 C 27.542969 15.007812 26.175781 14 24.613281 13.382812 C 23.402344 12.902344 22.089844 12.671875 20.789062 12.632812 C 20.359375 12.617188 19.9375 12.625 19.511719 12.660156 C 19.417969 12.671875 18.75 12.753906 19.023438 12.722656 C 17.941406 12.871094 16.894531 13.210938 15.925781 13.722656 C 15.109375 14.152344 14.347656 14.726562 13.734375 15.425781 C 13.292969 15.925781 12.683594 16.652344 12.707031 17.371094 C 12.796875 19.886719 17.769531 17.285156 18.476562 16.855469 C 18.972656 16.558594 18.515625 15.769531 18.019531 16.070312 C 17.132812 16.601562 16.117188 17.117188 15.109375 17.363281 C 14.757812 17.453125 14.339844 17.53125 13.980469 17.488281 C 13.359375 17.414062 13.691406 16.992188 13.96875 16.585938 C 14.929688 15.140625 16.558594 14.230469 18.203125 13.804688 C 18.707031 13.671875 19.066406 13.617188 19.402344 13.585938 C 21.613281 13.382812 23.957031 13.804688 25.84375 15.03125 C 27.484375 16.097656 28.199219 17.667969 29.273438 19.230469 C 30.191406 20.566406 31.375 21.699219 32.742188 22.558594 C 34.40625 23.605469 36.445312 24.367188 38.417969 24.484375 C 39.011719 24.523438 39.011719 23.605469 38.433594 23.578125 Z M 38.433594 23.578125 "/>
<path style=" stroke:none;fill-rule:nonzero;fill:rgb(0%,0%,0%);fill-opacity:1;" d="M 20.777344 17.066406 C 19.835938 18.285156 18.636719 19.28125 17.273438 19.980469 C 16.808594 20.210938 16.292969 20.4375 15.78125 20.5 C 15.765625 20.5 15.636719 20.507812 15.578125 20.507812 C 15.542969 20.507812 15.507812 20.507812 15.472656 20.5 C 15.574219 20.519531 15.457031 20.496094 15.433594 20.488281 C 15.414062 20.480469 15.390625 20.472656 15.371094 20.46875 C 15.472656 20.5 15.378906 20.472656 15.355469 20.453125 C 15.289062 20.402344 15.355469 20.457031 15.371094 20.46875 C 15.339844 20.453125 15.261719 20.34375 15.332031 20.445312 C 15.3125 20.414062 15.25 20.269531 15.289062 20.386719 C 15.269531 20.335938 15.261719 20.285156 15.25 20.226562 C 15.210938 20.113281 15.234375 20.269531 15.238281 20.140625 L 15.238281 19.914062 C 15.238281 19.886719 15.261719 19.695312 15.25 19.796875 C 15.261719 19.722656 15.269531 19.644531 15.289062 19.574219 C 15.320312 19.417969 15.363281 19.269531 15.40625 19.121094 C 15.457031 18.964844 15.507812 18.808594 15.566406 18.65625 C 15.59375 18.585938 15.617188 18.519531 15.644531 18.445312 C 15.652344 18.425781 15.6875 18.347656 15.644531 18.445312 L 15.6875 18.347656 C 15.746094 18.21875 15.796875 18.097656 15.859375 17.972656 C 16.125 17.457031 15.347656 16.992188 15.082031 17.515625 C 14.878906 17.917969 14.707031 18.332031 14.570312 18.757812 C 14.367188 19.386719 14.167969 20.183594 14.492188 20.800781 C 14.9375 21.664062 16.039062 21.425781 16.773438 21.164062 C 17.957031 20.742188 19.015625 20.039062 19.957031 19.207031 C 20.476562 18.753906 20.988281 18.25 21.40625 17.703125 C 21.558594 17.507812 21.59375 17.253906 21.40625 17.066406 C 21.253906 16.90625 20.921875 16.871094 20.777344 17.066406 Z M 20.777344 17.066406 "/>
<path style=" stroke:none;fill-rule:nonzero;fill:rgb(0%,0%,0%);fill-opacity:1;" d="M 22.839844 18.945312 C 22.316406 19.789062 21.714844 20.574219 21.039062 21.296875 C 20.527344 21.824219 19.972656 22.222656 19.273438 22.464844 C 18.945312 22.574219 18.609375 22.65625 18.257812 22.632812 C 18.152344 22.625 18.050781 22.605469 17.949219 22.574219 C 17.855469 22.542969 17.789062 22.507812 17.761719 22.472656 C 17.789062 22.507812 17.71875 22.382812 17.703125 22.355469 C 17.683594 22.300781 17.671875 22.246094 17.660156 22.1875 C 17.628906 22.03125 17.613281 21.871094 17.617188 21.707031 C 17.617188 21.402344 17.660156 21.011719 17.855469 20.757812 C 18.007812 20.566406 18.042969 20.300781 17.855469 20.117188 C 17.695312 19.957031 17.371094 19.917969 17.222656 20.117188 C 16.710938 20.761719 16.585938 21.730469 16.816406 22.523438 C 17.035156 23.277344 17.710938 23.570312 18.453125 23.546875 C 20.3125 23.496094 21.652344 22.109375 22.707031 20.71875 C 23.035156 20.300781 23.34375 19.863281 23.632812 19.414062 C 23.933594 18.914062 23.148438 18.453125 22.839844 18.945312 Z M 22.839844 18.945312 "/>
<path style=" stroke:none;fill-rule:nonzero;fill:rgb(0%,0%,0%);fill-opacity:1;" d="M 25.113281 20.457031 C 24.878906 21.613281 24.300781 22.753906 23.472656 23.621094 C 22.863281 24.25 21.976562 24.832031 21.105469 24.832031 C 20.988281 24.832031 21.058594 24.839844 20.960938 24.8125 C 20.925781 24.804688 20.890625 24.792969 20.859375 24.78125 C 20.789062 24.761719 20.945312 24.832031 20.835938 24.777344 C 20.808594 24.761719 20.664062 24.660156 20.746094 24.726562 C 20.6875 24.679688 20.636719 24.628906 20.59375 24.570312 C 20.65625 24.652344 20.554688 24.515625 20.542969 24.484375 C 20.519531 24.453125 20.503906 24.417969 20.492188 24.382812 C 20.441406 24.273438 20.511719 24.441406 20.484375 24.367188 C 20.433594 24.238281 20.40625 24.105469 20.375 23.96875 C 20.367188 23.9375 20.367188 23.90625 20.359375 23.875 C 20.375 23.988281 20.359375 23.851562 20.359375 23.832031 C 20.355469 23.757812 20.355469 23.683594 20.347656 23.613281 C 20.339844 23.484375 20.347656 23.359375 20.355469 23.226562 C 20.359375 23.132812 20.371094 23.039062 20.375 22.945312 C 20.382812 22.835938 20.355469 23.066406 20.375 22.9375 C 20.421875 22.695312 20.3125 22.449219 20.058594 22.378906 C 19.84375 22.316406 19.546875 22.449219 19.503906 22.695312 C 19.332031 23.742188 19.441406 25.234375 20.601562 25.640625 C 21.59375 25.988281 22.796875 25.347656 23.558594 24.746094 C 24.351562 24.121094 24.957031 23.277344 25.386719 22.371094 C 25.640625 21.839844 25.871094 21.265625 25.988281 20.683594 C 26.101562 20.125 25.238281 19.886719 25.113281 20.457031 Z M 25.113281 20.457031 "/>
<path style=" stroke:none;fill-rule:nonzero;fill:rgb(0%,0%,0%);fill-opacity:1;" d="M 27.507812 22.089844 C 27.507812 22.179688 27.492188 22.273438 27.484375 22.371094 C 27.476562 22.421875 27.472656 22.464844 27.472656 22.515625 C 27.492188 22.371094 27.460938 22.542969 27.460938 22.574219 C 27.441406 22.710938 27.414062 22.851562 27.382812 22.988281 C 27.226562 23.707031 26.980469 24.324219 26.542969 24.925781 C 26.308594 25.246094 26.027344 25.523438 25.707031 25.75 C 25.53125 25.867188 25.34375 25.976562 25.148438 26.058594 C 25.066406 26.097656 24.976562 26.132812 24.886719 26.15625 C 24.847656 26.164062 24.820312 26.175781 24.785156 26.1875 C 24.769531 26.191406 24.589844 26.222656 24.675781 26.214844 C 24.601562 26.222656 24.539062 26.222656 24.46875 26.222656 C 24.445312 26.222656 24.324219 26.199219 24.4375 26.222656 C 24.40625 26.214844 24.378906 26.214844 24.351562 26.199219 C 24.324219 26.191406 24.296875 26.1875 24.265625 26.175781 C 24.15625 26.144531 24.34375 26.222656 24.25 26.171875 C 24.214844 26.148438 24.0625 26.039062 24.15625 26.121094 C 24.113281 26.082031 24.078125 26.046875 24.042969 26.011719 C 24.039062 26.007812 24.039062 26.007812 24.035156 26.003906 C 24.023438 25.980469 24.007812 25.960938 23.992188 25.9375 L 23.90625 25.785156 C 23.890625 25.761719 23.882812 25.734375 23.871094 25.710938 C 23.855469 25.683594 23.859375 25.691406 23.882812 25.75 C 23.878906 25.726562 23.867188 25.710938 23.859375 25.691406 C 23.792969 25.511719 23.746094 25.324219 23.714844 25.136719 C 23.714844 25.121094 23.710938 25.101562 23.710938 25.089844 C 23.695312 25.007812 23.714844 25.210938 23.710938 25.089844 C 23.703125 24.976562 23.6875 24.878906 23.6875 24.765625 C 23.6875 24.1875 22.789062 24.179688 22.789062 24.765625 C 22.789062 25.769531 23.234375 27.003906 24.359375 27.128906 C 25.289062 27.230469 26.273438 26.578125 26.894531 25.933594 C 27.511719 25.277344 27.925781 24.457031 28.167969 23.589844 C 28.308594 23.109375 28.410156 22.601562 28.421875 22.101562 C 28.421875 21.5 27.523438 21.5 27.507812 22.085938 Z M 27.507812 22.089844 "/>
<path style=" stroke:none;fill-rule:nonzero;fill:rgb(0%,0%,0%);fill-opacity:1;" d="M 28.410156 22.273438 L 28.410156 22.203125 C 28.410156 22.078125 28.414062 22.238281 28.429688 22.089844 C 28.4375 22.023438 28.449219 22.121094 28.4375 22.066406 C 28.414062 21.976562 28.457031 22.140625 28.398438 22.09375 C 28.40625 22.101562 28.421875 22.117188 28.371094 22.09375 C 28.40625 22.117188 28.457031 22.09375 28.515625 22.117188 C 29.472656 22.558594 30.128906 23.460938 31.050781 23.984375 C 32.761719 24.957031 34.78125 25.40625 36.71875 25.683594 C 37.230469 25.753906 37.742188 25.828125 38.257812 25.867188 C 38.835938 25.910156 38.835938 25 38.257812 24.957031 C 36.761719 24.84375 35.277344 24.570312 33.835938 24.144531 C 32.777344 23.832031 31.675781 23.421875 30.800781 22.734375 C 30.128906 22.210938 29.214844 20.972656 28.214844 21.199219 C 27.738281 21.308594 27.492188 21.8125 27.511719 22.273438 C 27.542969 22.855469 28.441406 22.855469 28.410156 22.273438 Z M 28.410156 22.273438 "/>
<path style=" stroke:none;fill-rule:nonzero;fill:rgb(0%,0%,0%);fill-opacity:1;" d="M 37.707031 25.683594 C 37.710938 25.714844 37.722656 25.75 37.722656 25.777344 C 37.734375 25.859375 37.707031 25.632812 37.710938 25.722656 C 37.710938 25.734375 37.71875 25.753906 37.71875 25.769531 C 37.726562 25.820312 37.726562 25.871094 37.726562 25.921875 C 37.734375 26.046875 37.726562 26.171875 37.71875 26.292969 C 37.71875 26.308594 37.71875 26.324219 37.710938 26.335938 C 37.707031 26.425781 37.726562 26.238281 37.71875 26.292969 C 37.710938 26.328125 37.710938 26.359375 37.707031 26.394531 C 37.691406 26.476562 37.667969 26.546875 37.648438 26.625 C 37.640625 26.65625 37.628906 26.691406 37.617188 26.722656 C 37.613281 26.742188 37.605469 26.757812 37.597656 26.78125 C 37.578125 26.835938 37.648438 26.671875 37.605469 26.75 C 37.570312 26.824219 37.53125 26.898438 37.488281 26.96875 C 37.46875 27 37.4375 27.035156 37.417969 27.070312 C 37.453125 26.984375 37.460938 27.019531 37.425781 27.054688 C 37.410156 27.070312 37.394531 27.09375 37.382812 27.109375 C 37.351562 27.136719 37.324219 27.164062 37.292969 27.195312 C 37.273438 27.210938 37.253906 27.226562 37.238281 27.246094 C 37.203125 27.277344 37.316406 27.1875 37.238281 27.246094 C 37.203125 27.265625 37.171875 27.289062 37.136719 27.304688 C 37.082031 27.339844 37.171875 27.289062 37.179688 27.289062 L 37.128906 27.3125 C 37.101562 27.320312 37.066406 27.324219 37.035156 27.332031 C 37.171875 27.296875 37.09375 27.324219 37.035156 27.324219 C 36.925781 27.324219 37.144531 27.355469 37.042969 27.324219 C 37.015625 27.320312 36.992188 27.3125 36.964844 27.304688 C 36.878906 27.277344 37.070312 27.363281 36.988281 27.3125 C 36.964844 27.296875 36.9375 27.28125 36.914062 27.265625 L 36.878906 27.246094 C 36.832031 27.214844 36.976562 27.332031 36.921875 27.277344 C 36.898438 27.253906 36.875 27.238281 36.855469 27.214844 C 36.820312 27.1875 36.792969 27.152344 36.761719 27.113281 C 36.703125 27.046875 36.84375 27.222656 36.78125 27.144531 C 36.777344 27.128906 36.769531 27.121094 36.761719 27.109375 C 36.753906 27.09375 36.746094 27.085938 36.742188 27.070312 C 36.613281 26.855469 36.335938 26.78125 36.121094 26.910156 C 35.90625 27.039062 35.835938 27.316406 35.960938 27.535156 C 36.242188 28.03125 36.847656 28.386719 37.410156 28.167969 C 38.238281 27.847656 38.621094 26.910156 38.625 26.066406 C 38.625 25.859375 38.613281 25.648438 38.570312 25.445312 C 38.519531 25.210938 38.238281 25.050781 38.015625 25.125 C 37.777344 25.203125 37.65625 25.429688 37.707031 25.683594 Z M 37.707031 25.683594 "/>
<path style=" stroke:none;fill-rule:nonzero;fill:rgb(0%,0%,0%);fill-opacity:1;" d="M 36.171875 25.558594 C 36.179688 25.683594 36.171875 25.804688 36.15625 25.933594 C 36.140625 26.046875 36.171875 25.84375 36.15625 25.910156 C 36.152344 25.9375 36.152344 25.976562 36.140625 26.003906 C 36.128906 26.070312 36.117188 26.136719 36.101562 26.207031 C 36.085938 26.269531 36.0625 26.335938 36.035156 26.402344 C 36.027344 26.414062 36.023438 26.429688 36.019531 26.449219 C 35.992188 26.527344 36.0625 26.359375 36.035156 26.417969 C 36.011719 26.460938 36 26.5 35.976562 26.542969 C 35.941406 26.609375 35.902344 26.675781 35.859375 26.738281 C 35.847656 26.753906 35.832031 26.773438 35.828125 26.789062 C 35.796875 26.835938 35.898438 26.699219 35.839844 26.765625 C 35.8125 26.804688 35.78125 26.832031 35.753906 26.867188 C 35.722656 26.902344 35.6875 26.933594 35.652344 26.960938 C 35.636719 26.976562 35.621094 26.984375 35.609375 27 C 35.667969 26.933594 35.660156 26.960938 35.632812 26.976562 C 35.589844 27.003906 35.542969 27.035156 35.503906 27.066406 C 35.488281 27.070312 35.464844 27.085938 35.453125 27.09375 C 35.4375 27.101562 35.421875 27.109375 35.402344 27.113281 C 35.421875 27.109375 35.441406 27.097656 35.460938 27.09375 C 35.421875 27.101562 35.378906 27.121094 35.34375 27.128906 C 35.328125 27.136719 35.316406 27.136719 35.300781 27.136719 C 35.21875 27.160156 35.398438 27.128906 35.34375 27.128906 L 35.257812 27.128906 C 35.191406 27.136719 35.328125 27.136719 35.320312 27.136719 C 35.300781 27.132812 35.277344 27.128906 35.257812 27.121094 C 35.191406 27.109375 35.175781 27.070312 35.269531 27.136719 C 35.25 27.121094 35.226562 27.113281 35.207031 27.101562 C 35.183594 27.085938 35.164062 27.070312 35.140625 27.054688 C 35.265625 27.121094 35.191406 27.101562 35.15625 27.054688 C 35.136719 27.035156 35.113281 27.015625 35.097656 26.992188 C 35.089844 26.984375 35.082031 26.976562 35.078125 26.96875 C 35.03125 26.917969 35.148438 27.070312 35.113281 27.015625 C 35.082031 26.976562 35.0625 26.933594 35.03125 26.886719 C 34.996094 26.824219 34.941406 26.679688 35.011719 26.867188 C 34.925781 26.648438 34.703125 26.46875 34.457031 26.546875 C 34.242188 26.621094 34.054688 26.867188 34.140625 27.109375 C 34.222656 27.304688 34.320312 27.476562 34.460938 27.636719 C 34.730469 27.9375 35.113281 28.066406 35.503906 28.003906 C 35.960938 27.921875 36.351562 27.566406 36.609375 27.195312 C 36.820312 26.898438 36.949219 26.542969 37.007812 26.1875 C 37.042969 25.972656 37.070312 25.753906 37.058594 25.539062 C 37.042969 25.300781 36.863281 25.074219 36.609375 25.089844 C 36.394531 25.117188 36.15625 25.304688 36.171875 25.558594 Z M 36.171875 25.558594 "/>
<path style=" stroke:none;fill-rule:nonzero;fill:rgb(0%,0%,0%);fill-opacity:1;" d="M 34.480469 25.136719 C 34.484375 25.261719 34.480469 25.386719 34.472656 25.511719 C 34.472656 25.53125 34.457031 25.632812 34.472656 25.539062 C 34.484375 25.445312 34.472656 25.554688 34.460938 25.574219 C 34.449219 25.640625 34.433594 25.710938 34.421875 25.777344 C 34.40625 25.84375 34.382812 25.910156 34.363281 25.976562 C 34.351562 26.011719 34.335938 26.046875 34.320312 26.082031 C 34.363281 25.945312 34.328125 26.066406 34.304688 26.105469 C 34.273438 26.175781 34.234375 26.242188 34.191406 26.308594 C 34.171875 26.335938 34.140625 26.367188 34.125 26.402344 C 34.175781 26.308594 34.171875 26.351562 34.140625 26.382812 C 34.125 26.402344 34.109375 26.421875 34.089844 26.4375 L 34.003906 26.527344 C 33.988281 26.542969 33.964844 26.554688 33.953125 26.570312 C 33.886719 26.625 33.964844 26.578125 33.964844 26.5625 C 33.964844 26.582031 33.875 26.625 33.855469 26.644531 C 33.816406 26.664062 33.742188 26.6875 33.714844 26.714844 C 33.722656 26.710938 33.824219 26.679688 33.75 26.699219 C 33.730469 26.710938 33.714844 26.714844 33.691406 26.714844 C 33.644531 26.730469 33.558594 26.722656 33.691406 26.722656 L 33.59375 26.722656 C 33.484375 26.722656 33.703125 26.753906 33.597656 26.722656 C 33.59375 26.722656 33.519531 26.710938 33.515625 26.691406 C 33.515625 26.6875 33.628906 26.753906 33.570312 26.714844 C 33.566406 26.710938 33.546875 26.710938 33.542969 26.699219 C 33.519531 26.6875 33.5 26.671875 33.46875 26.65625 C 33.417969 26.625 33.519531 26.691406 33.519531 26.699219 C 33.519531 26.699219 33.492188 26.671875 33.484375 26.671875 C 33.464844 26.648438 33.441406 26.625 33.417969 26.605469 C 33.390625 26.570312 33.339844 26.488281 33.4375 26.625 C 33.40625 26.589844 33.378906 26.554688 33.355469 26.511719 C 33.339844 26.480469 33.324219 26.453125 33.304688 26.425781 C 33.261719 26.34375 33.324219 26.480469 33.335938 26.492188 C 33.300781 26.378906 33.222656 26.28125 33.125 26.222656 C 33.019531 26.160156 32.894531 26.144531 32.777344 26.175781 C 32.570312 26.242188 32.367188 26.5 32.460938 26.738281 C 32.542969 26.933594 32.640625 27.109375 32.785156 27.265625 C 33.058594 27.566406 33.441406 27.6875 33.835938 27.617188 C 34.296875 27.527344 34.6875 27.160156 34.941406 26.78125 C 35.136719 26.480469 35.257812 26.132812 35.316406 25.785156 C 35.347656 25.574219 35.378906 25.347656 35.359375 25.136719 C 35.335938 24.898438 35.164062 24.671875 34.914062 24.6875 C 34.703125 24.695312 34.460938 24.882812 34.480469 25.136719 Z M 34.480469 25.136719 "/>
<path style=" stroke:none;fill-rule:nonzero;fill:rgb(0%,0%,0%);fill-opacity:1;" d="M 32.894531 24.738281 C 32.894531 24.777344 32.894531 24.8125 32.886719 24.839844 C 32.886719 24.878906 32.878906 24.910156 32.875 24.949219 C 32.886719 24.753906 32.875 24.941406 32.855469 25 C 32.835938 25.125 32.800781 25.25 32.761719 25.371094 C 32.75 25.40625 32.734375 25.445312 32.722656 25.480469 C 32.707031 25.511719 32.683594 25.542969 32.746094 25.4375 C 32.734375 25.449219 32.730469 25.464844 32.722656 25.480469 C 32.683594 25.554688 32.648438 25.632812 32.605469 25.699219 C 32.585938 25.730469 32.566406 25.761719 32.539062 25.792969 C 32.527344 25.808594 32.511719 25.828125 32.503906 25.84375 C 32.503906 25.835938 32.578125 25.753906 32.527344 25.816406 C 32.46875 25.878906 32.40625 25.953125 32.339844 26.011719 C 32.324219 26.027344 32.3125 26.03125 32.296875 26.046875 C 32.265625 26.066406 32.246094 26.066406 32.316406 26.027344 C 32.28125 26.046875 32.246094 26.078125 32.210938 26.097656 C 32.167969 26.121094 32.132812 26.144531 32.085938 26.164062 C 32.015625 26.199219 32.101562 26.15625 32.117188 26.15625 C 32.09375 26.15625 32.066406 26.175781 32.042969 26.1875 C 32.007812 26.199219 31.960938 26.199219 31.929688 26.214844 C 31.9375 26.214844 32.050781 26.207031 31.980469 26.207031 L 31.886719 26.207031 C 31.828125 26.207031 31.871094 26.175781 31.9375 26.214844 C 31.910156 26.199219 31.878906 26.191406 31.851562 26.191406 C 31.792969 26.175781 31.910156 26.214844 31.910156 26.222656 C 31.894531 26.214844 31.878906 26.207031 31.871094 26.199219 C 31.847656 26.1875 31.828125 26.171875 31.808594 26.15625 C 31.757812 26.125 31.859375 26.191406 31.859375 26.191406 C 31.847656 26.183594 31.835938 26.171875 31.828125 26.164062 C 31.804688 26.140625 31.785156 26.121094 31.765625 26.097656 C 31.757812 26.089844 31.75 26.082031 31.742188 26.078125 C 31.691406 26.027344 31.808594 26.175781 31.769531 26.121094 C 31.757812 26.097656 31.742188 26.078125 31.726562 26.054688 C 31.707031 26.019531 31.6875 25.972656 31.664062 25.933594 C 31.640625 25.886719 31.621094 25.804688 31.675781 25.976562 C 31.667969 25.960938 31.667969 25.953125 31.664062 25.9375 C 31.65625 25.921875 31.65625 25.914062 31.648438 25.902344 C 31.574219 25.675781 31.332031 25.511719 31.09375 25.582031 C 30.871094 25.65625 30.707031 25.894531 30.777344 26.144531 C 30.933594 26.671875 31.410156 27.160156 31.992188 27.101562 C 32.878906 27.019531 33.492188 26.175781 33.691406 25.363281 C 33.742188 25.152344 33.78125 24.933594 33.789062 24.714844 C 33.789062 24.476562 33.578125 24.25 33.339844 24.265625 C 33.097656 24.292969 32.894531 24.476562 32.894531 24.738281 Z M 32.894531 24.738281 "/>
<path style=" stroke:none;fill-rule:nonzero;fill:rgb(0%,0%,0%);fill-opacity:1;" d="M 31.417969 24.144531 C 31.417969 24.179688 31.410156 24.214844 31.410156 24.25 C 31.402344 24.3125 31.429688 24.105469 31.417969 24.1875 C 31.410156 24.210938 31.410156 24.230469 31.402344 24.261719 C 31.394531 24.3125 31.378906 24.359375 31.375 24.410156 C 31.347656 24.535156 31.308594 24.660156 31.257812 24.78125 C 31.214844 24.890625 31.300781 24.703125 31.25 24.789062 C 31.234375 24.828125 31.222656 24.855469 31.203125 24.890625 C 31.167969 24.964844 31.125 25.03125 31.078125 25.09375 C 31.050781 25.132812 30.976562 25.203125 31.0625 25.117188 C 31.035156 25.144531 31.015625 25.183594 30.984375 25.210938 L 30.898438 25.300781 C 30.882812 25.3125 30.800781 25.378906 30.800781 25.394531 C 30.800781 25.371094 30.878906 25.335938 30.8125 25.386719 C 30.800781 25.398438 30.785156 25.40625 30.761719 25.421875 C 30.726562 25.445312 30.6875 25.472656 30.648438 25.492188 C 30.625 25.5 30.609375 25.515625 30.589844 25.523438 C 30.582031 25.53125 30.566406 25.53125 30.558594 25.539062 C 30.523438 25.554688 30.523438 25.554688 30.558594 25.539062 C 30.566406 25.53125 30.574219 25.53125 30.589844 25.523438 L 30.539062 25.542969 C 30.515625 25.554688 30.488281 25.558594 30.464844 25.566406 C 30.453125 25.574219 30.4375 25.574219 30.414062 25.574219 C 30.34375 25.589844 30.460938 25.566406 30.464844 25.566406 C 30.4375 25.558594 30.386719 25.566406 30.359375 25.566406 C 30.289062 25.566406 30.480469 25.597656 30.382812 25.566406 C 30.351562 25.558594 30.320312 25.542969 30.292969 25.539062 C 30.386719 25.554688 30.386719 25.582031 30.34375 25.558594 C 30.332031 25.554688 30.320312 25.546875 30.308594 25.539062 C 30.300781 25.53125 30.289062 25.523438 30.28125 25.515625 C 30.230469 25.488281 30.332031 25.554688 30.332031 25.558594 C 30.292969 25.515625 30.25 25.480469 30.214844 25.445312 C 30.191406 25.414062 30.191406 25.386719 30.257812 25.492188 C 30.25 25.480469 30.242188 25.46875 30.230469 25.457031 C 30.214844 25.4375 30.199219 25.414062 30.191406 25.394531 C 30.1875 25.378906 30.121094 25.269531 30.128906 25.261719 C 30.128906 25.261719 30.179688 25.398438 30.148438 25.3125 C 30.144531 25.300781 30.144531 25.292969 30.136719 25.277344 C 30.128906 25.261719 30.128906 25.253906 30.121094 25.238281 C 30.0625 25.007812 29.796875 24.847656 29.566406 24.921875 C 29.335938 25 29.183594 25.234375 29.25 25.480469 C 29.386719 26.011719 29.847656 26.5 30.425781 26.476562 C 30.890625 26.460938 31.347656 26.175781 31.648438 25.820312 C 31.902344 25.523438 32.082031 25.175781 32.195312 24.789062 C 32.253906 24.578125 32.296875 24.355469 32.3125 24.136719 C 32.328125 23.894531 32.09375 23.671875 31.863281 23.683594 C 31.617188 23.695312 31.421875 23.894531 31.417969 24.144531 Z M 31.417969 24.144531 "/>
<path style=" stroke:none;fill-rule:nonzero;fill:rgb(0%,0%,0%);fill-opacity:1;" d="M 29.394531 22.589844 C 29.40625 22.640625 29.414062 22.6875 29.421875 22.738281 C 29.429688 22.769531 29.429688 22.789062 29.4375 22.820312 C 29.453125 22.894531 29.429688 22.769531 29.429688 22.769531 C 29.433594 22.769531 29.433594 22.820312 29.433594 22.835938 C 29.445312 22.921875 29.453125 23 29.457031 23.089844 C 29.488281 23.5625 29.429688 24.039062 29.285156 24.492188 C 29.199219 24.796875 29.078125 25.082031 28.925781 25.355469 C 28.78125 25.621094 28.609375 25.894531 28.371094 26.082031 C 28.421875 26.046875 28.285156 26.132812 28.269531 26.144531 C 28.257812 26.148438 28.183594 26.1875 28.234375 26.164062 C 28.285156 26.144531 28.214844 26.171875 28.203125 26.171875 C 28.183594 26.175781 28.046875 26.207031 28.113281 26.199219 C 28.167969 26.191406 28.019531 26.191406 27.996094 26.199219 C 27.941406 26.207031 28.070312 26.226562 28.023438 26.199219 C 28.011719 26.191406 27.980469 26.191406 27.96875 26.1875 L 27.910156 26.164062 C 27.851562 26.15625 27.972656 26.207031 27.929688 26.171875 C 27.902344 26.148438 27.851562 26.125 27.824219 26.105469 C 27.808594 26.097656 27.757812 26.054688 27.800781 26.089844 C 27.859375 26.132812 27.773438 26.058594 27.765625 26.054688 C 27.730469 26.019531 27.699219 25.980469 27.664062 25.945312 C 27.746094 26.03125 27.644531 25.910156 27.621094 25.871094 C 27.59375 25.824219 27.570312 25.777344 27.550781 25.726562 C 27.59375 25.820312 27.542969 25.703125 27.535156 25.671875 C 27.519531 25.625 27.519531 25.574219 27.5 25.53125 C 27.527344 25.617188 27.507812 25.597656 27.507812 25.558594 C 27.507812 25.53125 27.5 25.492188 27.5 25.464844 L 27.5 25.40625 C 27.492188 25.320312 27.46875 25.492188 27.5 25.40625 C 27.515625 25.355469 27.519531 25.3125 27.542969 25.261719 C 27.628906 25.03125 27.449219 24.765625 27.226562 24.703125 C 26.972656 24.628906 26.757812 24.789062 26.671875 25.023438 C 26.289062 26.054688 27.3125 27.347656 28.398438 27.066406 C 29.140625 26.867188 29.617188 26.082031 29.90625 25.429688 C 30.1875 24.789062 30.351562 24.117188 30.371094 23.417969 C 30.382812 23.066406 30.367188 22.6875 30.273438 22.355469 C 30.203125 22.117188 29.957031 21.972656 29.71875 22.035156 C 29.601562 22.066406 29.503906 22.140625 29.441406 22.246094 C 29.378906 22.347656 29.363281 22.472656 29.394531 22.589844 Z M 13.484375 17.609375 C 12.027344 18.765625 10.738281 20.375 10.003906 22.085938 C 9.441406 23.417969 9.308594 24.859375 8.632812 26.164062 C 8.40625 26.613281 8.132812 27.113281 7.75 27.457031 C 7.363281 27.804688 7.859375 28.414062 8.296875 28.167969 C 9.226562 27.644531 10.089844 26.960938 10.90625 26.269531 C 12.675781 24.746094 14.203125 22.898438 15.277344 20.808594 C 15.542969 20.289062 14.765625 19.828125 14.496094 20.351562 C 13.050781 23.191406 10.636719 25.820312 7.851562 27.390625 C 8.03125 27.632812 8.210938 27.863281 8.398438 28.101562 C 8.789062 27.753906 9.085938 27.257812 9.328125 26.808594 C 9.621094 26.265625 9.859375 25.683594 10.0625 25.09375 C 10.3125 24.355469 10.429688 23.570312 10.691406 22.835938 C 11.316406 21.054688 12.667969 19.417969 14.132812 18.257812 C 14.578125 17.894531 13.9375 17.253906 13.484375 17.609375 Z M 13.484375 17.609375 "/>
<path style=" stroke:none;fill-rule:nonzero;fill:rgb(0%,0%,0%);fill-opacity:1;" d="M 14.769531 20.679688 C 13.40625 21.984375 12.246094 23.722656 11.667969 25.53125 C 11.234375 26.886719 11.230469 28.320312 10.695312 29.664062 C 10.515625 30.125 10.199219 30.746094 9.953125 31.007812 C 9.621094 31.375 10.0625 32.027344 10.5 31.722656 C 13.304688 29.796875 15.578125 26.804688 16.847656 23.65625 C 17.0625 23.109375 16.191406 22.878906 15.972656 23.417969 C 15.132812 25.515625 13.824219 27.390625 12.25 29.003906 C 11.566406 29.703125 10.835938 30.398438 10.046875 30.945312 C 10.226562 31.183594 10.40625 31.417969 10.59375 31.65625 C 11.898438 30.242188 11.972656 28.132812 12.378906 26.367188 C 12.820312 24.472656 14.023438 22.65625 15.414062 21.324219 C 15.828125 20.917969 15.199219 20.277344 14.769531 20.679688 Z M 14.769531 20.679688 "/>
<path style=" stroke:none;fill-rule:nonzero;fill:rgb(0%,0%,0%);fill-opacity:1;" d="M 16.6875 22.210938 C 15.746094 23.589844 15.082031 25.3125 14.945312 26.992188 C 14.824219 28.503906 15.277344 30.398438 14.496094 31.714844 C 14.242188 32.152344 14.851562 32.644531 15.203125 32.269531 C 17.179688 30.175781 18.566406 27.277344 19.058594 24.449219 C 19.160156 23.871094 18.289062 23.632812 18.1875 24.210938 C 17.71875 26.886719 16.4375 29.644531 14.5625 31.628906 C 14.800781 31.808594 15.03125 31.992188 15.269531 32.179688 C 16.0625 30.835938 15.847656 29.074219 15.816406 27.601562 C 15.789062 25.886719 16.5 24.082031 17.457031 22.675781 C 17.789062 22.1875 17.011719 21.730469 16.6875 22.210938 Z M 16.6875 22.210938 "/>
<path style=" stroke:none;fill-rule:nonzero;fill:rgb(0%,0%,0%);fill-opacity:1;" d="M 18.605469 22.964844 C 17.984375 24.5 17.691406 26.308594 17.90625 27.953125 C 18.109375 29.476562 18.972656 31.15625 18.453125 32.722656 C 18.28125 33.25 18.996094 33.457031 19.273438 33.074219 C 19.765625 32.414062 20.125 31.636719 20.433594 30.878906 C 21.152344 29.105469 21.484375 27.191406 21.40625 25.277344 C 21.386719 24.695312 20.484375 24.6875 20.503906 25.277344 C 20.601562 27.769531 20.007812 30.582031 18.496094 32.617188 C 18.769531 32.730469 19.042969 32.847656 19.316406 32.960938 C 19.820312 31.445312 19.1875 29.753906 18.863281 28.285156 C 18.503906 26.644531 18.84375 24.753906 19.460938 23.210938 C 19.691406 22.660156 18.820312 22.429688 18.605469 22.964844 Z M 18.605469 22.964844 "/>
<path style=" stroke:none;fill-rule:nonzero;fill:rgb(0%,0%,0%);fill-opacity:1;" d="M 20.941406 25.203125 C 20.695312 26.460938 20.707031 27.863281 21.074219 29.089844 C 21.441406 30.296875 22.421875 31.472656 22.242188 32.8125 C 22.183594 33.261719 22.890625 33.421875 23.078125 33.046875 C 24.132812 30.90625 24.496094 28.253906 23.960938 25.933594 C 23.832031 25.363281 22.964844 25.605469 23.089844 26.171875 C 23.574219 28.246094 23.214844 30.726562 22.292969 32.585938 C 22.574219 32.667969 22.851562 32.738281 23.128906 32.816406 C 23.300781 31.519531 22.472656 30.324219 22.03125 29.179688 C 21.59375 28.03125 21.566406 26.597656 21.789062 25.457031 C 21.917969 24.871094 21.050781 24.628906 20.941406 25.203125 Z M 20.941406 25.203125 "/>
<path style=" stroke:none;fill-rule:nonzero;fill:rgb(0%,0%,0%);fill-opacity:1;" d="M 23.460938 26.53125 C 23.472656 27.488281 23.703125 28.488281 24.132812 29.339844 C 24.472656 30.015625 25.042969 30.523438 25.386719 31.195312 C 25.496094 31.402344 25.570312 31.574219 25.628906 31.800781 C 25.640625 31.859375 25.648438 31.925781 25.667969 31.984375 C 25.699219 32.078125 25.65625 31.859375 25.660156 31.941406 C 25.675781 32.164062 25.824219 32.363281 26.050781 32.382812 C 26.253906 32.402344 26.511719 32.28125 26.546875 32.058594 C 26.816406 30.175781 26.546875 28.125 25.734375 26.417969 C 25.484375 25.886719 24.714844 26.351562 24.957031 26.875 C 25.453125 27.921875 25.667969 29.089844 25.722656 30.242188 C 25.734375 30.640625 25.734375 31.03125 25.707031 31.429688 C 25.699219 31.546875 25.691406 31.664062 25.675781 31.78125 C 25.667969 31.875 25.648438 31.984375 25.675781 31.816406 C 25.972656 31.859375 26.269531 31.894531 26.5625 31.941406 C 26.535156 31.597656 26.414062 31.269531 26.273438 30.964844 C 26.128906 30.648438 25.949219 30.347656 25.75 30.0625 C 25.527344 29.753906 25.257812 29.476562 25.058594 29.140625 C 24.589844 28.359375 24.375 27.398438 24.359375 26.53125 C 24.351562 25.945312 23.453125 25.945312 23.460938 26.53125 Z M 23.460938 26.53125 "/>
<path style=" stroke:none;fill-rule:nonzero;fill:rgb(0%,0%,0%);fill-opacity:1;" d="M 27.671875 27.019531 C 27.671875 27.054688 27.664062 27.09375 27.664062 27.128906 C 27.65625 27.1875 27.6875 26.984375 27.671875 27.066406 C 27.664062 27.085938 27.664062 27.109375 27.65625 27.136719 C 27.652344 27.1875 27.636719 27.238281 27.628906 27.289062 C 27.601562 27.414062 27.5625 27.535156 27.511719 27.660156 C 27.472656 27.769531 27.554688 27.582031 27.507812 27.667969 C 27.492188 27.703125 27.476562 27.730469 27.457031 27.769531 C 27.421875 27.839844 27.378906 27.910156 27.332031 27.972656 C 27.304688 28.007812 27.234375 28.082031 27.316406 27.992188 C 27.289062 28.023438 27.269531 28.058594 27.238281 28.085938 C 27.210938 28.117188 27.183594 28.148438 27.15625 28.175781 C 27.136719 28.191406 27.054688 28.257812 27.054688 28.269531 C 27.054688 28.246094 27.132812 28.214844 27.066406 28.265625 C 27.054688 28.277344 27.039062 28.285156 27.015625 28.296875 C 26.980469 28.320312 26.945312 28.347656 26.902344 28.371094 C 26.882812 28.378906 26.867188 28.394531 26.84375 28.402344 C 26.835938 28.410156 26.824219 28.410156 26.816406 28.414062 C 26.78125 28.429688 26.78125 28.429688 26.816406 28.414062 C 26.820312 28.410156 26.832031 28.410156 26.84375 28.402344 C 26.832031 28.410156 26.808594 28.414062 26.792969 28.421875 L 26.71875 28.445312 C 26.707031 28.453125 26.691406 28.453125 26.671875 28.453125 C 26.597656 28.464844 26.714844 28.445312 26.71875 28.445312 C 26.691406 28.4375 26.640625 28.445312 26.613281 28.445312 C 26.542969 28.445312 26.738281 28.476562 26.636719 28.445312 C 26.605469 28.4375 26.574219 28.421875 26.546875 28.414062 C 26.640625 28.429688 26.640625 28.457031 26.597656 28.4375 C 26.585938 28.429688 26.570312 28.421875 26.5625 28.414062 C 26.554688 28.410156 26.542969 28.402344 26.535156 28.394531 C 26.484375 28.363281 26.585938 28.429688 26.585938 28.4375 C 26.546875 28.394531 26.503906 28.359375 26.46875 28.320312 C 26.449219 28.292969 26.449219 28.265625 26.511719 28.371094 C 26.507812 28.359375 26.492188 28.34375 26.484375 28.335938 C 26.46875 28.3125 26.453125 28.292969 26.449219 28.269531 C 26.441406 28.253906 26.375 28.148438 26.382812 28.140625 C 26.382812 28.140625 26.433594 28.277344 26.402344 28.191406 C 26.398438 28.175781 26.398438 28.167969 26.390625 28.152344 C 26.382812 28.140625 26.382812 28.132812 26.375 28.117188 C 26.320312 27.886719 26.050781 27.726562 25.824219 27.796875 C 25.589844 27.878906 25.4375 28.109375 25.503906 28.359375 C 25.640625 28.886719 26.101562 29.375 26.679688 29.351562 C 27.144531 29.335938 27.601562 29.054688 27.902344 28.699219 C 28.15625 28.402344 28.335938 28.054688 28.449219 27.667969 C 28.507812 27.453125 28.550781 27.230469 28.566406 27.015625 C 28.582031 26.773438 28.347656 26.546875 28.117188 26.5625 C 27.875 26.574219 27.675781 26.773438 27.671875 27.019531 Z M 27.671875 27.019531 "/>
<path style=" stroke:none;fill-rule:nonzero;fill:rgb(0%,0%,0%);fill-opacity:1;" d="M 29.496094 26.15625 C 29.5 26.191406 29.507812 26.238281 29.519531 26.269531 C 29.519531 26.292969 29.523438 26.308594 29.523438 26.332031 C 29.53125 26.371094 29.507812 26.191406 29.519531 26.308594 C 29.523438 26.375 29.53125 26.433594 29.53125 26.5 C 29.539062 26.65625 29.53125 26.824219 29.519531 26.984375 C 29.519531 27 29.519531 27.035156 29.507812 27.046875 C 29.539062 26.96875 29.519531 27 29.507812 27.027344 C 29.5 27.078125 29.496094 27.136719 29.480469 27.1875 C 29.457031 27.296875 29.433594 27.398438 29.402344 27.507812 C 29.277344 27.914062 29.078125 28.363281 28.746094 28.640625 C 28.839844 28.570312 28.714844 28.65625 28.695312 28.667969 C 28.601562 28.726562 28.777344 28.652344 28.675781 28.675781 C 28.660156 28.683594 28.535156 28.707031 28.625 28.691406 C 28.695312 28.683594 28.644531 28.691406 28.625 28.691406 L 28.550781 28.691406 C 28.492188 28.691406 28.652344 28.71875 28.601562 28.699219 C 28.585938 28.691406 28.570312 28.691406 28.558594 28.683594 C 28.542969 28.675781 28.53125 28.667969 28.515625 28.667969 C 28.464844 28.652344 28.601562 28.71875 28.558594 28.683594 C 28.535156 28.667969 28.5 28.652344 28.480469 28.632812 C 28.464844 28.625 28.414062 28.589844 28.480469 28.632812 C 28.542969 28.675781 28.472656 28.625 28.464844 28.613281 C 28.449219 28.597656 28.40625 28.53125 28.390625 28.53125 C 28.4375 28.539062 28.449219 28.613281 28.421875 28.570312 C 28.410156 28.546875 28.394531 28.527344 28.378906 28.507812 C 28.363281 28.488281 28.34375 28.414062 28.320312 28.402344 C 28.328125 28.410156 28.355469 28.507812 28.34375 28.445312 C 28.335938 28.421875 28.328125 28.410156 28.320312 28.386719 C 28.3125 28.359375 28.3125 28.304688 28.296875 28.285156 C 28.335938 28.335938 28.304688 28.386719 28.304688 28.335938 L 28.304688 28.21875 C 28.296875 28.140625 28.277344 28.320312 28.296875 28.246094 C 28.304688 28.214844 28.3125 28.175781 28.328125 28.140625 C 28.410156 27.914062 28.234375 27.632812 28.011719 27.582031 C 27.757812 27.519531 27.542969 27.660156 27.457031 27.898438 C 27.320312 28.277344 27.433594 28.75 27.667969 29.070312 C 27.953125 29.453125 28.398438 29.6875 28.882812 29.5625 C 29.464844 29.410156 29.839844 28.816406 30.070312 28.292969 C 30.289062 27.796875 30.414062 27.277344 30.433594 26.738281 C 30.4375 26.46875 30.425781 26.175781 30.351562 25.914062 C 30.292969 25.683594 30.027344 25.523438 29.796875 25.597656 C 29.566406 25.675781 29.433594 25.917969 29.496094 26.15625 Z M 29.496094 26.15625 "/>
<path style=" stroke:none;fill-rule:nonzero;fill:rgb(0%,0%,0%);fill-opacity:1;" d="M 31.410156 26.789062 C 31.417969 26.808594 31.425781 26.832031 31.429688 26.855469 C 31.445312 26.925781 31.441406 26.949219 31.429688 26.816406 C 31.429688 26.855469 31.441406 26.886719 31.441406 26.933594 C 31.441406 26.976562 31.441406 27.019531 31.429688 27.070312 L 31.429688 27.109375 C 31.425781 27.179688 31.453125 27 31.441406 27.046875 C 31.429688 27.078125 31.429688 27.109375 31.425781 27.136719 C 31.410156 27.203125 31.390625 27.265625 31.367188 27.332031 C 31.351562 27.363281 31.347656 27.398438 31.332031 27.425781 C 31.3125 27.5 31.339844 27.398438 31.347656 27.398438 C 31.332031 27.421875 31.324219 27.449219 31.3125 27.476562 C 31.222656 27.667969 31.105469 27.835938 30.996094 28.003906 C 30.984375 28.015625 30.945312 28.066406 30.996094 28.007812 C 30.976562 28.03125 30.957031 28.054688 30.945312 28.074219 C 30.914062 28.109375 30.878906 28.148438 30.839844 28.183594 C 30.828125 28.199219 30.804688 28.214844 30.792969 28.234375 C 30.785156 28.242188 30.707031 28.3125 30.761719 28.265625 C 30.804688 28.21875 30.761719 28.265625 30.746094 28.277344 C 30.726562 28.292969 30.695312 28.3125 30.675781 28.328125 C 30.660156 28.335938 30.640625 28.347656 30.625 28.359375 C 30.566406 28.386719 30.582031 28.347656 30.648438 28.347656 C 30.617188 28.347656 30.578125 28.371094 30.554688 28.378906 C 30.539062 28.386719 30.523438 28.386719 30.503906 28.386719 C 30.433594 28.402344 30.546875 28.378906 30.554688 28.378906 C 30.523438 28.371094 30.472656 28.378906 30.4375 28.378906 C 30.367188 28.378906 30.488281 28.386719 30.488281 28.386719 C 30.472656 28.378906 30.453125 28.378906 30.4375 28.378906 C 30.410156 28.371094 30.382812 28.363281 30.359375 28.359375 C 30.265625 28.328125 30.460938 28.410156 30.359375 28.359375 C 30.34375 28.347656 30.289062 28.296875 30.273438 28.296875 C 30.28125 28.296875 30.359375 28.378906 30.316406 28.328125 C 30.304688 28.3125 30.289062 28.296875 30.273438 28.285156 C 30.25 28.265625 30.230469 28.226562 30.207031 28.214844 C 30.214844 28.214844 30.273438 28.3125 30.242188 28.253906 C 30.238281 28.242188 30.222656 28.21875 30.214844 28.203125 C 30.207031 28.191406 30.199219 28.183594 30.191406 28.167969 C 30.171875 28.125 30.1875 28.085938 30.207031 28.203125 C 30.199219 28.175781 30.1875 28.152344 30.1875 28.125 C 30.1875 28.117188 30.171875 28.082031 30.179688 28.082031 C 30.1875 28.074219 30.1875 28.21875 30.1875 28.140625 L 30.1875 28.097656 C 30.1875 28.03125 30.164062 28.203125 30.179688 28.152344 C 30.191406 28.109375 30.238281 28.007812 30.164062 28.152344 C 30.265625 27.9375 30.230469 27.652344 30.003906 27.527344 C 29.804688 27.421875 29.496094 27.464844 29.386719 27.691406 C 29.199219 28.101562 29.300781 28.523438 29.589844 28.859375 C 29.875 29.191406 30.332031 29.324219 30.75 29.242188 C 31.28125 29.140625 31.65625 28.667969 31.929688 28.242188 C 32.15625 27.890625 32.296875 27.496094 32.347656 27.078125 C 32.359375 26.902344 32.359375 26.699219 32.296875 26.53125 C 32.253906 26.417969 32.203125 26.332031 32.085938 26.265625 C 31.984375 26.203125 31.859375 26.1875 31.742188 26.222656 C 31.511719 26.300781 31.308594 26.554688 31.410156 26.789062 Z M 31.410156 26.789062 "/>
<path style=" stroke:none;fill-rule:nonzero;fill:rgb(0%,0%,0%);fill-opacity:1;" d="M 32.921875 27.355469 C 32.835938 27.164062 32.878906 27.246094 32.894531 27.304688 C 32.90625 27.355469 32.902344 27.4375 32.886719 27.253906 C 32.886719 27.28125 32.894531 27.3125 32.894531 27.339844 C 32.894531 27.375 32.886719 27.414062 32.886719 27.449219 C 32.886719 27.5 32.90625 27.3125 32.894531 27.382812 C 32.894531 27.390625 32.894531 27.402344 32.886719 27.414062 C 32.878906 27.433594 32.878906 27.464844 32.875 27.484375 C 32.855469 27.535156 32.84375 27.585938 32.828125 27.632812 C 32.796875 27.726562 32.878906 27.53125 32.835938 27.625 C 32.824219 27.652344 32.808594 27.6875 32.785156 27.71875 C 32.75 27.78125 32.714844 27.84375 32.679688 27.898438 C 32.65625 27.9375 32.632812 27.964844 32.613281 27.992188 C 32.570312 28.058594 32.621094 27.980469 32.628906 27.980469 C 32.601562 28 32.582031 28.027344 32.5625 28.058594 C 32.503906 28.125 32.449219 28.183594 32.390625 28.242188 C 32.355469 28.277344 32.359375 28.234375 32.421875 28.226562 C 32.410156 28.226562 32.382812 28.257812 32.375 28.257812 C 32.34375 28.28125 32.3125 28.296875 32.277344 28.3125 C 32.183594 28.363281 32.367188 28.285156 32.277344 28.3125 C 32.246094 28.320312 32.214844 28.328125 32.1875 28.335938 C 32.09375 28.359375 32.296875 28.328125 32.203125 28.335938 L 32.117188 28.335938 C 32.050781 28.335938 32.171875 28.34375 32.183594 28.34375 C 32.183594 28.34375 32.152344 28.335938 32.144531 28.335938 C 32.121094 28.328125 32.097656 28.320312 32.074219 28.3125 C 31.972656 28.277344 32.167969 28.363281 32.085938 28.320312 C 32.0625 28.304688 32.039062 28.289062 32.015625 28.277344 C 31.929688 28.21875 32.09375 28.359375 32.023438 28.285156 C 32 28.269531 31.988281 28.246094 31.972656 28.226562 C 31.921875 28.167969 32.039062 28.328125 31.988281 28.246094 C 31.980469 28.242188 31.941406 28.191406 31.949219 28.175781 C 31.960938 28.167969 31.992188 28.296875 31.980469 28.242188 C 31.980469 28.226562 31.972656 28.21875 31.972656 28.203125 C 31.949219 28.101562 31.972656 28.308594 31.980469 28.246094 L 31.980469 28.21875 C 31.972656 28.167969 31.949219 28.335938 31.972656 28.285156 C 32.007812 28.183594 31.929688 28.363281 31.957031 28.3125 C 32.066406 28.101562 32.023438 27.8125 31.796875 27.6875 C 31.597656 27.582031 31.296875 27.625 31.179688 27.847656 C 31 28.203125 31.101562 28.589844 31.359375 28.875 C 31.625 29.164062 32.03125 29.265625 32.40625 29.191406 C 32.855469 29.113281 33.179688 28.742188 33.4375 28.378906 C 33.636719 28.085938 33.765625 27.761719 33.800781 27.414062 C 33.816406 27.226562 33.785156 27.039062 33.710938 26.867188 C 33.664062 26.773438 33.535156 26.6875 33.441406 26.65625 C 33.324219 26.628906 33.203125 26.644531 33.097656 26.699219 C 33 26.765625 32.917969 26.855469 32.886719 26.96875 C 32.847656 27.097656 32.859375 27.238281 32.921875 27.355469 Z M 60.574219 23.960938 C 62.230469 23.867188 63.914062 23.292969 65.378906 22.539062 C 66.769531 21.816406 68.042969 20.824219 69.042969 19.601562 C 70.191406 18.21875 70.816406 16.515625 72.148438 15.285156 C 75.3125 12.371094 80.914062 12.132812 84.078125 14.992188 C 84.363281 15.257812 85.640625 16.425781 85.359375 16.890625 C 85.214844 17.128906 84.363281 16.941406 84.136719 16.898438 C 83.027344 16.703125 81.917969 16.128906 80.964844 15.554688 C 80.46875 15.257812 80.015625 16.042969 80.511719 16.339844 C 81.4375 16.898438 85.105469 18.964844 86.128906 17.378906 C 86.878906 16.214844 85 14.554688 84.242188 13.964844 C 83.089844 13.070312 81.691406 12.496094 80.257812 12.242188 C 80.160156 12.226562 80.0625 12.210938 79.964844 12.199219 C 80.246094 12.242188 79.882812 12.183594 79.871094 12.183594 C 79.554688 12.144531 79.234375 12.117188 78.917969 12.109375 C 77.6875 12.074219 76.441406 12.210938 75.253906 12.5625 C 73.761719 12.996094 72.371094 13.765625 71.261719 14.871094 C 69.785156 16.347656 69.09375 18.367188 67.589844 19.835938 C 65.773438 21.601562 63.117188 22.90625 60.558594 23.046875 C 59.996094 23.089844 59.988281 24 60.574219 23.960938 Z M 60.574219 23.960938 "/>
<path style=" stroke:none;fill-rule:nonzero;fill:rgb(0%,0%,0%);fill-opacity:1;" d="M 77.59375 17.179688 C 78.683594 18.589844 80.207031 19.804688 81.835938 20.496094 C 82.589844 20.8125 83.832031 21.257812 84.429688 20.414062 C 84.824219 19.863281 84.675781 19.070312 84.503906 18.460938 C 84.359375 17.957031 84.164062 17.464844 83.925781 17 C 83.660156 16.476562 82.882812 16.941406 83.148438 17.457031 C 83.199219 17.558594 83.242188 17.660156 83.292969 17.761719 C 83.3125 17.808594 83.332031 17.859375 83.347656 17.902344 C 83.394531 18.003906 83.320312 17.835938 83.347656 17.902344 C 83.363281 17.929688 83.371094 17.957031 83.382812 17.980469 C 83.433594 18.113281 83.484375 18.25 83.539062 18.378906 C 83.636719 18.664062 83.71875 18.964844 83.765625 19.261719 C 83.78125 19.339844 83.761719 19.152344 83.765625 19.28125 C 83.773438 19.320312 83.773438 19.363281 83.773438 19.398438 C 83.777344 19.464844 83.773438 19.523438 83.773438 19.585938 C 83.773438 19.609375 83.773438 19.636719 83.765625 19.65625 C 83.761719 19.773438 83.789062 19.566406 83.765625 19.679688 C 83.75 19.746094 83.738281 19.8125 83.71875 19.871094 C 83.761719 19.753906 83.695312 19.902344 83.671875 19.929688 C 83.765625 19.789062 83.558594 20.023438 83.679688 19.914062 C 83.660156 19.929688 83.621094 19.957031 83.59375 19.964844 C 83.6875 19.933594 83.628906 19.949219 83.609375 19.957031 C 83.574219 19.972656 83.535156 19.980469 83.5 19.984375 C 83.601562 19.964844 83.476562 19.984375 83.457031 19.984375 C 83.015625 19.984375 82.542969 19.820312 82.117188 19.628906 C 81.136719 19.207031 80.25 18.570312 79.464844 17.851562 C 79.019531 17.453125 78.609375 17.015625 78.242188 16.542969 C 78.089844 16.347656 77.757812 16.382812 77.609375 16.542969 C 77.398438 16.730469 77.441406 16.984375 77.59375 17.179688 Z M 77.59375 17.179688 "/>
<path style=" stroke:none;fill-rule:nonzero;fill:rgb(0%,0%,0%);fill-opacity:1;" d="M 75.382812 18.882812 C 76.046875 19.933594 76.824219 21.003906 77.757812 21.828125 C 78.457031 22.445312 79.351562 22.878906 80.28125 22.996094 C 80.9375 23.074219 81.757812 22.949219 82.074219 22.289062 C 82.464844 21.46875 82.339844 20.300781 81.777344 19.597656 C 81.628906 19.40625 81.304688 19.433594 81.144531 19.597656 C 80.957031 19.785156 80.992188 20.046875 81.144531 20.234375 C 81.449219 20.617188 81.460938 21.410156 81.296875 21.832031 C 81.289062 21.855469 81.210938 21.992188 81.238281 21.949219 C 81.195312 22.011719 81.257812 21.941406 81.203125 21.984375 C 81.125 22.035156 81.160156 22.011719 81.101562 22.035156 C 81.035156 22.058594 80.96875 22.078125 80.90625 22.09375 C 80.65625 22.144531 80.332031 22.109375 80.054688 22.042969 C 78.632812 21.695312 77.679688 20.566406 76.839844 19.417969 C 76.597656 19.097656 76.371094 18.769531 76.152344 18.429688 C 75.851562 17.929688 75.074219 18.386719 75.382812 18.882812 Z M 75.382812 18.882812 "/>
<path style=" stroke:none;fill-rule:nonzero;fill:rgb(0%,0%,0%);fill-opacity:1;" d="M 73.019531 20.175781 C 73.308594 21.578125 74.085938 23.011719 75.140625 23.96875 C 75.914062 24.683594 77.074219 25.355469 78.164062 25.1875 C 78.898438 25.070312 79.351562 24.449219 79.488281 23.742188 C 79.585938 23.226562 79.589844 22.699219 79.503906 22.183594 C 79.457031 21.941406 79.164062 21.804688 78.945312 21.863281 C 78.695312 21.933594 78.59375 22.171875 78.628906 22.421875 C 78.644531 22.523438 78.628906 22.390625 78.628906 22.398438 C 78.640625 22.476562 78.644531 22.558594 78.652344 22.640625 C 78.667969 22.871094 78.660156 23.09375 78.644531 23.328125 C 78.644531 23.351562 78.625 23.472656 78.644531 23.359375 C 78.644531 23.378906 78.640625 23.410156 78.628906 23.429688 L 78.589844 23.632812 C 78.574219 23.695312 78.554688 23.757812 78.53125 23.816406 C 78.523438 23.839844 78.488281 23.917969 78.53125 23.832031 C 78.515625 23.867188 78.496094 23.910156 78.472656 23.949219 C 78.355469 24.148438 78.25 24.238281 78.039062 24.292969 C 77.90625 24.320312 77.773438 24.324219 77.636719 24.304688 C 77.453125 24.28125 77.207031 24.199219 77 24.121094 C 76.546875 23.933594 76.128906 23.667969 75.765625 23.335938 C 75.128906 22.753906 74.660156 22.023438 74.308594 21.238281 C 74.152344 20.875 73.96875 20.386719 73.878906 19.941406 C 73.769531 19.363281 72.898438 19.601562 73.019531 20.175781 Z M 73.019531 20.175781 "/>
<path style=" stroke:none;fill-rule:nonzero;fill:rgb(0%,0%,0%);fill-opacity:1;" d="M 70.59375 21.5625 C 70.628906 22.828125 71.105469 24.148438 71.890625 25.132812 C 72.488281 25.871094 73.4375 26.546875 74.410156 26.597656 C 75.160156 26.632812 75.707031 26.148438 75.980469 25.488281 C 76.136719 25.09375 76.21875 24.648438 76.21875 24.230469 C 76.21875 23.648438 75.316406 23.640625 75.316406 24.230469 C 75.316406 24.316406 75.3125 24.40625 75.304688 24.5 C 75.296875 24.535156 75.273438 24.6875 75.304688 24.527344 C 75.296875 24.570312 75.289062 24.617188 75.285156 24.660156 C 75.261719 24.765625 75.238281 24.882812 75.199219 24.992188 C 75.1875 25.050781 75.167969 25.105469 75.144531 25.160156 C 75.101562 25.28125 75.171875 25.117188 75.117188 25.226562 C 75.089844 25.277344 75.066406 25.328125 75.03125 25.378906 C 75.015625 25.398438 75 25.421875 74.988281 25.445312 C 74.945312 25.5 75.042969 25.386719 74.957031 25.480469 C 74.921875 25.515625 74.886719 25.554688 74.84375 25.589844 C 74.9375 25.511719 74.804688 25.609375 74.777344 25.625 C 74.753906 25.640625 74.65625 25.675781 74.761719 25.632812 C 74.734375 25.640625 74.710938 25.65625 74.683594 25.660156 C 74.65625 25.671875 74.625 25.675781 74.597656 25.683594 C 74.546875 25.691406 74.546875 25.691406 74.605469 25.683594 C 74.574219 25.683594 74.554688 25.691406 74.527344 25.691406 C 74.34375 25.691406 74.332031 25.691406 74.15625 25.648438 C 73.945312 25.585938 73.742188 25.496094 73.550781 25.382812 C 73.1875 25.171875 72.863281 24.902344 72.585938 24.578125 C 72.117188 24.027344 71.84375 23.371094 71.667969 22.6875 C 71.621094 22.539062 71.59375 22.378906 71.566406 22.222656 C 71.550781 22.144531 71.539062 22.074219 71.527344 21.992188 C 71.527344 21.96875 71.523438 21.949219 71.523438 21.933594 C 71.542969 22.078125 71.523438 21.949219 71.523438 21.917969 C 71.507812 21.804688 71.5 21.695312 71.492188 21.578125 C 71.476562 20.972656 70.578125 20.972656 70.59375 21.5625 Z M 70.59375 21.5625 "/>
<path style=" stroke:none;fill-rule:nonzero;fill:rgb(0%,0%,0%);fill-opacity:1;" d="M 71.492188 21.75 C 71.515625 21.375 71.363281 20.953125 71.027344 20.761719 C 70.160156 20.277344 69.082031 21.417969 68.535156 21.929688 C 66.949219 23.394531 64.527344 23.890625 62.476562 24.222656 C 61.90625 24.320312 61.332031 24.390625 60.753906 24.433594 C 60.179688 24.476562 60.179688 25.386719 60.753906 25.34375 C 62.066406 25.242188 63.367188 25.027344 64.644531 24.703125 C 65.660156 24.449219 66.660156 24.121094 67.597656 23.648438 C 68.042969 23.425781 68.464844 23.160156 68.855469 22.851562 C 69.316406 22.476562 69.699219 22.027344 70.210938 21.722656 C 70.347656 21.644531 70.527344 21.613281 70.636719 21.5625 C 70.542969 21.605469 70.589844 21.445312 70.585938 21.570312 C 70.585938 21.511719 70.609375 21.699219 70.601562 21.644531 C 70.609375 21.679688 70.601562 21.71875 70.601562 21.75 C 70.558594 22.339844 71.457031 22.332031 71.492188 21.75 Z M 71.492188 21.75 "/>
<path style=" stroke:none;fill-rule:nonzero;fill:rgb(0%,0%,0%);fill-opacity:1;" d="M 60.429688 24.921875 C 60.324219 25.414062 60.34375 25.980469 60.515625 26.453125 C 60.675781 26.898438 60.957031 27.3125 61.367188 27.550781 C 61.726562 27.761719 62.179688 27.777344 62.53125 27.535156 C 62.726562 27.402344 62.914062 27.222656 63.03125 27.015625 C 63.144531 26.808594 63.089844 26.503906 62.871094 26.386719 C 62.65625 26.265625 62.382812 26.335938 62.253906 26.546875 C 62.230469 26.578125 62.207031 26.605469 62.1875 26.644531 C 62.296875 26.492188 62.21875 26.605469 62.179688 26.648438 C 62.144531 26.6875 62.109375 26.722656 62.074219 26.75 C 62.03125 26.789062 62.121094 26.710938 62.121094 26.710938 C 62.121094 26.710938 62.09375 26.730469 62.085938 26.730469 C 62.0625 26.742188 62.042969 26.757812 62.023438 26.773438 C 62.011719 26.78125 62 26.78125 61.992188 26.789062 C 61.933594 26.824219 62.09375 26.753906 62.042969 26.765625 C 62.011719 26.773438 61.980469 26.789062 61.949219 26.796875 C 61.851562 26.824219 62.058594 26.796875 61.96875 26.796875 L 61.886719 26.796875 C 62 26.789062 61.984375 26.808594 61.941406 26.804688 C 61.929688 26.796875 61.90625 26.796875 61.890625 26.789062 C 61.875 26.78125 61.859375 26.773438 61.839844 26.773438 C 61.769531 26.753906 61.933594 26.824219 61.863281 26.78125 C 61.835938 26.765625 61.804688 26.742188 61.769531 26.730469 C 61.761719 26.722656 61.753906 26.71875 61.75 26.714844 C 61.8125 26.757812 61.734375 26.699219 61.71875 26.691406 C 61.691406 26.664062 61.660156 26.636719 61.632812 26.605469 C 61.617188 26.59375 61.605469 26.570312 61.582031 26.554688 C 61.566406 26.542969 61.515625 26.460938 61.550781 26.527344 C 61.589844 26.59375 61.546875 26.519531 61.539062 26.503906 C 61.53125 26.492188 61.515625 26.476562 61.511719 26.460938 C 61.488281 26.421875 61.464844 26.382812 61.445312 26.34375 C 61.429688 26.316406 61.417969 26.289062 61.394531 26.25 C 61.386719 26.234375 61.359375 26.15625 61.386719 26.234375 C 61.417969 26.316406 61.378906 26.222656 61.378906 26.207031 C 61.328125 26.066406 61.292969 25.925781 61.273438 25.777344 C 61.257812 25.691406 61.28125 25.878906 61.28125 25.820312 C 61.28125 25.804688 61.273438 25.785156 61.273438 25.769531 C 61.273438 25.742188 61.265625 25.703125 61.265625 25.675781 C 61.257812 25.609375 61.257812 25.554688 61.257812 25.488281 C 61.257812 25.378906 61.265625 25.277344 61.28125 25.167969 C 61.257812 25.371094 61.273438 25.203125 61.289062 25.152344 C 61.339844 24.921875 61.214844 24.648438 60.96875 24.59375 C 60.753906 24.550781 60.480469 24.667969 60.429688 24.921875 Z M 60.429688 24.921875 "/>
<path style=" stroke:none;fill-rule:nonzero;fill:rgb(0%,0%,0%);fill-opacity:1;" d="M 61.929688 25.039062 C 61.914062 25.21875 61.941406 25.40625 61.964844 25.589844 C 62.011719 25.933594 62.125 26.269531 62.296875 26.578125 C 62.53125 26.976562 62.910156 27.332031 63.363281 27.476562 C 63.757812 27.601562 64.167969 27.488281 64.464844 27.203125 C 64.636719 27.042969 64.757812 26.832031 64.839844 26.613281 C 64.921875 26.386719 64.746094 26.105469 64.519531 26.054688 C 64.261719 25.996094 64.058594 26.132812 63.96875 26.371094 C 64.03125 26.199219 63.996094 26.300781 63.957031 26.371094 C 63.9375 26.410156 63.925781 26.4375 63.902344 26.476562 C 63.894531 26.492188 63.878906 26.503906 63.875 26.519531 C 63.835938 26.578125 63.945312 26.433594 63.910156 26.46875 C 63.902344 26.480469 63.886719 26.488281 63.878906 26.503906 C 63.859375 26.527344 63.808594 26.605469 63.773438 26.613281 C 63.761719 26.613281 63.878906 26.542969 63.824219 26.570312 L 63.785156 26.59375 C 63.78125 26.597656 63.714844 26.644531 63.707031 26.636719 C 63.699219 26.625 63.828125 26.597656 63.761719 26.605469 C 63.75 26.605469 63.742188 26.613281 63.730469 26.613281 C 63.714844 26.621094 63.691406 26.621094 63.679688 26.628906 C 63.636719 26.644531 63.65625 26.597656 63.742188 26.621094 C 63.722656 26.613281 63.679688 26.621094 63.65625 26.621094 C 63.613281 26.621094 63.585938 26.59375 63.707031 26.625 C 63.683594 26.621094 63.664062 26.621094 63.640625 26.613281 C 63.605469 26.605469 63.578125 26.59375 63.539062 26.578125 C 63.484375 26.5625 63.640625 26.636719 63.5625 26.582031 C 63.546875 26.578125 63.527344 26.570312 63.511719 26.554688 C 63.46875 26.535156 63.425781 26.503906 63.382812 26.476562 C 63.367188 26.460938 63.355469 26.453125 63.339844 26.4375 C 63.441406 26.503906 63.367188 26.460938 63.347656 26.4375 C 63.28125 26.378906 63.21875 26.316406 63.160156 26.25 C 63.210938 26.316406 63.152344 26.242188 63.144531 26.234375 C 63.121094 26.199219 63.09375 26.164062 63.074219 26.125 C 63.03125 26.058594 63 25.988281 62.964844 25.914062 C 62.921875 25.820312 63 26.011719 62.957031 25.902344 C 62.945312 25.867188 62.929688 25.820312 62.914062 25.777344 C 62.875 25.648438 62.84375 25.519531 62.828125 25.382812 C 62.820312 25.347656 62.820312 25.292969 62.835938 25.445312 C 62.835938 25.429688 62.828125 25.410156 62.828125 25.394531 C 62.828125 25.363281 62.820312 25.34375 62.820312 25.3125 C 62.816406 25.261719 62.816406 25.210938 62.816406 25.167969 L 62.816406 25.039062 C 62.828125 24.796875 62.597656 24.570312 62.367188 24.585938 C 62.125 24.59375 61.941406 24.78125 61.929688 25.039062 Z M 61.929688 25.039062 "/>
<path style=" stroke:none;fill-rule:nonzero;fill:rgb(0%,0%,0%);fill-opacity:1;" d="M 63.621094 24.617188 C 63.605469 24.761719 63.621094 24.914062 63.636719 25.058594 C 63.679688 25.445312 63.78125 25.816406 63.96875 26.15625 C 64.199219 26.5625 64.570312 26.917969 65.023438 27.070312 C 65.414062 27.203125 65.824219 27.085938 66.121094 26.808594 C 66.300781 26.648438 66.421875 26.4375 66.511719 26.222656 C 66.59375 26.003906 66.414062 25.710938 66.191406 25.660156 C 65.933594 25.605469 65.730469 25.742188 65.636719 25.980469 C 65.71875 25.777344 65.660156 25.921875 65.628906 25.980469 C 65.609375 26.015625 65.59375 26.046875 65.574219 26.078125 C 65.558594 26.097656 65.507812 26.164062 65.5625 26.082031 C 65.625 26.003906 65.558594 26.089844 65.542969 26.105469 L 65.492188 26.15625 C 65.453125 26.191406 65.398438 26.207031 65.515625 26.144531 C 65.492188 26.15625 65.472656 26.171875 65.441406 26.1875 C 65.433594 26.191406 65.421875 26.191406 65.414062 26.199219 C 65.371094 26.226562 65.355469 26.199219 65.457031 26.1875 C 65.429688 26.191406 65.402344 26.207031 65.371094 26.214844 C 65.277344 26.242188 65.464844 26.214844 65.402344 26.214844 L 65.300781 26.214844 C 65.234375 26.214844 65.355469 26.222656 65.355469 26.222656 C 65.335938 26.214844 65.3125 26.214844 65.289062 26.207031 C 65.269531 26.199219 65.25 26.191406 65.226562 26.1875 C 65.183594 26.171875 65.210938 26.15625 65.261719 26.199219 C 65.234375 26.175781 65.183594 26.164062 65.15625 26.144531 C 65.113281 26.121094 65.074219 26.089844 65.039062 26.066406 C 64.960938 26.015625 65.097656 26.121094 65.054688 26.078125 C 65.035156 26.054688 65.011719 26.039062 64.988281 26.015625 L 64.902344 25.933594 C 64.871094 25.902344 64.84375 25.851562 64.816406 25.828125 C 64.824219 25.835938 64.882812 25.914062 64.839844 25.859375 C 64.824219 25.84375 64.816406 25.820312 64.800781 25.804688 C 64.773438 25.769531 64.75 25.726562 64.730469 25.691406 C 64.695312 25.625 64.664062 25.558594 64.628906 25.492188 C 64.695312 25.632812 64.636719 25.5 64.621094 25.472656 C 64.605469 25.4375 64.597656 25.398438 64.585938 25.363281 C 64.550781 25.234375 64.527344 25.105469 64.503906 24.976562 C 64.542969 25.152344 64.515625 25.023438 64.503906 24.976562 C 64.503906 24.949219 64.5 24.925781 64.5 24.898438 C 64.5 24.847656 64.492188 24.804688 64.492188 24.753906 L 64.492188 24.621094 C 64.515625 24.382812 64.269531 24.15625 64.046875 24.171875 C 63.816406 24.179688 63.640625 24.359375 63.621094 24.617188 Z M 63.621094 24.617188 "/>
<path style=" stroke:none;fill-rule:nonzero;fill:rgb(0%,0%,0%);fill-opacity:1;" d="M 65.210938 24.214844 C 65.21875 24.738281 65.386719 25.320312 65.6875 25.742188 C 65.953125 26.121094 66.335938 26.460938 66.789062 26.566406 C 67.183594 26.664062 67.597656 26.539062 67.871094 26.238281 C 68.027344 26.058594 68.148438 25.851562 68.214844 25.632812 C 68.289062 25.40625 68.136719 25.121094 67.898438 25.070312 C 67.65625 25.007812 67.410156 25.152344 67.34375 25.394531 C 67.34375 25.398438 67.335938 25.410156 67.335938 25.414062 C 67.332031 25.421875 67.332031 25.4375 67.324219 25.445312 C 67.300781 25.515625 67.378906 25.3125 67.34375 25.386719 C 67.308594 25.460938 67.265625 25.53125 67.222656 25.605469 C 67.191406 25.648438 67.308594 25.5 67.257812 25.554688 C 67.25 25.558594 67.242188 25.566406 67.234375 25.574219 C 67.222656 25.597656 67.203125 25.609375 67.1875 25.625 C 67.140625 25.671875 67.097656 25.671875 67.207031 25.617188 L 67.136719 25.667969 C 67.125 25.675781 67.109375 25.679688 67.101562 25.691406 C 67.058594 25.722656 67.222656 25.65625 67.152344 25.671875 C 67.128906 25.675781 67.101562 25.683594 67.078125 25.691406 C 67.007812 25.710938 67.1875 25.683594 67.128906 25.683594 L 67.035156 25.683594 C 66.976562 25.683594 66.96875 25.65625 67.0625 25.691406 C 67.027344 25.675781 66.992188 25.675781 66.957031 25.671875 L 66.890625 25.648438 C 66.847656 25.632812 66.863281 25.609375 66.917969 25.660156 C 66.90625 25.648438 66.652344 25.511719 66.660156 25.511719 C 66.660156 25.511719 66.746094 25.582031 66.683594 25.53125 C 66.667969 25.515625 66.652344 25.511719 66.640625 25.492188 C 66.609375 25.464844 66.582031 25.4375 66.550781 25.40625 C 66.523438 25.378906 66.496094 25.351562 66.472656 25.320312 C 66.464844 25.3125 66.449219 25.28125 66.4375 25.277344 C 66.480469 25.335938 66.488281 25.34375 66.457031 25.304688 C 66.449219 25.300781 66.449219 25.292969 66.445312 25.28125 C 66.402344 25.21875 66.359375 25.15625 66.320312 25.089844 C 66.300781 25.050781 66.285156 25.015625 66.265625 24.976562 L 66.242188 24.933594 C 66.207031 24.855469 66.285156 25.039062 66.25 24.957031 C 66.199219 24.828125 66.164062 24.695312 66.125 24.5625 C 66.113281 24.503906 66.105469 24.449219 66.09375 24.390625 C 66.09375 24.382812 66.09375 24.367188 66.082031 24.359375 C 66.070312 24.289062 66.097656 24.492188 66.09375 24.425781 C 66.09375 24.40625 66.082031 24.382812 66.082031 24.355469 C 66.078125 24.3125 66.078125 24.265625 66.078125 24.222656 C 66.078125 23.984375 65.867188 23.757812 65.628906 23.773438 C 65.394531 23.777344 65.207031 23.976562 65.210938 24.214844 Z M 65.210938 24.214844 "/>
<path style=" stroke:none;fill-rule:nonzero;fill:rgb(0%,0%,0%);fill-opacity:1;" d="M 66.6875 23.621094 C 66.710938 24.144531 66.898438 24.703125 67.207031 25.125 C 67.488281 25.503906 67.894531 25.84375 68.359375 25.921875 C 68.75 25.988281 69.148438 25.882812 69.410156 25.566406 C 69.5625 25.394531 69.6875 25.183594 69.742188 24.949219 C 69.800781 24.714844 69.664062 24.449219 69.425781 24.390625 C 69.1875 24.339844 68.9375 24.460938 68.871094 24.710938 C 68.863281 24.746094 68.851562 24.777344 68.835938 24.8125 C 68.8125 24.859375 68.890625 24.683594 68.855469 24.753906 C 68.851562 24.773438 68.839844 24.792969 68.828125 24.8125 C 68.808594 24.855469 68.785156 24.894531 68.757812 24.933594 C 68.75 24.941406 68.742188 24.957031 68.734375 24.964844 L 68.777344 24.914062 C 68.761719 24.925781 68.746094 24.949219 68.734375 24.964844 C 68.710938 24.988281 68.691406 25 68.679688 25.023438 C 68.648438 25.050781 68.632812 25.023438 68.726562 24.988281 C 68.710938 24.992188 68.699219 25.007812 68.683594 25.015625 C 68.664062 25.03125 68.574219 25.066406 68.664062 25.03125 C 68.75 24.992188 68.648438 25.03125 68.628906 25.039062 C 68.613281 25.039062 68.597656 25.042969 68.589844 25.042969 C 68.535156 25.066406 68.648438 25.039062 68.648438 25.039062 C 68.617188 25.03125 68.5625 25.039062 68.535156 25.039062 C 68.476562 25.039062 68.65625 25.066406 68.566406 25.042969 C 68.554688 25.039062 68.539062 25.039062 68.519531 25.039062 C 68.484375 25.03125 68.445312 25.007812 68.402344 25 C 68.34375 24.988281 68.503906 25.050781 68.417969 25.007812 C 68.394531 25 68.382812 24.988281 68.359375 24.976562 C 68.316406 24.957031 68.273438 24.925781 68.230469 24.898438 C 68.210938 24.886719 68.191406 24.871094 68.171875 24.855469 C 68.148438 24.839844 68.109375 24.832031 68.160156 24.847656 C 68.167969 24.855469 68.171875 24.863281 68.179688 24.863281 C 68.167969 24.847656 68.148438 24.839844 68.136719 24.828125 C 68.121094 24.8125 68.109375 24.804688 68.09375 24.789062 C 68.027344 24.734375 67.976562 24.648438 67.914062 24.59375 C 67.921875 24.601562 67.976562 24.683594 67.9375 24.621094 C 67.925781 24.609375 67.914062 24.59375 67.90625 24.578125 C 67.882812 24.542969 67.863281 24.507812 67.839844 24.472656 C 67.804688 24.40625 67.769531 24.339844 67.742188 24.273438 C 67.691406 24.15625 67.777344 24.367188 67.730469 24.253906 C 67.71875 24.222656 67.710938 24.195312 67.703125 24.164062 L 67.640625 23.960938 L 67.597656 23.789062 C 67.589844 23.75 67.5625 23.671875 67.566406 23.632812 C 67.566406 23.621094 67.582031 23.773438 67.582031 23.722656 L 67.582031 23.695312 C 67.582031 23.679688 67.582031 23.664062 67.574219 23.65625 L 67.574219 23.621094 C 67.558594 23.378906 67.375 23.15625 67.128906 23.160156 C 66.90625 23.175781 66.671875 23.367188 66.6875 23.621094 Z M 66.6875 23.621094 "/>
<path style=" stroke:none;fill-rule:nonzero;fill:rgb(0%,0%,0%);fill-opacity:1;" d="M 68.742188 21.824219 C 68.511719 22.707031 68.65625 23.742188 68.972656 24.578125 C 69.238281 25.277344 69.65625 26.121094 70.367188 26.449219 C 70.894531 26.691406 71.519531 26.570312 71.917969 26.144531 C 72.3125 25.726562 72.546875 25.058594 72.339844 24.5 C 72.257812 24.265625 72.039062 24.117188 71.789062 24.179688 C 71.570312 24.238281 71.394531 24.503906 71.472656 24.738281 C 71.488281 24.777344 71.492188 24.8125 71.507812 24.855469 C 71.515625 24.878906 71.515625 24.890625 71.523438 24.910156 C 71.5 24.796875 71.515625 24.859375 71.515625 24.898438 L 71.515625 25.023438 C 71.515625 25.042969 71.5 25.109375 71.515625 25.039062 C 71.53125 24.964844 71.507812 25.058594 71.507812 25.070312 C 71.492188 25.117188 71.488281 25.152344 71.472656 25.195312 C 71.464844 25.21875 71.457031 25.238281 71.449219 25.253906 C 71.484375 25.152344 71.464844 25.226562 71.449219 25.253906 C 71.425781 25.292969 71.40625 25.335938 71.386719 25.371094 C 71.363281 25.398438 71.285156 25.5 71.347656 25.429688 C 71.320312 25.457031 71.292969 25.492188 71.261719 25.523438 C 71.25 25.539062 71.21875 25.558594 71.203125 25.582031 C 71.171875 25.625 71.269531 25.542969 71.21875 25.566406 C 71.183594 25.589844 71.148438 25.609375 71.109375 25.632812 C 71.097656 25.640625 71.03125 25.671875 71.097656 25.648438 C 71.160156 25.617188 71.074219 25.65625 71.058594 25.65625 C 71.007812 25.671875 70.925781 25.675781 71.027344 25.671875 C 70.980469 25.671875 70.925781 25.660156 70.882812 25.671875 C 70.824219 25.675781 70.953125 25.691406 70.902344 25.671875 C 70.882812 25.660156 70.859375 25.660156 70.835938 25.65625 C 70.816406 25.644531 70.792969 25.640625 70.773438 25.632812 C 70.730469 25.617188 70.832031 25.667969 70.757812 25.625 C 70.628906 25.542969 70.628906 25.554688 70.511719 25.445312 C 70.414062 25.34375 70.324219 25.230469 70.246094 25.109375 C 70.066406 24.832031 69.917969 24.535156 69.800781 24.222656 C 69.691406 23.921875 69.613281 23.605469 69.570312 23.285156 C 69.578125 23.335938 69.566406 23.242188 69.566406 23.234375 C 69.554688 23.175781 69.546875 23.117188 69.546875 23.0625 C 69.542969 22.945312 69.53125 22.828125 69.542969 22.710938 C 69.542969 22.609375 69.546875 22.5 69.554688 22.398438 C 69.566406 22.355469 69.566406 22.3125 69.570312 22.261719 C 69.578125 22.1875 69.546875 22.382812 69.570312 22.261719 C 69.585938 22.195312 69.59375 22.121094 69.605469 22.058594 C 69.671875 21.816406 69.53125 21.566406 69.289062 21.496094 C 69.050781 21.449219 68.8125 21.589844 68.742188 21.824219 Z M 84.882812 17.726562 C 86.34375 18.890625 87.699219 20.523438 88.328125 22.304688 C 88.585938 23.046875 88.699219 23.824219 88.953125 24.566406 C 89.144531 25.152344 89.386719 25.734375 89.6875 26.28125 C 89.933594 26.730469 90.226562 27.222656 90.617188 27.574219 C 90.796875 27.332031 90.976562 27.101562 91.164062 26.859375 C 88.371094 25.300781 85.964844 22.667969 84.515625 19.820312 C 84.25 19.296875 83.472656 19.761719 83.738281 20.277344 C 84.804688 22.378906 86.332031 24.214844 88.109375 25.742188 C 88.917969 26.4375 89.78125 27.113281 90.71875 27.636719 C 91.148438 27.878906 91.652344 27.28125 91.265625 26.925781 C 90.882812 26.578125 90.609375 26.082031 90.378906 25.632812 C 89.714844 24.339844 89.582031 22.882812 89.011719 21.554688 C 88.28125 19.839844 86.992188 18.234375 85.53125 17.082031 C 85.070312 16.730469 84.429688 17.371094 84.882812 17.726562 Z M 84.882812 17.726562 "/>
<path style=" stroke:none;fill-rule:nonzero;fill:rgb(0%,0%,0%);fill-opacity:1;" d="M 83.59375 20.800781 C 84.992188 22.128906 86.191406 23.945312 86.625 25.84375 C 87.035156 27.609375 87.109375 29.722656 88.410156 31.132812 C 88.59375 30.894531 88.773438 30.660156 88.960938 30.417969 C 88.167969 29.875 87.433594 29.1875 86.753906 28.480469 C 85.183594 26.875 83.875 24.992188 83.03125 22.894531 C 82.816406 22.355469 81.945312 22.59375 82.160156 23.132812 C 83.421875 26.28125 85.695312 29.273438 88.503906 31.199219 C 88.945312 31.496094 89.386719 30.851562 89.050781 30.484375 C 88.945312 30.371094 88.980469 30.398438 88.867188 30.226562 C 88.660156 29.902344 88.484375 29.558594 88.339844 29.199219 C 87.785156 27.847656 87.785156 26.386719 87.347656 25.015625 C 86.769531 23.207031 85.613281 21.46875 84.242188 20.164062 C 83.808594 19.753906 83.171875 20.394531 83.59375 20.800781 Z M 83.59375 20.800781 "/>
<path style=" stroke:none;fill-rule:nonzero;fill:rgb(0%,0%,0%);fill-opacity:1;" d="M 81.542969 22.144531 C 82.5 23.546875 83.210938 25.355469 83.183594 27.070312 C 83.152344 28.546875 82.9375 30.304688 83.730469 31.648438 C 83.96875 31.46875 84.199219 31.285156 84.4375 31.097656 C 82.5625 29.113281 81.277344 26.351562 80.8125 23.679688 C 80.710938 23.105469 79.847656 23.34375 79.941406 23.917969 C 80.433594 26.742188 81.820312 29.644531 83.796875 31.734375 C 84.148438 32.105469 84.757812 31.628906 84.503906 31.183594 C 83.722656 29.863281 84.175781 27.972656 84.054688 26.460938 C 83.917969 24.789062 83.253906 23.066406 82.3125 21.679688 C 81.988281 21.207031 81.210938 21.664062 81.542969 22.144531 Z M 81.542969 22.144531 "/>
<path style=" stroke:none;fill-rule:nonzero;fill:rgb(0%,0%,0%);fill-opacity:1;" d="M 79.53125 22.683594 C 80.160156 24.230469 80.488281 26.113281 80.128906 27.753906 C 79.8125 29.230469 79.171875 30.914062 79.675781 32.433594 C 79.949219 32.316406 80.222656 32.203125 80.496094 32.085938 C 78.984375 30.050781 78.394531 27.238281 78.488281 24.746094 C 78.511719 24.164062 77.609375 24.164062 77.585938 24.746094 C 77.511719 26.664062 77.84375 28.574219 78.558594 30.347656 C 78.867188 31.105469 79.230469 31.878906 79.71875 32.542969 C 80 32.921875 80.71875 32.722656 80.539062 32.195312 C 80.023438 30.628906 80.886719 28.945312 81.085938 27.421875 C 81.304688 25.777344 81.007812 23.96875 80.390625 22.433594 C 80.179688 21.90625 79.308594 22.144531 79.53125 22.683594 Z M 79.53125 22.683594 "/>
<path style=" stroke:none;fill-rule:nonzero;fill:rgb(0%,0%,0%);fill-opacity:1;" d="M 77.195312 24.921875 C 77.421875 26.058594 77.390625 27.5 76.953125 28.640625 C 76.511719 29.78125 75.691406 30.980469 75.859375 32.28125 C 76.136719 32.203125 76.421875 32.128906 76.695312 32.050781 C 75.769531 30.1875 75.417969 27.71875 75.890625 25.640625 C 76.023438 25.070312 75.160156 24.828125 75.023438 25.398438 C 74.488281 27.726562 74.847656 30.378906 75.910156 32.511719 C 76.097656 32.902344 76.808594 32.730469 76.746094 32.28125 C 76.570312 30.945312 77.550781 29.765625 77.910156 28.558594 C 78.277344 27.332031 78.292969 25.933594 78.046875 24.671875 C 77.953125 24.105469 77.082031 24.34375 77.195312 24.921875 Z M 77.195312 24.921875 "/>
<path style=" stroke:none;fill-rule:nonzero;fill:rgb(0%,0%,0%);fill-opacity:1;" d="M 74.640625 26.011719 C 74.625 26.875 74.410156 27.84375 73.941406 28.621094 C 73.742188 28.953125 73.472656 29.230469 73.25 29.542969 C 73.046875 29.824219 72.871094 30.125 72.726562 30.441406 C 72.585938 30.757812 72.464844 31.074219 72.4375 31.417969 C 72.730469 31.375 73.027344 31.335938 73.324219 31.292969 C 73.351562 31.511719 73.332031 31.328125 73.324219 31.273438 C 73.308594 31.15625 73.300781 31.03125 73.292969 30.914062 C 73.273438 30.523438 73.265625 30.125 73.277344 29.722656 C 73.328125 28.570312 73.546875 27.402344 74.042969 26.359375 C 74.285156 25.835938 73.515625 25.371094 73.265625 25.902344 C 72.457031 27.617188 72.183594 29.664062 72.453125 31.539062 C 72.480469 31.757812 72.746094 31.894531 72.949219 31.867188 C 73.167969 31.835938 73.332031 31.648438 73.339844 31.425781 C 73.34375 31.34375 73.308594 31.570312 73.332031 31.46875 L 73.371094 31.285156 C 73.433594 31.078125 73.511719 30.875 73.613281 30.683594 C 73.957031 30.015625 74.527344 29.496094 74.867188 28.824219 C 75.292969 27.949219 75.523438 26.992188 75.539062 26.015625 C 75.558594 25.421875 74.65625 25.421875 74.640625 26.011719 Z M 74.640625 26.011719 "/>
<path style=" stroke:none;fill-rule:nonzero;fill:rgb(0%,0%,0%);fill-opacity:1;" d="M 70.425781 26.5 C 70.453125 27.039062 70.632812 27.5625 70.945312 28.003906 C 71.226562 28.378906 71.628906 28.71875 72.097656 28.800781 C 72.488281 28.867188 72.882812 28.757812 73.148438 28.445312 C 73.300781 28.269531 73.421875 28.058594 73.480469 27.824219 C 73.539062 27.59375 73.402344 27.324219 73.164062 27.265625 C 72.925781 27.214844 72.675781 27.34375 72.609375 27.585938 C 72.601562 27.625 72.589844 27.652344 72.574219 27.6875 C 72.550781 27.738281 72.632812 27.558594 72.59375 27.632812 C 72.566406 27.695312 72.53125 27.753906 72.492188 27.8125 C 72.488281 27.820312 72.480469 27.835938 72.472656 27.84375 C 72.472656 27.84375 72.550781 27.746094 72.515625 27.792969 C 72.503906 27.804688 72.488281 27.824219 72.472656 27.84375 C 72.453125 27.863281 72.429688 27.878906 72.414062 27.898438 C 72.386719 27.929688 72.371094 27.898438 72.464844 27.863281 C 72.453125 27.871094 72.4375 27.886719 72.425781 27.890625 C 72.402344 27.910156 72.3125 27.941406 72.402344 27.910156 C 72.488281 27.871094 72.386719 27.910156 72.363281 27.914062 C 72.351562 27.914062 72.335938 27.921875 72.328125 27.921875 C 72.269531 27.941406 72.386719 27.914062 72.386719 27.914062 C 72.359375 27.910156 72.300781 27.914062 72.269531 27.914062 C 72.214844 27.914062 72.394531 27.941406 72.308594 27.921875 C 72.292969 27.914062 72.28125 27.914062 72.257812 27.914062 C 72.222656 27.910156 72.183594 27.886719 72.140625 27.878906 C 72.085938 27.863281 72.242188 27.929688 72.15625 27.886719 C 72.132812 27.878906 72.117188 27.863281 72.097656 27.855469 C 72.054688 27.835938 72.011719 27.804688 71.96875 27.777344 C 71.949219 27.765625 71.929688 27.75 71.910156 27.730469 C 71.890625 27.71875 71.84375 27.710938 71.894531 27.726562 C 71.90625 27.730469 71.910156 27.742188 71.917969 27.742188 C 71.902344 27.726562 71.890625 27.71875 71.875 27.703125 C 71.863281 27.6875 71.84375 27.679688 71.832031 27.667969 C 71.765625 27.609375 71.714844 27.527344 71.652344 27.46875 C 71.660156 27.476562 71.714844 27.558594 71.671875 27.5 C 71.667969 27.484375 71.652344 27.46875 71.644531 27.457031 C 71.621094 27.421875 71.601562 27.382812 71.578125 27.347656 C 71.542969 27.28125 71.507812 27.214844 71.476562 27.148438 C 71.425781 27.035156 71.515625 27.246094 71.472656 27.128906 C 71.460938 27.101562 71.449219 27.074219 71.445312 27.042969 C 71.421875 26.976562 71.398438 26.910156 71.378906 26.835938 C 71.363281 26.78125 71.347656 26.722656 71.335938 26.664062 C 71.328125 26.628906 71.300781 26.546875 71.304688 26.511719 C 71.304688 26.5 71.320312 26.648438 71.320312 26.597656 L 71.320312 26.570312 C 71.320312 26.554688 71.320312 26.542969 71.316406 26.53125 L 71.316406 26.5 C 71.300781 26.257812 71.109375 26.03125 70.863281 26.046875 C 70.644531 26.054688 70.417969 26.242188 70.429688 26.5 Z M 70.425781 26.5 "/>
<path style=" stroke:none;fill-rule:nonzero;fill:rgb(0%,0%,0%);fill-opacity:1;" d="M 68.640625 25.394531 C 68.460938 26.066406 68.566406 26.859375 68.8125 27.5 C 69.023438 28.042969 69.347656 28.707031 69.910156 28.960938 C 70.347656 29.167969 70.867188 29.070312 71.199219 28.714844 C 71.515625 28.378906 71.710938 27.835938 71.542969 27.375 C 71.464844 27.152344 71.234375 26.976562 70.988281 27.058594 C 70.773438 27.128906 70.585938 27.375 70.671875 27.617188 C 70.679688 27.644531 70.6875 27.675781 70.703125 27.703125 C 70.730469 27.8125 70.703125 27.609375 70.703125 27.703125 L 70.703125 27.796875 C 70.703125 27.886719 70.730469 27.699219 70.703125 27.804688 C 70.691406 27.835938 70.6875 27.871094 70.671875 27.898438 C 70.636719 28.015625 70.714844 27.824219 70.664062 27.914062 C 70.652344 27.941406 70.636719 27.972656 70.613281 28 C 70.609375 28.019531 70.597656 28.03125 70.585938 28.046875 C 70.535156 28.125 70.609375 28.023438 70.609375 28.023438 C 70.609375 28.03125 70.550781 28.085938 70.542969 28.097656 C 70.527344 28.109375 70.511719 28.125 70.5 28.140625 C 70.464844 28.183594 70.578125 28.085938 70.535156 28.109375 C 70.507812 28.125 70.484375 28.148438 70.457031 28.160156 C 70.441406 28.167969 70.390625 28.191406 70.457031 28.160156 C 70.527344 28.132812 70.464844 28.160156 70.441406 28.160156 C 70.425781 28.160156 70.414062 28.167969 70.398438 28.175781 C 70.335938 28.199219 70.433594 28.167969 70.449219 28.167969 C 70.433594 28.160156 70.363281 28.167969 70.339844 28.167969 C 70.285156 28.175781 70.441406 28.191406 70.382812 28.175781 C 70.367188 28.167969 70.347656 28.167969 70.335938 28.160156 C 70.320312 28.152344 70.300781 28.148438 70.285156 28.148438 C 70.234375 28.132812 70.367188 28.199219 70.296875 28.152344 C 70.285156 28.148438 70.261719 28.132812 70.246094 28.125 C 70.238281 28.125 70.152344 28.066406 70.210938 28.101562 C 70.261719 28.140625 70.203125 28.097656 70.191406 28.085938 C 70.171875 28.074219 70.152344 28.058594 70.140625 28.035156 C 70.101562 28 70.066406 27.960938 70.03125 27.921875 C 69.988281 27.871094 70.0625 27.972656 70.023438 27.90625 C 70.003906 27.878906 69.980469 27.84375 69.960938 27.8125 C 69.882812 27.699219 69.816406 27.578125 69.757812 27.457031 C 69.726562 27.40625 69.707031 27.347656 69.675781 27.289062 C 69.648438 27.222656 69.699219 27.347656 69.671875 27.277344 C 69.65625 27.238281 69.644531 27.210938 69.636719 27.171875 C 69.554688 26.960938 69.503906 26.742188 69.46875 26.519531 C 69.449219 26.402344 69.476562 26.585938 69.460938 26.46875 C 69.453125 26.425781 69.453125 26.382812 69.449219 26.335938 C 69.441406 26.25 69.441406 26.164062 69.441406 26.078125 C 69.441406 25.996094 69.449219 25.925781 69.449219 25.84375 C 69.449219 25.808594 69.453125 25.777344 69.453125 25.742188 C 69.460938 25.671875 69.433594 25.878906 69.453125 25.769531 C 69.460938 25.722656 69.46875 25.671875 69.484375 25.617188 C 69.542969 25.386719 69.402344 25.117188 69.167969 25.058594 C 68.957031 25.023438 68.707031 25.144531 68.640625 25.394531 Z M 68.640625 25.394531 "/>
<path style=" stroke:none;fill-rule:nonzero;fill:rgb(0%,0%,0%);fill-opacity:1;" d="M 66.722656 26.027344 C 66.667969 26.164062 66.660156 26.332031 66.667969 26.476562 C 66.683594 26.871094 66.8125 27.246094 67.007812 27.585938 C 67.265625 28.058594 67.632812 28.523438 68.148438 28.707031 C 68.566406 28.851562 69.03125 28.726562 69.355469 28.4375 C 69.511719 28.292969 69.632812 28.101562 69.691406 27.898438 C 69.773438 27.660156 69.738281 27.414062 69.632812 27.1875 C 69.535156 26.96875 69.210938 26.898438 69.015625 27.027344 C 68.792969 27.171875 68.75 27.421875 68.855469 27.652344 C 68.792969 27.515625 68.828125 27.585938 68.839844 27.632812 C 68.863281 27.703125 68.839844 27.5 68.835938 27.601562 L 68.835938 27.636719 C 68.835938 27.675781 68.800781 27.699219 68.84375 27.570312 C 68.835938 27.601562 68.828125 27.632812 68.820312 27.660156 C 68.800781 27.753906 68.863281 27.582031 68.835938 27.636719 C 68.820312 27.660156 68.808594 27.6875 68.792969 27.71875 C 68.785156 27.730469 68.777344 27.738281 68.769531 27.753906 C 68.742188 27.804688 68.851562 27.660156 68.800781 27.71875 C 68.777344 27.738281 68.757812 27.761719 68.734375 27.78125 C 68.734375 27.78125 68.71875 27.796875 68.707031 27.804688 C 68.667969 27.84375 68.707031 27.777344 68.75 27.777344 C 68.726562 27.777344 68.699219 27.8125 68.679688 27.820312 C 68.664062 27.824219 68.65625 27.835938 68.640625 27.84375 C 68.566406 27.886719 68.734375 27.804688 68.683594 27.824219 C 68.65625 27.835938 68.628906 27.847656 68.589844 27.855469 C 68.574219 27.863281 68.554688 27.863281 68.539062 27.871094 C 68.488281 27.886719 68.648438 27.863281 68.589844 27.863281 L 68.488281 27.863281 C 68.453125 27.863281 68.433594 27.84375 68.539062 27.871094 C 68.523438 27.863281 68.511719 27.863281 68.488281 27.863281 C 68.453125 27.855469 68.402344 27.824219 68.367188 27.824219 C 68.417969 27.824219 68.445312 27.863281 68.402344 27.84375 C 68.390625 27.835938 68.367188 27.824219 68.351562 27.8125 C 68.316406 27.792969 68.28125 27.761719 68.238281 27.738281 C 68.1875 27.703125 68.316406 27.8125 68.238281 27.738281 C 68.222656 27.726562 68.199219 27.710938 68.1875 27.699219 C 68.144531 27.652344 68.101562 27.609375 68.066406 27.558594 C 68.050781 27.535156 68.027344 27.515625 68.015625 27.492188 C 68.027344 27.507812 68.066406 27.558594 68.015625 27.488281 C 67.984375 27.441406 67.957031 27.402344 67.925781 27.363281 C 67.867188 27.273438 67.8125 27.179688 67.761719 27.085938 C 67.742188 27.042969 67.71875 27.003906 67.699219 26.960938 C 67.691406 26.949219 67.683594 26.925781 67.675781 26.910156 C 67.652344 26.875 67.675781 26.867188 67.691406 26.941406 C 67.683594 26.875 67.640625 26.792969 67.621094 26.730469 C 67.605469 26.671875 67.589844 26.613281 67.574219 26.546875 C 67.554688 26.453125 67.582031 26.671875 67.574219 26.5625 C 67.574219 26.53125 67.570312 26.503906 67.570312 26.476562 L 67.570312 26.328125 C 67.574219 26.277344 67.597656 26.214844 67.558594 26.382812 C 67.558594 26.367188 67.570312 26.351562 67.570312 26.335938 C 67.574219 26.308594 67.582031 26.28125 67.589844 26.257812 C 67.675781 26.039062 67.496094 25.75 67.273438 25.699219 C 67.019531 25.648438 66.828125 25.792969 66.722656 26.027344 Z M 66.722656 26.027344 "/>
<path style=" stroke:none;fill-rule:nonzero;fill:rgb(0%,0%,0%);fill-opacity:1;" d="M 65.308594 26.371094 C 65.105469 26.832031 65.257812 27.363281 65.5 27.769531 C 65.738281 28.152344 66.0625 28.53125 66.5 28.675781 C 66.882812 28.800781 67.285156 28.691406 67.589844 28.4375 C 67.90625 28.167969 68.023438 27.726562 67.832031 27.347656 C 67.726562 27.136719 67.417969 27.058594 67.214844 27.1875 C 67 27.324219 66.941406 27.582031 67.058594 27.8125 C 67.078125 27.855469 67.007812 27.679688 67.035156 27.769531 C 67.0625 27.847656 67.035156 27.652344 67.027344 27.71875 L 67.027344 27.746094 C 67.035156 27.796875 67.035156 27.675781 67.042969 27.667969 C 67.042969 27.667969 67.027344 27.730469 67.027344 27.738281 C 67.011719 27.796875 67.085938 27.625 67.042969 27.703125 C 67.035156 27.726562 67.019531 27.738281 67.011719 27.761719 C 66.984375 27.820312 67.097656 27.667969 67.035156 27.730469 C 67.019531 27.753906 67 27.769531 66.984375 27.78125 C 66.925781 27.84375 67.078125 27.71875 67.007812 27.769531 C 66.984375 27.78125 66.96875 27.796875 66.949219 27.804688 C 66.941406 27.8125 66.914062 27.820312 66.90625 27.824219 C 66.90625 27.824219 67.019531 27.78125 66.960938 27.804688 C 66.933594 27.8125 66.914062 27.820312 66.882812 27.824219 C 66.867188 27.824219 66.863281 27.835938 66.847656 27.835938 C 66.796875 27.847656 66.960938 27.824219 66.914062 27.824219 L 66.789062 27.824219 C 66.738281 27.824219 66.898438 27.847656 66.847656 27.835938 C 66.816406 27.824219 66.785156 27.820312 66.753906 27.8125 C 66.738281 27.804688 66.722656 27.796875 66.710938 27.796875 C 66.804688 27.820312 66.789062 27.835938 66.753906 27.8125 C 66.722656 27.796875 66.695312 27.78125 66.667969 27.761719 C 66.652344 27.753906 66.640625 27.738281 66.621094 27.730469 C 66.558594 27.6875 66.644531 27.746094 66.652344 27.753906 C 66.632812 27.71875 66.574219 27.679688 66.542969 27.652344 C 66.515625 27.625 66.488281 27.585938 66.460938 27.550781 C 66.445312 27.535156 66.429688 27.515625 66.414062 27.5 C 66.394531 27.46875 66.367188 27.464844 66.429688 27.515625 C 66.371094 27.46875 66.328125 27.371094 66.292969 27.3125 C 66.257812 27.253906 66.226562 27.195312 66.199219 27.136719 L 66.175781 27.09375 C 66.15625 27.042969 66.214844 27.195312 66.199219 27.144531 C 66.191406 27.113281 66.175781 27.085938 66.171875 27.058594 C 66.15625 27.011719 66.144531 26.964844 66.136719 26.917969 C 66.125 26.898438 66.113281 26.804688 66.125 26.902344 C 66.144531 27.003906 66.125 26.917969 66.125 26.898438 L 66.125 26.757812 C 66.125 26.699219 66.113281 26.855469 66.113281 26.84375 C 66.121094 26.832031 66.121094 26.816406 66.121094 26.808594 C 66.121094 26.792969 66.125 26.773438 66.136719 26.757812 C 66.148438 26.691406 66.097656 26.84375 66.097656 26.84375 C 66.148438 26.730469 66.175781 26.621094 66.144531 26.5 C 66.109375 26.386719 66.035156 26.289062 65.933594 26.230469 C 65.726562 26.105469 65.40625 26.144531 65.308594 26.371094 Z M 37.386719 15.949219 C 37.710938 15.976562 37.253906 15.910156 37.527344 15.960938 C 37.828125 16.011719 38.128906 16.070312 38.425781 16.140625 C 39.476562 16.398438 40.449219 16.757812 41.378906 17.226562 C 44.722656 18.890625 47.308594 21.679688 49.066406 24.972656 C 50.648438 27.941406 51.539062 31.230469 52.070312 34.550781 C 52.246094 35.695312 53.984375 35.210938 53.804688 34.066406 C 52.472656 25.660156 47.988281 16.863281 39.261719 14.488281 C 38.65625 14.320312 38.023438 14.183594 37.394531 14.128906 C 36.230469 14.042969 36.234375 15.859375 37.386719 15.949219 Z M 37.386719 15.949219 "/>
<path style=" stroke:none;fill-rule:nonzero;fill:rgb(0%,0%,0%);fill-opacity:1;" d="M 61.660156 14.195312 C 59.960938 14.328125 58.277344 14.972656 56.761719 15.71875 C 53.167969 17.515625 50.324219 20.582031 48.4375 24.121094 C 46.773438 27.230469 45.800781 30.652344 45.253906 34.128906 C 45.074219 35.265625 46.808594 35.761719 46.992188 34.605469 C 48.222656 26.816406 52.199219 18.492188 60.28125 16.296875 C 60.667969 16.191406 61.054688 16.113281 61.445312 16.03125 C 61.839844 15.960938 61.320312 16.03125 61.660156 16.003906 C 62.804688 15.925781 62.820312 14.109375 61.660156 14.195312 Z M 38.085938 16.011719 L 38.085938 34.367188 C 38.085938 35.539062 39.886719 35.539062 39.886719 34.367188 L 39.886719 16.011719 C 39.886719 14.847656 38.085938 14.84375 38.085938 16.011719 Z M 38.085938 16.011719 "/>
<path style=" stroke:none;fill-rule:nonzero;fill:rgb(0%,0%,0%);fill-opacity:1;" d="M 59.121094 16.011719 L 59.121094 34.367188 C 59.121094 35.539062 60.921875 35.539062 60.921875 34.367188 L 60.921875 16.011719 C 60.921875 14.847656 59.121094 14.84375 59.121094 16.011719 Z M 59.121094 16.011719 "/>
<path style=" stroke:none;fill-rule:nonzero;fill:rgb(0%,0%,0%);fill-opacity:1;" d="M 59.941406 22.261719 C 56.792969 22.523438 54.539062 25.640625 53.433594 28.3125 C 52.648438 30.226562 52.265625 32.261719 52.03125 34.300781 C 51.972656 34.789062 52.488281 35.210938 52.933594 35.210938 C 53.464844 35.210938 53.773438 34.789062 53.832031 34.300781 C 54.019531 32.644531 54.359375 30.988281 54.929688 29.417969 C 55.300781 28.402344 55.898438 27.246094 56.476562 26.492188 C 56.75 26.125 57.058594 25.792969 57.390625 25.480469 C 57.535156 25.347656 57.675781 25.21875 57.832031 25.101562 C 57.949219 25 57.738281 25.167969 57.902344 25.042969 C 57.988281 24.988281 58.066406 24.921875 58.15625 24.871094 C 58.414062 24.695312 58.683594 24.542969 58.960938 24.40625 C 59.019531 24.375 59.070312 24.355469 59.125 24.324219 C 59.25 24.265625 58.925781 24.398438 59.132812 24.324219 C 59.242188 24.289062 59.347656 24.246094 59.460938 24.207031 C 59.621094 24.148438 59.796875 24.117188 59.96875 24.078125 C 60.273438 24.003906 59.8125 24.082031 59.945312 24.078125 C 61.085938 23.984375 61.09375 22.167969 59.941406 22.261719 Z M 38.980469 24.070312 C 39.136719 24.082031 38.664062 24 38.910156 24.0625 C 39.054688 24.101562 39.1875 24.121094 39.332031 24.164062 C 39.429688 24.195312 39.519531 24.222656 39.613281 24.25 C 39.664062 24.265625 39.714844 24.289062 39.757812 24.300781 C 39.796875 24.316406 40.023438 24.410156 39.875 24.347656 C 39.722656 24.28125 39.925781 24.367188 39.953125 24.382812 C 40.019531 24.410156 40.089844 24.449219 40.152344 24.484375 C 40.296875 24.554688 40.441406 24.636719 40.578125 24.726562 C 40.722656 24.8125 40.859375 24.90625 40.996094 25 C 41.0625 25.050781 41.132812 25.09375 41.199219 25.144531 C 41.039062 25.023438 41.308594 25.234375 41.34375 25.261719 C 41.675781 25.542969 41.984375 25.859375 42.269531 26.191406 C 42.898438 26.925781 43.480469 27.929688 43.898438 28.910156 C 44.621094 30.609375 45.007812 32.46875 45.21875 34.292969 C 45.273438 34.78125 45.59375 35.203125 46.117188 35.203125 C 46.558594 35.203125 47.074219 34.789062 47.019531 34.292969 C 46.492188 29.769531 44.808594 24.039062 39.988281 22.457031 C 39.660156 22.347656 39.320312 22.277344 38.972656 22.246094 C 37.824219 22.160156 37.828125 23.976562 38.980469 24.070312 Z M 36.640625 35.339844 L 41.324219 35.339844 C 41.789062 35.339844 42.242188 34.925781 42.222656 34.433594 C 42.199219 33.9375 41.824219 33.523438 41.324219 33.523438 L 36.640625 33.523438 C 36.171875 33.523438 35.714844 33.9375 35.738281 34.433594 C 35.761719 34.925781 36.132812 35.339844 36.640625 35.339844 Z M 57.597656 35.339844 L 62.28125 35.339844 C 62.75 35.339844 63.203125 34.925781 63.183594 34.433594 C 63.160156 33.9375 62.785156 33.523438 62.28125 33.523438 L 57.597656 33.523438 C 57.128906 33.523438 56.679688 33.9375 56.699219 34.433594 C 56.71875 34.925781 57.085938 35.339844 57.597656 35.339844 Z M 57.597656 35.339844 "/>
</g>
</svg>
